SplineFontDB: 3.0
FontName: GOST2930-62PART1
FullName: GOST 2930-62 PART 1
FamilyName: GOST 2930-62 PART 1
Weight: Book
Copyright: Bce paa paea Hyeo e
Version: 1.00 May 8, 2005, initial release
ItalicAngle: 0
UnderlinePosition: -300
UnderlineWidth: 200
Ascent: 1638
Descent: 410
InvalidEm: 0
sfntRevision: 0x00010000
LayerCount: 2
Layer: 0 1 "+BBcEMAQ0BD0EOAQ5 +BD8EOwQwBD0A" 1
Layer: 1 1 "+BB8ENQRABDUENAQ9BDgEOQAA +BD8EOwQwBD0A" 0
XUID: [1021 200 1631105240 8228]
StyleMap: 0x0000
FSType: 8
OS2Version: 1
OS2_WeightWidthSlopeOnly: 0
OS2_UseTypoMetrics: 0
CreationTime: 1115562651
ModificationTime: 1126553222
PfmFamily: 17
TTFWeight: 400
TTFWidth: 5
LineGap: 700
VLineGap: 0
Panose: 2 0 0 0 0 0 0 0 0 0
OS2TypoAscent: 1200
OS2TypoAOffset: 0
OS2TypoDescent: -450
OS2TypoDOffset: 0
OS2TypoLinegap: 205
OS2WinAscent: 1800
OS2WinAOffset: 0
OS2WinDescent: 450
OS2WinDOffset: 0
HheadAscent: 1500
HheadAOffset: 0
HheadDescent: 0
HheadDOffset: 0
OS2SubXSize: 0
OS2SubYSize: 0
OS2SubXOff: 0
OS2SubYOff: 0
OS2SupXSize: 0
OS2SupYSize: 0
OS2SupXOff: 0
OS2SupYOff: 0
OS2StrikeYSize: 100
OS2StrikeYPos: 600
OS2Vendor: 'GOST'
OS2CodePages: 6000019f.dff70000
OS2UnicodeRanges: a00002af.500078fb.00000000.00000000
DEI: 91125
ShortTable: maxp 16
  1
  0
  203
  72
  5
  0
  0
  2
  16
  47
  66
  0
  1036
  0
  0
  0
EndShort
LangName: 1033 "+BBIEQQQ1 +BD8EQAQwBDIEMAAA +BD8EQAQ4BD0EMAQ0BDsENQQ2BDAEQgAA +BB0EOAQ6BEMEOwQ1BD0EOgQ+ +BBgEOwRMBDUA" "" "Regular" "GOST 2930-62 PART 2:Version 1.00" "" "Version 1.00 May 8, 2005, initial release" "" "" "" "" "This font was created using Font Creator 5.0 from High-Logic.com"
Encoding: UnicodeBmp
UnicodeInterp: none
NameList: AGL For New Fonts
DisplaySize: -48
AntiAlias: 1
FitToEm: 0
WinInfo: 54 27 9
BeginChars: 65537 203

StartChar: .notdef
Encoding: 65536 -1 0
Width: 1204
Flags: W
LayerCount: 2
Fore
SplineSet
0 0 m 1,0,-1
 0 1280 l 1,1,-1
 1024 1280 l 1,2,-1
 1024 0 l 1,3,-1
 0 0 l 1,0,-1
32 32 m 1,4,-1
 992 32 l 1,5,-1
 992 1248 l 1,6,-1
 32 1248 l 1,7,-1
 32 32 l 1,4,-1
EndSplineSet
EndChar

StartChar: quotedbl
Encoding: 34 34 1
Width: 487
Flags: W
LayerCount: 2
Fore
SplineSet
113 1320 m 1,0,-1
 114 1319 l 1,1,-1
 115 1319 l 1,2,-1
 50 1080 l 1,3,-1
 -31 1080 l 1,4,-1
 -32 1081 l 1,5,-1
 32 1320 l 1,6,-1
 113 1320 l 1,0,-1
193 1320 m 1,7,-1
 274 1320 l 1,8,-1
 274 1319 l 1,9,-1
 275 1319 l 1,10,-1
 211 1080 l 1,11,-1
 130 1080 l 1,12,-1
 129 1081 l 1,13,-1
 128 1081 l 1,14,-1
 193 1320 l 1,7,-1
EndSplineSet
EndChar

StartChar: percent
Encoding: 37 37 2
Width: 963
Flags: W
LayerCount: 2
Fore
SplineSet
783 1200 m 1,0,-1
 90 0 l 1,1,-1
 0 0 l 1,2,-1
 693 1200 l 1,3,-1
 783 1200 l 1,0,-1
180 1200 m 256,4,5
 255 1200 255 1200 307.5 1147.5 c 128,-1,6
 360 1095 360 1095 360 1020 c 256,7,8
 360 945 360 945 307.5 892.5 c 128,-1,9
 255 840 255 840 180 840 c 256,10,11
 105 840 105 840 52.5 892.5 c 128,-1,12
 0 945 0 945 0 1020 c 256,13,14
 0 1095 0 1095 52.5 1147.5 c 128,-1,15
 105 1200 105 1200 180 1200 c 256,4,5
180 1123 m 0,16,17
 138 1123 138 1123 108 1093 c 128,-1,18
 78 1063 78 1063 78 1021 c 0,19,20
 78 978 78 978 108 948 c 128,-1,21
 138 918 138 918 180 918 c 256,22,23
 222 918 222 918 252 948 c 128,-1,24
 282 978 282 978 282 1021 c 0,25,26
 282 1063 282 1063 252.5 1093 c 128,-1,27
 223 1123 223 1123 180 1123 c 0,16,17
540 360 m 256,28,29
 615 360 615 360 667.5 307.5 c 128,-1,30
 720 255 720 255 720 180 c 256,31,32
 720 105 720 105 667.5 52.5 c 128,-1,33
 615 0 615 0 540 0 c 256,34,35
 465 0 465 0 412.5 52.5 c 128,-1,36
 360 105 360 105 360 180 c 256,37,38
 360 255 360 255 412.5 307.5 c 128,-1,39
 465 360 465 360 540 360 c 256,28,29
540 283 m 0,40,41
 498 283 498 283 468 253 c 128,-1,42
 438 223 438 223 438 181 c 0,43,44
 438 138 438 138 468 108 c 128,-1,45
 498 78 498 78 540 78 c 256,46,47
 582 78 582 78 612 108 c 128,-1,48
 642 138 642 138 642 181 c 0,49,50
 642 223 642 223 612.5 253 c 128,-1,51
 583 283 583 283 540 283 c 0,40,41
EndSplineSet
EndChar

StartChar: quotesingle
Encoding: 39 39 3
Width: 327
Flags: W
LayerCount: 2
Fore
SplineSet
113 1320 m 1,0,-1
 114 1319 l 1,1,-1
 115 1319 l 1,2,-1
 50 1080 l 1,3,-1
 -31 1080 l 1,4,-1
 -32 1081 l 1,5,-1
 32 1320 l 1,6,-1
 113 1320 l 1,0,-1
EndSplineSet
EndChar

StartChar: asterisk
Encoding: 42 42 4
Width: 744
Flags: W
LayerCount: 2
Fore
SplineSet
58 882 m 1,0,-1
 282 659 l 1,1,-1
 506 882 l 1,2,-1
 564 824 l 1,3,-1
 341 600 l 1,4,-1
 564 376 l 1,5,-1
 506 318 l 1,6,-1
 282 541 l 1,7,-1
 58 318 l 1,8,-1
 0 376 l 1,9,-1
 223 600 l 1,10,-1
 0 824 l 1,11,-1
 58 882 l 1,0,-1
EndSplineSet
EndChar

StartChar: plus
Encoding: 43 43 5
Width: 900
Flags: W
LayerCount: 2
Fore
SplineSet
399 960 m 1,0,-1
 399 639 l 1,1,-1
 720 639 l 1,2,-1
 720 561 l 1,3,-1
 399 561 l 1,4,-1
 399 240 l 1,5,-1
 321 240 l 1,6,-1
 321 561 l 1,7,-1
 0 561 l 1,8,-1
 0 639 l 1,9,-1
 321 639 l 1,10,-1
 321 960 l 1,11,-1
 399 960 l 1,0,-1
EndSplineSet
EndChar

StartChar: comma
Encoding: 44 44 6
Width: 180
Flags: W
LayerCount: 2
Fore
SplineSet
0 156 m 256,0,1
 32 156 32 156 55 133 c 128,-1,2
 78 110 78 110 78 78 c 0,3,4
 78 -19 78 -19 9.5 -87.5 c 128,-1,5
 -59 -156 -59 -156 -156 -156 c 1,6,7
 -91 -156 -91 -156 -45.5 -110.5 c 128,-1,8
 0 -65 0 -65 0 0 c 1,9,10
 -32 0 -32 0 -55 23 c 128,-1,11
 -78 46 -78 46 -78 78 c 128,-1,12
 -78 110 -78 110 -55 133 c 128,-1,13
 -32 156 -32 156 0 156 c 256,0,1
EndSplineSet
EndChar

StartChar: hyphen
Encoding: 45 45 7
AltUni2: 0000ad.ffffffff.0
Width: 900
Flags: W
LayerCount: 2
Fore
SplineSet
0 639 m 1,0,-1
 720 639 l 1,1,-1
 720 561 l 1,2,-1
 0 561 l 1,3,-1
 0 639 l 1,0,-1
EndSplineSet
EndChar

StartChar: period
Encoding: 46 46 8
Width: 180
Flags: W
LayerCount: 2
Fore
SplineSet
0 156 m 256,0,1
 20 156 20 156 38.5 146 c 128,-1,2
 57 136 57 136 67.5 117 c 128,-1,3
 78 98 78 98 78 78 c 256,4,5
 78 58 78 58 67.5 39.5 c 128,-1,6
 57 21 57 21 38.5 10.5 c 128,-1,7
 20 0 20 0 0 0 c 256,8,9
 -20 0 -20 0 -38.5 10.5 c 128,-1,10
 -57 21 -57 21 -67.5 39.5 c 128,-1,11
 -78 58 -78 58 -78 78 c 256,12,13
 -78 98 -78 98 -67.5 117 c 128,-1,14
 -57 136 -57 136 -38.5 146 c 128,-1,15
 -20 156 -20 156 0 156 c 256,0,1
EndSplineSet
EndChar

StartChar: slash
Encoding: 47 47 9
Width: 783
Flags: W
LayerCount: 2
Fore
SplineSet
678 1200 m 1,0,-1
 -15 0 l 1,1,-1
 -105 0 l 1,2,-1
 588 1200 l 1,3,-1
 678 1200 l 1,0,-1
EndSplineSet
EndChar

StartChar: zero
Encoding: 48 48 10
Width: 900
Flags: W
LayerCount: 2
Fore
SplineSet
360 1200 m 256,0,1
 509 1200 509 1200 614.5 1094.5 c 128,-1,2
 720 989 720 989 720 840 c 2,3,-1
 720 360 l 2,4,5
 720 211 720 211 614.5 105.5 c 128,-1,6
 509 0 509 0 360 0 c 256,7,8
 211 0 211 0 105.5 105.5 c 128,-1,9
 0 211 0 211 0 360 c 2,10,-1
 0 840 l 2,11,12
 0 989 0 989 105.5 1094.5 c 128,-1,13
 211 1200 211 1200 360 1200 c 256,0,1
150 840 m 2,14,-1
 150 360 l 2,15,16
 150 273 150 273 211.5 211.5 c 128,-1,17
 273 150 273 150 360 150 c 256,18,19
 447 150 447 150 508.5 211.5 c 128,-1,20
 570 273 570 273 570 360 c 2,21,-1
 570 840 l 2,22,23
 570 927 570 927 508.5 988.5 c 128,-1,24
 447 1050 447 1050 360 1050 c 256,25,26
 273 1050 273 1050 211.5 988.5 c 128,-1,27
 150 927 150 927 150 840 c 2,14,-1
EndSplineSet
EndChar

StartChar: one
Encoding: 49 49 11
Width: 490
Flags: W
LayerCount: 2
Fore
SplineSet
310 1200 m 1,0,-1
 310 0 l 1,1,-1
 160 0 l 1,2,-1
 160 908 l 1,3,4
 88 856 88 856 0 844 c 1,5,-1
 0 996 l 1,6,7
 57 1010 57 1010 108.5 1061.5 c 128,-1,8
 160 1113 160 1113 160 1200 c 1,9,-1
 310 1200 l 1,0,-1
EndSplineSet
EndChar

StartChar: two
Encoding: 50 50 12
Width: 900
Flags: W
LayerCount: 2
Fore
SplineSet
360 1200 m 256,0,1
 509 1200 509 1200 614.5 1094.5 c 128,-1,2
 720 989 720 989 720 840 c 256,3,4
 720 691 720 691 615 585 c 1,5,-1
 599 570 l 1,6,-1
 581 556 l 1,7,-1
 323 355 l 2,8,9
 301 338 301 338 282 318 c 0,10,11
 210 246 210 246 176 150 c 1,12,-1
 720 150 l 1,13,-1
 720 0 l 1,14,-1
 0 0 l 1,15,16
 0 249 0 249 176 424 c 0,17,18
 202 450 202 450 231 473 c 2,19,-1
 489 674 l 2,20,21
 499 682 499 682 509 692 c 0,22,23
 570 753 570 753 570 840 c 128,-1,24
 570 927 570 927 508.5 988.5 c 128,-1,25
 447 1050 447 1050 360 1050 c 256,26,27
 273 1050 273 1050 211.5 988.5 c 128,-1,28
 150 927 150 927 150 834 c 1,29,-1
 0 834 l 1,30,31
 0 989 0 989 105.5 1094.5 c 128,-1,32
 211 1200 211 1200 360 1200 c 256,0,1
EndSplineSet
EndChar

StartChar: three
Encoding: 51 51 13
Width: 900
Flags: W
LayerCount: 2
Fore
SplineSet
645 1200 m 1,0,-1
 645 1050 l 1,1,-1
 437 862 l 1,2,3
 540 839 540 839 630 749 c 128,-1,4
 720 659 720 659 720 510 c 2,5,-1
 720 360 l 2,6,7
 720 211 720 211 614.5 105.5 c 128,-1,8
 509 0 509 0 360 0 c 256,9,10
 211 0 211 0 105.5 105.5 c 128,-1,11
 0 211 0 211 0 360 c 1,12,-1
 150 360 l 1,13,14
 150 273 150 273 211.5 211.5 c 128,-1,15
 273 150 273 150 360 150 c 256,16,17
 447 150 447 150 508.5 211.5 c 128,-1,18
 570 273 570 273 570 360 c 2,19,-1
 570 510 l 2,20,21
 570 597 570 597 508.5 658.5 c 128,-1,22
 447 720 447 720 360 720 c 256,23,24
 273 720 273 720 212 659 c 2,25,-1
 207 654 l 1,26,-1
 135 791 l 1,27,-1
 421 1050 l 1,28,-1
 0 1050 l 1,29,-1
 78 1200 l 1,30,-1
 645 1200 l 1,0,-1
EndSplineSet
EndChar

StartChar: four
Encoding: 52 52 14
Width: 900
Flags: W
LayerCount: 2
Fore
SplineSet
495 1200 m 1,0,-1
 645 1200 l 1,1,-1
 645 435 l 1,2,-1
 720 435 l 1,3,-1
 720 285 l 1,4,-1
 645 285 l 1,5,-1
 645 0 l 1,6,-1
 495 0 l 1,7,-1
 495 285 l 1,8,-1
 0 285 l 1,9,-1
 0 435 l 1,10,-1
 495 1200 l 1,0,-1
179 435 m 1,11,-1
 495 435 l 1,12,-1
 495 924 l 1,13,-1
 179 435 l 1,11,-1
EndSplineSet
EndChar

StartChar: five
Encoding: 53 53 15
Width: 900
Flags: W
LayerCount: 2
Fore
SplineSet
0 1200 m 1,0,-1
 645 1200 l 1,1,-1
 645 1050 l 1,2,-1
 150 1050 l 1,3,-1
 150 832 l 1,4,5
 244 900 244 900 360 900 c 0,6,7
 509 900 509 900 614.5 794.5 c 128,-1,8
 720 689 720 689 720 540 c 2,9,-1
 720 360 l 2,10,11
 720 211 720 211 614.5 105.5 c 128,-1,12
 509 0 509 0 360 0 c 256,13,14
 211 0 211 0 105.5 105.5 c 128,-1,15
 0 211 0 211 0 360 c 1,16,-1
 150 360 l 1,17,18
 150 273 150 273 211.5 211.5 c 128,-1,19
 273 150 273 150 360 150 c 256,20,21
 447 150 447 150 508.5 211.5 c 128,-1,22
 570 273 570 273 570 360 c 2,23,-1
 570 540 l 2,24,25
 570 627 570 627 508.5 688.5 c 128,-1,26
 447 750 447 750 360 750 c 0,27,28
 302 750 302 750 252 720 c 1,29,-1
 0 720 l 1,30,-1
 0 1200 l 1,0,-1
EndSplineSet
EndChar

StartChar: six
Encoding: 54 54 16
Width: 900
Flags: W
LayerCount: 2
Fore
SplineSet
360 1200 m 256,0,1
 509 1200 509 1200 597.5 1111.5 c 128,-1,2
 686 1023 686 1023 710 924 c 1,3,-1
 552 924 l 1,4,5
 537 960 537 960 492 1005 c 128,-1,6
 447 1050 447 1050 360 1050 c 256,7,8
 273 1050 273 1050 211.5 988.5 c 128,-1,9
 150 927 150 927 150 840 c 2,10,-1
 150 682 l 1,11,12
 244 750 244 750 360 750 c 0,13,14
 509 750 509 750 614.5 644.5 c 128,-1,15
 720 539 720 539 720 390 c 2,16,-1
 720 360 l 2,17,18
 720 211 720 211 614.5 105.5 c 128,-1,19
 509 0 509 0 360 0 c 256,20,21
 211 0 211 0 105.5 105.5 c 128,-1,22
 0 211 0 211 0 360 c 2,23,-1
 0 840 l 2,24,25
 0 989 0 989 105.5 1094.5 c 128,-1,26
 211 1200 211 1200 360 1200 c 256,0,1
150 390 m 2,27,-1
 150 360 l 2,28,29
 150 273 150 273 211.5 211.5 c 128,-1,30
 273 150 273 150 360 150 c 256,31,32
 447 150 447 150 508.5 211.5 c 128,-1,33
 570 273 570 273 570 360 c 2,34,-1
 570 390 l 2,35,36
 570 477 570 477 508.5 538.5 c 128,-1,37
 447 600 447 600 360 600 c 256,38,39
 273 600 273 600 211.5 538.5 c 128,-1,40
 150 477 150 477 150 390 c 2,27,-1
EndSplineSet
EndChar

StartChar: seven
Encoding: 55 55 17
Width: 900
Flags: W
LayerCount: 2
Fore
SplineSet
0 1200 m 1,0,-1
 720 1200 l 1,1,-1
 720 971 l 1,2,3
 643 915 643 915 434 706 c 128,-1,4
 225 497 225 497 225 0 c 1,5,-1
 75 0 l 1,6,7
 75 559 75 559 298 782 c 128,-1,8
 521 1005 521 1005 576 1050 c 1,9,-1
 0 1050 l 1,10,-1
 0 1200 l 1,0,-1
EndSplineSet
EndChar

StartChar: eight
Encoding: 56 56 18
Width: 900
Flags: W
LayerCount: 2
Fore
SplineSet
720 840 m 0,1,2
 720 703 720 703 628 600 c 1,3,4
 720 498 720 498 720 360 c 0,5,6
 720 211 720 211 614.5 105.5 c 128,-1,7
 509 0 509 0 357 0 c 0,8,9
 211 0 211 0 105.5 105.5 c 128,-1,10
 0 211 0 211 0 360 c 0,11,12
 0 498 0 498 92 600 c 1,13,14
 0 703 0 703 0 840 c 0,15,16
 0 989 0 989 105.5 1094.5 c 128,-1,17
 211 1200 211 1200 363 1200 c 0,18,19
 509 1200 509 1200 614.5 1094.5 c 128,-1,0
 720 989 720 989 720 840 c 0,1,2
211.5 211.5 m 128,-1,21
 273 150 273 150 360 150 c 128,-1,22
 447 150 447 150 508.5 211.5 c 128,-1,23
 570 273 570 273 570 360 c 128,-1,24
 570 447 570 447 508.5 508.5 c 128,-1,25
 447 570 447 570 360 570 c 128,-1,26
 273 570 273 570 211.5 508.5 c 128,-1,27
 150 447 150 447 150 360 c 128,-1,20
 150 273 150 273 211.5 211.5 c 128,-1,21
211.5 691.5 m 128,-1,29
 273 630 273 630 360 630 c 128,-1,30
 447 630 447 630 508.5 691.5 c 128,-1,31
 570 753 570 753 570 840 c 128,-1,32
 570 927 570 927 508.5 988.5 c 128,-1,33
 447 1050 447 1050 360 1050 c 128,-1,34
 273 1050 273 1050 211.5 988.5 c 128,-1,35
 150 927 150 927 150 840 c 128,-1,28
 150 753 150 753 211.5 691.5 c 128,-1,29
EndSplineSet
EndChar

StartChar: nine
Encoding: 57 57 19
Width: 900
Flags: W
LayerCount: 2
Fore
SplineSet
360 0 m 256,0,1
 211 0 211 0 122.5 88.5 c 128,-1,2
 34 177 34 177 10 276 c 1,3,-1
 168 276 l 1,4,5
 183 240 183 240 228 195 c 128,-1,6
 273 150 273 150 360 150 c 256,7,8
 447 150 447 150 508.5 211.5 c 128,-1,9
 570 273 570 273 570 360 c 2,10,-1
 570 518 l 1,11,12
 476 450 476 450 360 450 c 0,13,14
 211 450 211 450 105.5 555.5 c 128,-1,15
 0 661 0 661 0 810 c 2,16,-1
 0 840 l 2,17,18
 0 989 0 989 105.5 1094.5 c 128,-1,19
 211 1200 211 1200 360 1200 c 256,20,21
 509 1200 509 1200 614.5 1094.5 c 128,-1,22
 720 989 720 989 720 840 c 2,23,-1
 720 360 l 2,24,25
 720 211 720 211 614.5 105.5 c 128,-1,26
 509 0 509 0 360 0 c 256,0,1
570 810 m 2,27,-1
 570 840 l 2,28,29
 570 927 570 927 508.5 988.5 c 128,-1,30
 447 1050 447 1050 360 1050 c 256,31,32
 273 1050 273 1050 211.5 988.5 c 128,-1,33
 150 927 150 927 150 840 c 2,34,-1
 150 810 l 2,35,36
 150 723 150 723 211.5 661.5 c 128,-1,37
 273 600 273 600 360 600 c 256,38,39
 447 600 447 600 508.5 661.5 c 128,-1,40
 570 723 570 723 570 810 c 2,27,-1
EndSplineSet
EndChar

StartChar: colon
Encoding: 58 58 20
Width: 180
Flags: W
LayerCount: 2
Fore
SplineSet
0 1200 m 256,0,1
 20 1200 20 1200 38.5 1190 c 128,-1,2
 57 1180 57 1180 67.5 1161 c 128,-1,3
 78 1142 78 1142 78 1122 c 256,4,5
 78 1102 78 1102 67.5 1083.5 c 128,-1,6
 57 1065 57 1065 38.5 1054.5 c 128,-1,7
 20 1044 20 1044 0 1044 c 256,8,9
 -20 1044 -20 1044 -38.5 1054.5 c 128,-1,10
 -57 1065 -57 1065 -67.5 1083.5 c 128,-1,11
 -78 1102 -78 1102 -78 1122 c 256,12,13
 -78 1142 -78 1142 -67.5 1161 c 128,-1,14
 -57 1180 -57 1180 -38.5 1190 c 128,-1,15
 -20 1200 -20 1200 0 1200 c 256,0,1
0 156 m 256,16,17
 20 156 20 156 38.5 146 c 128,-1,18
 57 136 57 136 67.5 117 c 128,-1,19
 78 98 78 98 78 78 c 256,20,21
 78 58 78 58 67.5 39.5 c 128,-1,22
 57 21 57 21 38.5 10.5 c 128,-1,23
 20 0 20 0 0 0 c 256,24,25
 -20 0 -20 0 -38.5 10.5 c 128,-1,26
 -57 21 -57 21 -67.5 39.5 c 128,-1,27
 -78 58 -78 58 -78 78 c 256,28,29
 -78 98 -78 98 -67.5 117 c 128,-1,30
 -57 136 -57 136 -38.5 146 c 128,-1,31
 -20 156 -20 156 0 156 c 256,16,17
EndSplineSet
EndChar

StartChar: semicolon
Encoding: 59 59 21
AltUni2: 00037e.ffffffff.0
Width: 180
Flags: W
LayerCount: 2
Fore
SplineSet
0 156 m 256,0,1
 32 156 32 156 55 133 c 128,-1,2
 78 110 78 110 78 78 c 0,3,4
 78 -19 78 -19 9.5 -87.5 c 128,-1,5
 -59 -156 -59 -156 -156 -156 c 1,6,7
 -91 -156 -91 -156 -45.5 -110.5 c 128,-1,8
 0 -65 0 -65 0 0 c 1,9,10
 -32 0 -32 0 -55 23 c 128,-1,11
 -78 46 -78 46 -78 78 c 128,-1,12
 -78 110 -78 110 -55 133 c 128,-1,13
 -32 156 -32 156 0 156 c 256,0,1
0 1200 m 256,14,15
 20 1200 20 1200 38.5 1190 c 128,-1,16
 57 1180 57 1180 67.5 1161 c 128,-1,17
 78 1142 78 1142 78 1122 c 256,18,19
 78 1102 78 1102 67.5 1083.5 c 128,-1,20
 57 1065 57 1065 38.5 1054.5 c 128,-1,21
 20 1044 20 1044 0 1044 c 256,22,23
 -20 1044 -20 1044 -38.5 1054.5 c 128,-1,24
 -57 1065 -57 1065 -67.5 1083.5 c 128,-1,25
 -78 1102 -78 1102 -78 1122 c 256,26,27
 -78 1142 -78 1142 -67.5 1161 c 128,-1,28
 -57 1180 -57 1180 -38.5 1190 c 128,-1,29
 -20 1200 -20 1200 0 1200 c 256,14,15
EndSplineSet
EndChar

StartChar: less
Encoding: 60 60 22
Width: 900
Flags: W
LayerCount: 2
Fore
SplineSet
0 600 m 1,0,-1
 720 960 l 1,1,-1
 720 873 l 1,2,-1
 174 600 l 1,3,-1
 720 327 l 1,4,-1
 720 240 l 1,5,-1
 0 600 l 1,0,-1
EndSplineSet
EndChar

StartChar: equal
Encoding: 61 61 23
Width: 900
Flags: W
LayerCount: 2
Fore
SplineSet
0 522 m 1,0,-1
 720 522 l 1,1,-1
 720 444 l 1,2,-1
 0 444 l 1,3,-1
 0 522 l 1,0,-1
0 756 m 1,4,-1
 720 756 l 1,5,-1
 720 678 l 1,6,-1
 0 678 l 1,7,-1
 0 756 l 1,4,-1
EndSplineSet
EndChar

StartChar: greater
Encoding: 62 62 24
Width: 900
Flags: W
LayerCount: 2
Fore
SplineSet
720 600 m 1,0,-1
 0 240 l 1,1,-1
 0 327 l 1,2,-1
 546 600 l 1,3,-1
 0 873 l 1,4,-1
 0 960 l 1,5,-1
 720 600 l 1,0,-1
EndSplineSet
EndChar

StartChar: A
Encoding: 65 65 25
Width: 900
Flags: W
LayerCount: 2
Fore
SplineSet
285 1200 m 1,0,-1
 435 1200 l 1,1,-1
 720 0 l 1,2,-1
 566 0 l 1,3,-1
 506 250 l 1,4,-1
 214 250 l 1,5,-1
 154 0 l 1,6,-1
 0 0 l 1,7,-1
 285 1200 l 1,0,-1
249 400 m 1,8,-1
 471 400 l 1,9,-1
 360 867 l 1,10,-1
 249 400 l 1,8,-1
EndSplineSet
EndChar

StartChar: B
Encoding: 66 66 26
Width: 900
Flags: W
LayerCount: 2
Fore
SplineSet
0 1200 m 1,0,-1
 420 1200 l 2,1,2
 544 1200 544 1200 632 1112 c 128,-1,3
 720 1024 720 1024 720 900 c 256,4,5
 720 776 720 776 602 657 c 1,6,7
 720 539 720 539 720 390 c 2,8,-1
 720 360 l 2,9,10
 720 211 720 211 614.5 105.5 c 128,-1,11
 509 0 509 0 360 0 c 2,12,-1
 0 0 l 1,13,-1
 0 1200 l 1,0,-1
150 1050 m 1,14,-1
 150 750 l 1,15,-1
 420 750 l 2,16,17
 482 750 482 750 526 794 c 128,-1,18
 570 838 570 838 570 900 c 128,-1,19
 570 962 570 962 526 1006 c 128,-1,20
 482 1050 482 1050 420 1050 c 2,21,-1
 150 1050 l 1,14,-1
150 600 m 1,22,-1
 150 150 l 1,23,-1
 360 150 l 2,24,25
 447 150 447 150 508.5 211.5 c 128,-1,26
 570 273 570 273 570 360 c 2,27,-1
 570 390 l 2,28,29
 570 477 570 477 508.5 538.5 c 128,-1,30
 447 600 447 600 360 600 c 2,31,-1
 150 600 l 1,22,-1
EndSplineSet
EndChar

StartChar: C
Encoding: 67 67 27
Width: 900
Flags: W
LayerCount: 2
Fore
SplineSet
720 360 m 1,0,1
 720 211 720 211 614.5 105.5 c 128,-1,2
 509 0 509 0 360 0 c 256,3,4
 211 0 211 0 105.5 105.5 c 128,-1,5
 0 211 0 211 0 360 c 2,6,-1
 0 840 l 2,7,8
 0 989 0 989 105.5 1094.5 c 128,-1,9
 211 1200 211 1200 360 1200 c 256,10,11
 509 1200 509 1200 614.5 1094.5 c 128,-1,12
 720 989 720 989 720 840 c 1,13,-1
 570 840 l 1,14,15
 570 927 570 927 508.5 988.5 c 128,-1,16
 447 1050 447 1050 360 1050 c 256,17,18
 273 1050 273 1050 211.5 988.5 c 128,-1,19
 150 927 150 927 150 840 c 2,20,-1
 150 360 l 2,21,22
 150 273 150 273 211.5 211.5 c 128,-1,23
 273 150 273 150 360 150 c 256,24,25
 447 150 447 150 508.5 211.5 c 128,-1,26
 570 273 570 273 570 360 c 1,27,-1
 720 360 l 1,0,1
EndSplineSet
EndChar

StartChar: D
Encoding: 68 68 28
Width: 900
Flags: W
LayerCount: 2
Fore
SplineSet
360 0 m 2,0,-1
 0 0 l 1,1,-1
 0 1200 l 1,2,-1
 360 1200 l 2,3,4
 509 1200 509 1200 614.5 1094.5 c 128,-1,5
 720 989 720 989 720 840 c 2,6,-1
 720 360 l 2,7,8
 720 211 720 211 614.5 105.5 c 128,-1,9
 509 0 509 0 360 0 c 2,0,-1
360 1050 m 2,10,-1
 150 1050 l 1,11,-1
 150 150 l 1,12,-1
 360 150 l 2,13,14
 447 150 447 150 508.5 211.5 c 128,-1,15
 570 273 570 273 570 360 c 2,16,-1
 570 840 l 2,17,18
 570 927 570 927 508.5 988.5 c 128,-1,19
 447 1050 447 1050 360 1050 c 2,10,-1
EndSplineSet
EndChar

StartChar: E
Encoding: 69 69 29
Width: 900
Flags: W
LayerCount: 2
Fore
SplineSet
645 1200 m 1,0,-1
 645 1050 l 1,1,-1
 150 1050 l 1,2,-1
 150 750 l 1,3,-1
 570 750 l 1,4,-1
 570 600 l 1,5,-1
 150 600 l 1,6,-1
 150 150 l 1,7,-1
 720 150 l 1,8,-1
 720 0 l 1,9,-1
 0 0 l 1,10,-1
 0 1200 l 1,11,-1
 645 1200 l 1,0,-1
EndSplineSet
EndChar

StartChar: F
Encoding: 70 70 30
Width: 900
Flags: W
LayerCount: 2
Fore
SplineSet
150 600 m 1,0,-1
 150 0 l 1,1,-1
 0 0 l 1,2,-1
 0 1200 l 1,3,-1
 720 1200 l 1,4,-1
 720 1050 l 1,5,-1
 150 1050 l 1,6,-1
 150 750 l 1,7,-1
 480 750 l 1,8,-1
 480 600 l 1,9,-1
 150 600 l 1,0,-1
EndSplineSet
EndChar

StartChar: G
Encoding: 71 71 31
Width: 900
Flags: W
LayerCount: 2
Fore
SplineSet
720 360 m 2,0,1
 720 211 720 211 614.5 105.5 c 128,-1,2
 509 0 509 0 360 0 c 256,3,4
 211 0 211 0 105.5 105.5 c 128,-1,5
 0 211 0 211 0 360 c 2,6,-1
 0 840 l 2,7,8
 0 989 0 989 105.5 1094.5 c 128,-1,9
 211 1200 211 1200 360 1200 c 256,10,11
 509 1200 509 1200 614.5 1094.5 c 128,-1,12
 720 989 720 989 720 840 c 1,13,-1
 570 840 l 1,14,15
 570 927 570 927 508.5 988.5 c 128,-1,16
 447 1050 447 1050 360 1050 c 256,17,18
 273 1050 273 1050 211.5 988.5 c 128,-1,19
 150 927 150 927 150 840 c 2,20,-1
 150 360 l 2,21,22
 150 273 150 273 211.5 211.5 c 128,-1,23
 273 150 273 150 360 150 c 256,24,25
 447 150 447 150 508.5 211.5 c 128,-1,26
 570 273 570 273 570 360 c 2,27,-1
 570 450 l 1,28,-1
 444 450 l 1,29,-1
 444 600 l 1,30,-1
 720 600 l 1,31,-1
 720 360 l 2,0,1
EndSplineSet
EndChar

StartChar: H
Encoding: 72 72 32
Width: 900
Flags: W
LayerCount: 2
Fore
SplineSet
150 1200 m 1,0,-1
 150 750 l 1,1,-1
 570 750 l 1,2,-1
 570 1200 l 1,3,-1
 720 1200 l 1,4,-1
 720 0 l 1,5,-1
 570 0 l 1,6,-1
 570 600 l 1,7,-1
 150 600 l 1,8,-1
 150 0 l 1,9,-1
 0 0 l 1,10,-1
 0 1200 l 1,11,-1
 150 1200 l 1,0,-1
EndSplineSet
EndChar

StartChar: I
Encoding: 73 73 33
Width: 330
Flags: W
LayerCount: 2
Fore
SplineSet
0 1200 m 1,0,-1
 150 1200 l 1,1,-1
 150 0 l 1,2,-1
 0 0 l 1,3,-1
 0 1200 l 1,0,-1
EndSplineSet
EndChar

StartChar: J
Encoding: 74 74 34
Width: 540
Flags: W
LayerCount: 2
Fore
SplineSet
360 1200 m 1,0,-1
 360 216 l 2,1,2
 360 127 360 127 296.5 63.5 c 128,-1,3
 233 0 233 0 144 0 c 2,4,-1
 0 0 l 1,5,-1
 0 150 l 1,6,-1
 144 150 l 2,7,8
 171 150 171 150 190.5 168.5 c 128,-1,9
 210 187 210 187 210 216 c 2,10,-1
 210 1050 l 1,11,-1
 0 1050 l 1,12,-1
 0 1200 l 1,13,-1
 360 1200 l 1,0,-1
EndSplineSet
EndChar

StartChar: K
Encoding: 75 75 35
Width: 900
Flags: W
LayerCount: 2
Fore
SplineSet
150 1200 m 1,0,-1
 150 658 l 1,1,-1
 536 1200 l 1,2,-1
 720 1200 l 1,3,-1
 435 800 l 1,4,-1
 720 0 l 1,5,-1
 561 0 l 1,6,-1
 329 651 l 1,7,-1
 150 400 l 1,8,-1
 150 0 l 1,9,-1
 0 0 l 1,10,-1
 0 1200 l 1,11,-1
 150 1200 l 1,0,-1
EndSplineSet
EndChar

StartChar: L
Encoding: 76 76 36
Width: 900
Flags: W
LayerCount: 2
Fore
SplineSet
0 0 m 1,0,-1
 0 1200 l 1,1,-1
 150 1200 l 1,2,-1
 150 150 l 1,3,-1
 720 150 l 1,4,-1
 720 0 l 1,5,-1
 0 0 l 1,0,-1
EndSplineSet
EndChar

StartChar: M
Encoding: 77 77 37
Width: 1260
Flags: W
LayerCount: 2
Fore
SplineSet
150 1200 m 1,0,-1
 540 600 l 1,1,-1
 930 1200 l 1,2,-1
 1080 1200 l 1,3,-1
 1080 0 l 1,4,-1
 930 0 l 1,5,-1
 930 925 l 1,6,-1
 540 325 l 1,7,-1
 150 925 l 1,8,-1
 150 0 l 1,9,-1
 0 0 l 1,10,-1
 0 1200 l 1,11,-1
 150 1200 l 1,0,-1
EndSplineSet
EndChar

StartChar: N
Encoding: 78 78 38
Width: 900
Flags: W
LayerCount: 2
Fore
SplineSet
720 1200 m 1,0,-1
 720 1 l 1,1,-1
 555 0 l 1,2,-1
 150 876 l 1,3,-1
 150 0 l 1,4,-1
 0 0 l 1,5,-1
 0 1200 l 1,6,-1
 155 1200 l 1,7,-1
 570 324 l 1,8,-1
 570 1200 l 1,9,-1
 720 1200 l 1,0,-1
EndSplineSet
EndChar

StartChar: O
Encoding: 79 79 39
Width: 900
Flags: W
LayerCount: 2
Fore
SplineSet
360 1200 m 256,0,1
 509 1200 509 1200 614.5 1094.5 c 128,-1,2
 720 989 720 989 720 840 c 2,3,-1
 720 360 l 2,4,5
 720 211 720 211 614.5 105.5 c 128,-1,6
 509 0 509 0 360 0 c 256,7,8
 211 0 211 0 105.5 105.5 c 128,-1,9
 0 211 0 211 0 360 c 2,10,-1
 0 840 l 2,11,12
 0 989 0 989 105.5 1094.5 c 128,-1,13
 211 1200 211 1200 360 1200 c 256,0,1
150 840 m 2,14,-1
 150 360 l 2,15,16
 150 273 150 273 211.5 211.5 c 128,-1,17
 273 150 273 150 360 150 c 256,18,19
 447 150 447 150 508.5 211.5 c 128,-1,20
 570 273 570 273 570 360 c 2,21,-1
 570 840 l 2,22,23
 570 927 570 927 508.5 988.5 c 128,-1,24
 447 1050 447 1050 360 1050 c 256,25,26
 273 1050 273 1050 211.5 988.5 c 128,-1,27
 150 927 150 927 150 840 c 2,14,-1
EndSplineSet
EndChar

StartChar: P
Encoding: 80 80 40
Width: 900
Flags: W
LayerCount: 2
Fore
SplineSet
360 1200 m 2,0,1
 509 1200 509 1200 614.5 1094.5 c 128,-1,2
 720 989 720 989 720 840 c 2,3,-1
 720 810 l 2,4,5
 720 661 720 661 614.5 555.5 c 128,-1,6
 509 450 509 450 360 450 c 2,7,-1
 150 450 l 1,8,-1
 150 0 l 1,9,-1
 0 0 l 1,10,-1
 0 1200 l 1,11,-1
 360 1200 l 2,0,1
150 1050 m 1,12,-1
 150 600 l 1,13,-1
 360 600 l 2,14,15
 447 600 447 600 508.5 661.5 c 128,-1,16
 570 723 570 723 570 810 c 2,17,-1
 570 840 l 2,18,19
 570 927 570 927 508.5 988.5 c 128,-1,20
 447 1050 447 1050 360 1050 c 2,21,-1
 150 1050 l 1,12,-1
EndSplineSet
EndChar

StartChar: Q
Encoding: 81 81 41
Width: 1005
Flags: W
LayerCount: 2
Fore
SplineSet
570 490 m 1,0,-1
 570 840 l 2,1,2
 570 927 570 927 508.5 988.5 c 128,-1,3
 447 1050 447 1050 360 1050 c 256,4,5
 273 1050 273 1050 211.5 988.5 c 128,-1,6
 150 927 150 927 150 840 c 2,7,-1
 150 360 l 2,8,9
 150 273 150 273 211.5 211.5 c 128,-1,10
 273 150 273 150 360 150 c 256,11,12
 447 150 447 150 509 212 c 0,13,14
 555 258 555 258 566 319 c 1,15,-1
 465 377 l 1,16,-1
 540 507 l 1,17,-1
 570 490 l 1,0,-1
701 241 m 1,18,19
 675 166 675 166 615 106 c 0,20,21
 509 0 509 0 360 0 c 256,22,23
 211 0 211 0 105.5 105.5 c 128,-1,24
 0 211 0 211 0 360 c 2,25,-1
 0 840 l 2,26,27
 0 989 0 989 105.5 1094.5 c 128,-1,28
 211 1200 211 1200 360 1200 c 256,29,30
 509 1200 509 1200 614.5 1094.5 c 128,-1,31
 720 989 720 989 720 840 c 2,32,-1
 720 403 l 1,33,-1
 825 343 l 1,34,-1
 750 213 l 1,35,-1
 701 241 l 1,18,19
EndSplineSet
EndChar

StartChar: R
Encoding: 82 82 42
Width: 900
Flags: W
LayerCount: 2
Fore
SplineSet
150 1050 m 1,0,-1
 150 600 l 1,1,-1
 360 600 l 2,2,3
 447 600 447 600 508.5 661.5 c 128,-1,4
 570 723 570 723 570 810 c 2,5,-1
 570 840 l 2,6,7
 570 927 570 927 508.5 988.5 c 128,-1,8
 447 1050 447 1050 360 1050 c 2,9,-1
 150 1050 l 1,0,-1
720 0 m 1,10,-1
 556 0 l 1,11,-1
 356 450 l 1,12,-1
 150 450 l 1,13,-1
 150 0 l 1,14,-1
 0 0 l 1,15,-1
 0 1200 l 1,16,-1
 360 1200 l 2,17,18
 509 1200 509 1200 614.5 1094.5 c 128,-1,19
 720 989 720 989 720 840 c 2,20,-1
 720 810 l 2,21,22
 720 661 720 661 615 556 c 0,23,24
 565 506 565 506 506 480 c 1,25,-1
 720 0 l 1,10,-1
EndSplineSet
EndChar

StartChar: S
Encoding: 83 83 43
Width: 900
Flags: W
LayerCount: 2
Fore
SplineSet
360 1200 m 256,0,1
 509 1200 509 1200 614.5 1095 c 128,-1,2
 720 990 720 990 720 840 c 1,3,-1
 570 840 l 1,4,5
 570 927 570 927 508.5 988.5 c 128,-1,6
 447 1050 447 1050 360 1050 c 256,7,8
 273 1050 273 1050 211.5 988.5 c 128,-1,9
 150 927 150 927 150 840 c 0,10,11
 150 778 150 778 188.5 739.5 c 128,-1,12
 227 701 227 701 273 693 c 2,13,-1
 475 655 l 2,14,15
 566 638 566 638 643 561 c 128,-1,16
 720 484 720 484 720 360 c 0,17,18
 720 211 720 211 614.5 105.5 c 128,-1,19
 509 0 509 0 360 0 c 256,20,21
 211 0 211 0 105.5 105.5 c 128,-1,22
 0 211 0 211 0 360 c 1,23,-1
 150 360 l 1,24,25
 150 273 150 273 211.5 211.5 c 128,-1,26
 273 150 273 150 361 156 c 1,27,28
 447 150 447 150 508.5 211.5 c 128,-1,29
 570 273 570 273 570 360 c 0,30,31
 570 422 570 422 531.5 460.5 c 128,-1,32
 493 499 493 499 447 507 c 2,33,-1
 245 545 l 2,34,35
 154 562 154 562 77 639 c 128,-1,36
 0 716 0 716 0 840 c 0,37,38
 0 989 0 989 105.5 1094.5 c 128,-1,39
 211 1200 211 1200 360 1200 c 256,0,1
EndSplineSet
EndChar

StartChar: T
Encoding: 84 84 44
Width: 900
Flags: W
LayerCount: 2
Fore
SplineSet
720 1200 m 1,0,-1
 720 1050 l 1,1,-1
 435 1050 l 1,2,-1
 435 0 l 1,3,-1
 285 0 l 1,4,-1
 285 1050 l 1,5,-1
 0 1050 l 1,6,-1
 0 1200 l 1,7,-1
 720 1200 l 1,0,-1
EndSplineSet
EndChar

StartChar: U
Encoding: 85 85 45
Width: 900
Flags: W
LayerCount: 2
Fore
SplineSet
150 1200 m 1,0,-1
 150 360 l 2,1,2
 150 273 150 273 211.5 211.5 c 128,-1,3
 273 150 273 150 360 150 c 256,4,5
 447 150 447 150 508.5 211.5 c 128,-1,6
 570 273 570 273 570 360 c 2,7,-1
 570 1200 l 1,8,-1
 720 1200 l 1,9,-1
 720 360 l 2,10,11
 720 211 720 211 614.5 105.5 c 128,-1,12
 509 0 509 0 360 0 c 256,13,14
 211 0 211 0 105.5 105.5 c 128,-1,15
 0 211 0 211 0 360 c 2,16,-1
 0 1200 l 1,17,-1
 150 1200 l 1,0,-1
EndSplineSet
EndChar

StartChar: V
Encoding: 86 86 46
Width: 900
Flags: W
LayerCount: 2
Fore
SplineSet
154 1200 m 1,0,-1
 360 333 l 1,1,-1
 566 1200 l 1,2,-1
 720 1200 l 1,3,-1
 435 0 l 1,4,-1
 285 0 l 1,5,-1
 0 1200 l 1,6,-1
 154 1200 l 1,0,-1
EndSplineSet
EndChar

StartChar: W
Encoding: 87 87 47
Width: 1260
Flags: W
LayerCount: 2
Fore
SplineSet
152 1200 m 1,0,-1
 300 213 l 1,1,-1
 425 1050 l 1,2,-1
 655 1050 l 1,3,-1
 780 213 l 1,4,-1
 928 1200 l 1,5,-1
 1080 1200 l 1,6,-1
 900 0 l 1,7,-1
 661 0 l 1,8,-1
 540 774 l 1,9,-1
 419 0 l 1,10,-1
 180 0 l 1,11,-1
 0 1200 l 1,12,-1
 152 1200 l 1,0,-1
EndSplineSet
EndChar

StartChar: X
Encoding: 88 88 48
Width: 900
Flags: W
LayerCount: 2
Fore
SplineSet
155 1200 m 1,0,-1
 360 779 l 1,1,-1
 555 1200 l 1,2,-1
 720 1200 l 1,3,-1
 443 600 l 1,4,-1
 720 0 l 1,5,-1
 555 0 l 1,6,-1
 360 421 l 1,7,-1
 155 0 l 1,8,-1
 0 0 l 1,9,-1
 277 600 l 1,10,-1
 3 1200 l 1,11,-1
 155 1200 l 1,0,-1
EndSplineSet
EndChar

StartChar: Y
Encoding: 89 89 49
Width: 900
Flags: W
LayerCount: 2
Fore
SplineSet
159 1200 m 1,0,-1
 360 634 l 1,1,-1
 561 1200 l 1,2,-1
 720 1200 l 1,3,-1
 435 400 l 1,4,-1
 435 0 l 1,5,-1
 285 0 l 1,6,-1
 285 400 l 1,7,-1
 0 1200 l 1,8,-1
 159 1200 l 1,0,-1
EndSplineSet
EndChar

StartChar: Z
Encoding: 90 90 50
Width: 900
Flags: W
LayerCount: 2
Fore
SplineSet
720 1200 m 1,0,-1
 720 992 l 1,1,-1
 150 150 l 1,2,-1
 720 150 l 1,3,-1
 720 0 l 1,4,-1
 0 0 l 1,5,-1
 0 208 l 1,6,-1
 578 1050 l 1,7,-1
 0 1050 l 1,8,-1
 0 1200 l 1,9,-1
 720 1200 l 1,0,-1
EndSplineSet
EndChar

StartChar: a
Encoding: 97 97 51
Width: 677
Flags: W
LayerCount: 2
Fore
SplineSet
247 800 m 0,0,1
 349 800 349 800 421 728 c 128,-1,2
 493 656 493 656 493 553 c 2,3,-1
 493 202 l 2,4,5
 493 161 493 161 506 148 c 128,-1,6
 519 135 519 135 521 134 c 2,7,-1
 521 0 l 1,8,9
 470 15 470 15 447.5 37.5 c 128,-1,10
 425 60 425 60 418 69 c 1,11,12
 346 0 346 0 245 0 c 256,13,14
 144 0 144 0 72 72 c 128,-1,15
 0 144 0 144 0 247 c 0,16,17
 0 349 0 349 72 421 c 128,-1,18
 144 493 144 493 247 493 c 2,19,-1
 373 493 l 1,20,-1
 373 553 l 2,21,22
 373 606 373 606 336 643 c 128,-1,23
 299 680 299 680 246.5 680 c 128,-1,24
 194 680 194 680 157 643 c 128,-1,25
 120 606 120 606 120 553 c 1,26,-1
 0 553 l 1,27,28
 0 656 0 656 72 728 c 128,-1,29
 144 800 144 800 247 800 c 0,0,1
157 336 m 128,-1,31
 120 299 120 299 120 246.5 c 128,-1,32
 120 194 120 194 157 157 c 128,-1,33
 194 120 194 120 246.5 120 c 128,-1,34
 299 120 299 120 336 157 c 128,-1,35
 373 194 373 194 373 247 c 2,36,-1
 373 373 l 1,37,-1
 239 373 l 2,38,30
 194 373 194 373 157 336 c 128,-1,31
EndSplineSet
EndChar

StartChar: b
Encoding: 98 98 52
Width: 649
Flags: W
LayerCount: 2
Fore
SplineSet
120 0 m 1,0,-1
 0 0 l 1,1,-1
 0 1200 l 1,2,-1
 120 1200 l 1,3,-1
 120 766 l 1,4,5
 176 800 176 800 246 800 c 0,6,7
 349 800 349 800 421 728 c 128,-1,8
 493 656 493 656 493 553 c 2,9,-1
 493 247 l 2,10,11
 493 144 493 144 421 72 c 128,-1,12
 349 0 349 0 246 0 c 0,13,14
 176 0 176 0 120 34 c 1,15,-1
 120 0 l 1,0,-1
157 157 m 256,17,18
 194 120 194 120 246.5 120 c 128,-1,19
 299 120 299 120 336 157 c 128,-1,20
 373 194 373 194 373 247 c 2,21,-1
 373 553 l 2,22,23
 373 606 373 606 336 643 c 128,-1,24
 299 680 299 680 246.5 680 c 128,-1,25
 194 680 194 680 157 643 c 256,26,27
 120 606 120 606 120 553 c 2,28,-1
 120 247 l 2,29,16
 120 194 120 194 157 157 c 256,17,18
EndSplineSet
EndChar

StartChar: c
Encoding: 99 99 53
Width: 649
Flags: W
LayerCount: 2
Fore
SplineSet
120 247 m 2,0,1
 120 194 120 194 157 157 c 128,-1,2
 194 120 194 120 246.5 120 c 128,-1,3
 299 120 299 120 336 157 c 128,-1,4
 373 194 373 194 373 247 c 1,5,-1
 493 247 l 1,6,7
 493 144 493 144 421 72 c 128,-1,8
 349 0 349 0 246 0 c 0,9,10
 144 0 144 0 72 72 c 128,-1,11
 0 144 0 144 0 247 c 2,12,-1
 0 553 l 2,13,14
 0 656 0 656 72 728 c 128,-1,15
 144 800 144 800 246 800 c 0,16,17
 349 800 349 800 421 728 c 128,-1,18
 493 656 493 656 493 553 c 1,19,-1
 373 553 l 1,20,21
 373 606 373 606 336 643 c 128,-1,22
 299 680 299 680 246.5 680 c 128,-1,23
 194 680 194 680 157 643 c 128,-1,24
 120 606 120 606 120 553 c 2,25,-1
 120 247 l 2,0,1
EndSplineSet
EndChar

StartChar: d
Encoding: 100 100 54
Width: 649
Flags: W
LayerCount: 2
Fore
SplineSet
373 34 m 1,0,1
 317 0 317 0 247 0 c 0,2,3
 144 0 144 0 72 72 c 128,-1,4
 0 144 0 144 0 247 c 2,5,-1
 0 553 l 2,6,7
 0 656 0 656 72 728 c 128,-1,8
 144 800 144 800 247 800 c 0,9,10
 317 800 317 800 373 766 c 1,11,-1
 373 1200 l 1,12,-1
 493 1200 l 1,13,-1
 493 0 l 1,14,-1
 373 0 l 1,15,-1
 373 34 l 1,0,1
373 247 m 2,16,-1
 373 553 l 2,17,18
 373 606 373 606 336 643 c 256,19,20
 299 680 299 680 246.5 680 c 128,-1,21
 194 680 194 680 157 643 c 128,-1,22
 120 606 120 606 120 553 c 2,23,-1
 120 247 l 2,24,25
 120 194 120 194 157 157 c 128,-1,26
 194 120 194 120 246.5 120 c 128,-1,27
 299 120 299 120 336 157 c 256,28,29
 373 194 373 194 373 247 c 2,16,-1
EndSplineSet
EndChar

StartChar: e
Encoding: 101 101 55
Width: 649
Flags: W
LayerCount: 2
Fore
SplineSet
120 247 m 2,0,1
 120 194 120 194 157 157 c 128,-1,2
 194 120 194 120 246.5 120 c 128,-1,3
 299 120 299 120 336 157 c 128,-1,4
 373 194 373 194 373 247 c 1,5,-1
 493 247 l 1,6,7
 493 144 493 144 421 72 c 128,-1,8
 349 0 349 0 246 0 c 0,9,10
 144 0 144 0 72 72 c 128,-1,11
 0 144 0 144 0 247 c 2,12,-1
 0 553 l 2,13,14
 0 656 0 656 72 728 c 128,-1,15
 144 800 144 800 246 800 c 0,16,17
 349 800 349 800 421 728 c 128,-1,18
 493 656 493 656 493 553 c 2,19,-1
 493 340 l 1,20,-1
 120 340 l 1,21,-1
 120 247 l 2,0,1
373 553 m 2,22,23
 373 606 373 606 336 643 c 128,-1,24
 299 680 299 680 246.5 680 c 128,-1,25
 194 680 194 680 157 643 c 128,-1,26
 120 606 120 606 120 553 c 2,27,-1
 120 460 l 1,28,-1
 373 460 l 1,29,-1
 373 553 l 2,22,23
EndSplineSet
EndChar

StartChar: f
Encoding: 102 102 56
Width: 464
Flags: W
LayerCount: 2
Fore
SplineSet
307 680 m 1,0,-1
 307 800 l 1,1,-1
 214 800 l 1,2,-1
 214 996 l 2,3,4
 214 1031 214 1031 239 1055.5 c 128,-1,5
 264 1080 264 1080 298 1080 c 2,6,-1
 308 1080 l 1,7,-1
 308 1200 l 1,8,-1
 298 1200 l 2,9,10
 213 1200 213 1200 153.5 1140.5 c 128,-1,11
 94 1081 94 1081 94 996 c 2,12,-1
 94 800 l 1,13,-1
 0 800 l 1,14,-1
 0 680 l 1,15,-1
 94 680 l 1,16,-1
 94 0 l 1,17,-1
 214 0 l 1,18,-1
 214 680 l 1,19,-1
 307 680 l 1,0,-1
EndSplineSet
EndChar

StartChar: g
Encoding: 103 103 57
Width: 649
Flags: W
LayerCount: 2
Fore
SplineSet
336 643 m 256,0,1
 299 680 299 680 246.5 680 c 128,-1,2
 194 680 194 680 157 643 c 128,-1,3
 120 606 120 606 120 553 c 2,4,-1
 120 247 l 2,5,6
 120 194 120 194 157 157 c 128,-1,7
 194 120 194 120 246.5 120 c 128,-1,8
 299 120 299 120 336 157 c 256,9,10
 373 194 373 194 373 247 c 2,11,-1
 373 553 l 2,12,13
 373 606 373 606 336 643 c 256,0,1
373 -196 m 2,14,-1
 373 34 l 1,15,16
 317 0 317 0 247 0 c 0,17,18
 144 0 144 0 72 72 c 128,-1,19
 0 144 0 144 0 247 c 2,20,-1
 0 553 l 2,21,22
 0 656 0 656 72 728 c 128,-1,23
 144 800 144 800 247 800 c 0,24,25
 317 800 317 800 373 766 c 1,26,-1
 373 800 l 1,27,-1
 493 800 l 1,28,-1
 493 -197 l 2,29,30
 493 -281 493 -281 433.5 -340.5 c 128,-1,31
 374 -400 374 -400 289 -400 c 2,32,-1
 247 -400 l 1,33,-1
 247 -280 l 1,34,-1
 289 -280 l 2,35,36
 323 -280 323 -280 348 -255.5 c 128,-1,37
 373 -231 373 -231 373 -196 c 2,14,-1
EndSplineSet
EndChar

StartChar: h
Encoding: 104 104 58
Width: 649
Flags: W
LayerCount: 2
Fore
SplineSet
493 553 m 2,0,-1
 493 0 l 1,1,-1
 373 0 l 1,2,-1
 373 553 l 2,3,4
 372 607 372 607 335 643.5 c 128,-1,5
 298 680 298 680 245 680 c 0,6,7
 193 680 193 680 156 644 c 0,8,9
 125 613 125 613 120 571 c 1,10,-1
 120 0 l 1,11,-1
 0 0 l 1,12,-1
 0 1200 l 1,13,-1
 120 1200 l 1,14,-1
 120 766 l 1,15,16
 175 800 175 800 245 800 c 0,17,18
 349 800 349 800 421 728 c 128,-1,19
 493 656 493 656 493 553 c 2,0,-1
EndSplineSet
EndChar

StartChar: i
Encoding: 105 105 59
Width: 276
Flags: W
LayerCount: 2
Fore
SplineSet
120 553 m 1,0,-1
 120 0 l 1,1,-1
 0 0 l 1,2,-1
 0 553 l 1,3,-1
 120 553 l 1,0,-1
60 860 m 256,4,5
 75 860 75 860 89.5 852.5 c 128,-1,6
 104 845 104 845 112 830.5 c 128,-1,7
 120 816 120 816 120 800 c 256,8,9
 120 784 120 784 112 770 c 128,-1,10
 104 756 104 756 90 748 c 128,-1,11
 76 740 76 740 60 740 c 256,12,13
 44 740 44 740 30 748 c 128,-1,14
 16 756 16 756 8 770 c 128,-1,15
 0 784 0 784 0 800 c 256,16,17
 0 816 0 816 8 830.5 c 128,-1,18
 16 845 16 845 30.5 852.5 c 128,-1,19
 45 860 45 860 60 860 c 256,4,5
EndSplineSet
EndChar

StartChar: j
Encoding: 106 106 60
Width: 370
Flags: W
LayerCount: 2
Fore
SplineSet
149 1107 m 256,0,1
 164 1107 164 1107 178.5 1099.5 c 128,-1,2
 193 1092 193 1092 201 1077.5 c 128,-1,3
 209 1063 209 1063 209 1047 c 256,4,5
 209 1031 209 1031 201 1017 c 128,-1,6
 193 1003 193 1003 179 995 c 128,-1,7
 165 987 165 987 149 987 c 256,8,9
 133 987 133 987 119 995 c 128,-1,10
 105 1003 105 1003 97 1017 c 128,-1,11
 89 1031 89 1031 89 1047 c 256,12,13
 89 1063 89 1063 97 1077.5 c 128,-1,14
 105 1092 105 1092 119.5 1099.5 c 128,-1,15
 134 1107 134 1107 149 1107 c 256,0,1
214 800 m 1,16,-1
 94 800 l 1,17,-1
 94 -196 l 2,18,19
 94 -231 94 -231 69 -255.5 c 128,-1,20
 44 -280 44 -280 10 -280 c 2,21,-1
 0 -280 l 1,22,-1
 0 -400 l 1,23,-1
 10 -400 l 2,24,25
 95 -400 95 -400 154.5 -340.5 c 128,-1,26
 214 -281 214 -281 214 -196 c 2,27,-1
 214 800 l 1,16,-1
EndSplineSet
EndChar

StartChar: k
Encoding: 107 107 61
Width: 649
Flags: W
LayerCount: 2
Fore
SplineSet
120 1200 m 1,0,-1
 120 456 l 1,1,-1
 349 800 l 1,2,-1
 493 800 l 1,3,-1
 333 560 l 1,4,-1
 493 0 l 1,5,-1
 368 0 l 1,6,-1
 246 429 l 1,7,-1
 120 240 l 1,8,-1
 120 0 l 1,9,-1
 0 0 l 1,10,-1
 0 1200 l 1,11,-1
 120 1200 l 1,0,-1
EndSplineSet
EndChar

StartChar: l
Encoding: 108 108 62
Width: 370
Flags: W
LayerCount: 2
Fore
SplineSet
0 204 m 2,0,1
 0 119 0 119 59.5 59.5 c 128,-1,2
 119 0 119 0 204 0 c 2,3,-1
 214 0 l 1,4,-1
 214 120 l 1,5,-1
 204 120 l 2,6,7
 170 120 170 120 145 144.5 c 128,-1,8
 120 169 120 169 120 204 c 2,9,-1
 120 1200 l 1,10,-1
 0 1200 l 1,11,-1
 0 204 l 2,0,1
EndSplineSet
EndChar

StartChar: m
Encoding: 109 109 63
Width: 889
Flags: W
LayerCount: 2
Fore
SplineSet
733 596 m 2,0,-1
 733 0 l 1,1,-1
 613 0 l 1,2,-1
 613 596 l 2,3,4
 613 631 613 631 588.5 655.5 c 128,-1,5
 564 680 564 680 529 680 c 0,6,7
 495 680 495 680 470 655.5 c 128,-1,8
 445 631 445 631 445 596 c 2,9,-1
 445 0 l 1,10,-1
 325 0 l 1,11,-1
 325 596 l 2,12,13
 325 631 325 631 300.5 655.5 c 128,-1,14
 276 680 276 680 241 680 c 0,15,16
 207 680 207 680 182 655.5 c 128,-1,17
 157 631 157 631 157 596 c 2,18,-1
 157 0 l 1,19,-1
 37 0 l 1,20,-1
 37 601 l 2,21,22
 37 636 37 636 12 660 c 0,23,24
 7 666 7 666 0 671 c 1,25,-1
 0 800 l 1,26,27
 55 788 55 788 97 745 c 0,28,29
 98 744 98 744 99 743 c 0,30,31
 158 800 158 800 241 800 c 0,32,33
 326 800 326 800 385 741 c 1,34,35
 444 800 444 800 529 800 c 256,36,37
 614 800 614 800 673.5 740.5 c 128,-1,38
 733 681 733 681 733 596 c 2,0,-1
EndSplineSet
EndChar

StartChar: n
Encoding: 110 110 64
Width: 677
Flags: W
LayerCount: 2
Fore
SplineSet
76 749 m 0,1,2
 88 737 88 737 97 725 c 1,3,4
 99 727 99 727 100 728 c 0,5,6
 172 800 172 800 275 800 c 0,7,8
 377 800 377 800 449 728 c 128,-1,9
 521 656 521 656 521 553 c 2,10,-1
 521 0 l 1,11,-1
 401 0 l 1,12,-1
 401 553 l 2,13,14
 401 606 401 606 364 643 c 128,-1,15
 327 680 327 680 274.5 680 c 128,-1,16
 222 680 222 680 185 643 c 128,-1,17
 148 606 148 606 148 553 c 2,18,-1
 148 0 l 1,19,-1
 28 0 l 1,20,-1
 28 574 l 2,21,22
 28 620 28 620 0 654 c 1,23,-1
 0 800 l 1,24,0
 42 783 42 783 76 749 c 0,1,2
EndSplineSet
EndChar

StartChar: o
Encoding: 111 111 65
Width: 649
Flags: W
LayerCount: 2
Fore
SplineSet
120 247 m 2,0,1
 120 194 120 194 157 157 c 128,-1,2
 194 120 194 120 246.5 120 c 128,-1,3
 299 120 299 120 336 157 c 128,-1,4
 373 194 373 194 373 247 c 2,5,-1
 373 553 l 2,6,7
 373 606 373 606 336 643 c 128,-1,8
 299 680 299 680 246.5 680 c 128,-1,9
 194 680 194 680 157 643 c 128,-1,10
 120 606 120 606 120 553 c 2,11,-1
 120 247 l 2,0,1
493 247 m 2,12,13
 493 144 493 144 421 72 c 128,-1,14
 349 0 349 0 246 0 c 0,15,16
 144 0 144 0 72 72 c 128,-1,17
 0 144 0 144 0 247 c 2,18,-1
 0 553 l 2,19,20
 0 656 0 656 72 728 c 128,-1,21
 144 800 144 800 246 800 c 0,22,23
 349 800 349 800 421 728 c 128,-1,24
 493 656 493 656 493 553 c 2,25,-1
 493 247 l 2,12,13
EndSplineSet
EndChar

StartChar: p
Encoding: 112 112 66
Width: 649
Flags: W
LayerCount: 2
Fore
SplineSet
120 766 m 1,0,1
 176 800 176 800 246 800 c 0,2,3
 349 800 349 800 421 728 c 128,-1,4
 493 656 493 656 493 553 c 2,5,-1
 493 247 l 2,6,7
 493 144 493 144 421 72 c 128,-1,8
 349 0 349 0 246 0 c 0,9,10
 176 0 176 0 120 34 c 1,11,-1
 120 -400 l 1,12,-1
 0 -400 l 1,13,-1
 0 800 l 1,14,-1
 120 800 l 1,15,-1
 120 766 l 1,0,1
120 553 m 2,16,-1
 120 247 l 2,17,18
 120 194 120 194 157 157 c 256,19,20
 194 120 194 120 246.5 120 c 128,-1,21
 299 120 299 120 336 157 c 128,-1,22
 373 194 373 194 373 247 c 2,23,-1
 373 553 l 2,24,25
 373 606 373 606 336 643 c 128,-1,26
 299 680 299 680 246.5 680 c 128,-1,27
 194 680 194 680 157 643 c 256,28,29
 120 606 120 606 120 553 c 2,16,-1
EndSplineSet
EndChar

StartChar: q
Encoding: 113 113 67
Width: 649
Flags: W
LayerCount: 2
Fore
SplineSet
336 643 m 256,0,1
 299 680 299 680 246.5 680 c 128,-1,2
 194 680 194 680 157 643 c 128,-1,3
 120 606 120 606 120 553 c 2,4,-1
 120 247 l 2,5,6
 120 194 120 194 157 157 c 128,-1,7
 194 120 194 120 246.5 120 c 128,-1,8
 299 120 299 120 336 157 c 256,9,10
 373 194 373 194 373 247 c 2,11,-1
 373 553 l 2,12,13
 373 606 373 606 336 643 c 256,0,1
373 -196 m 2,14,-1
 373 34 l 1,15,16
 317 0 317 0 247 0 c 0,17,18
 144 0 144 0 72 72 c 128,-1,19
 0 144 0 144 0 247 c 2,20,-1
 0 553 l 2,21,22
 0 656 0 656 72 728 c 128,-1,23
 144 800 144 800 247 800 c 0,24,25
 317 800 317 800 373 766 c 1,26,-1
 373 800 l 1,27,-1
 493 800 l 1,28,-1
 493 -196 l 2,29,30
 493 -280 493 -280 433 -340 c 128,-1,31
 373 -400 373 -400 289 -400 c 2,32,-1
 247 -400 l 1,33,-1
 247 -280 l 1,34,-1
 289 -280 l 2,35,36
 323 -280 323 -280 348 -255 c 128,-1,37
 373 -230 373 -230 373 -196 c 2,14,-1
EndSplineSet
EndChar

StartChar: r
Encoding: 114 114 68
Width: 649
Flags: W
LayerCount: 2
Fore
SplineSet
120 310 m 2,0,-1
 120 0 l 1,1,-1
 0 0 l 1,2,-1
 0 800 l 1,3,-1
 120 800 l 1,4,-1
 120 630 l 1,5,6
 131 643 131 643 144 656 c 0,7,8
 287 800 287 800 493 800 c 1,9,-1
 493 680 l 1,10,11
 337 680 337 680 229 572 c 0,12,13
 120 464 120 464 120 310 c 2,0,-1
EndSplineSet
EndChar

StartChar: s
Encoding: 115 115 69
Width: 649
Flags: W
LayerCount: 2
Fore
SplineSet
384.5 743 m 128,-1,1
 442 686 442 686 442 605 c 1,2,-1
 322 605 l 1,3,4
 322 636 322 636 300 658 c 128,-1,5
 278 680 278 680 246.5 680 c 128,-1,6
 215 680 215 680 193 658 c 128,-1,7
 171 636 171 636 171 605 c 128,-1,8
 171 574 171 574 186.5 558.5 c 128,-1,9
 202 543 202 543 213 537 c 2,10,-1
 355 468 l 2,11,12
 392 450 392 450 442.5 399.5 c 128,-1,13
 493 349 493 349 493 247 c 0,14,15
 493 144 493 144 421 72 c 128,-1,16
 349 0 349 0 246 0 c 0,17,18
 144 0 144 0 72 72 c 128,-1,19
 0 144 0 144 0 247 c 1,20,-1
 120 247 l 1,21,22
 120 194 120 194 138.5 157 c 128,-1,23
 157 120 157 120 228 120 c 128,-1,24
 299 120 299 120 336 157 c 128,-1,25
 373 194 373 194 373 246.5 c 128,-1,26
 373 299 373 299 347 325 c 128,-1,27
 321 351 321 351 302 360 c 2,28,-1
 161 429 l 2,29,30
 131 444 131 444 91 484 c 128,-1,31
 51 524 51 524 51 605 c 128,-1,32
 51 686 51 686 108.5 743 c 128,-1,33
 166 800 166 800 246 800 c 0,34,0
 327 800 327 800 384.5 743 c 128,-1,1
EndSplineSet
EndChar

StartChar: t
Encoding: 116 116 70
Width: 464
Flags: W
LayerCount: 2
Fore
SplineSet
307 680 m 1,0,-1
 307 800 l 1,1,-1
 214 800 l 1,2,-1
 214 1200 l 1,3,-1
 94 1200 l 1,4,-1
 94 800 l 1,5,-1
 0 800 l 1,6,-1
 0 680 l 1,7,-1
 94 680 l 1,8,-1
 94 204 l 2,9,10
 94 119 94 119 153.5 59.5 c 128,-1,11
 213 0 213 0 298 0 c 2,12,-1
 308 0 l 1,13,-1
 308 120 l 1,14,-1
 298 120 l 2,15,16
 264 120 264 120 239 144.5 c 128,-1,17
 214 169 214 169 214 204 c 2,18,-1
 214 680 l 1,19,-1
 307 680 l 1,0,-1
EndSplineSet
EndChar

StartChar: u
Encoding: 117 117 71
Width: 677
Flags: W
LayerCount: 2
Fore
SplineSet
445 51 m 0,1,2
 433 63 433 63 424 75 c 1,3,4
 422 73 422 73 421 72 c 0,5,6
 349 0 349 0 246 0 c 0,7,8
 144 0 144 0 72 72 c 128,-1,9
 0 144 0 144 0 247 c 2,10,-1
 0 800 l 1,11,-1
 120 800 l 1,12,-1
 120 247 l 2,13,14
 120 194 120 194 157 157 c 128,-1,15
 194 120 194 120 246.5 120 c 128,-1,16
 299 120 299 120 336 157 c 128,-1,17
 373 194 373 194 373 247 c 2,18,-1
 373 800 l 1,19,-1
 493 800 l 1,20,-1
 493 226 l 2,21,22
 493 180 493 180 521 146 c 1,23,-1
 521 0 l 1,24,0
 479 17 479 17 445 51 c 0,1,2
EndSplineSet
EndChar

StartChar: v
Encoding: 118 118 72
Width: 649
Flags: W
LayerCount: 2
Fore
SplineSet
0 800 m 1,0,-1
 122 800 l 1,1,-1
 247 169 l 1,2,-1
 371 800 l 1,3,-1
 493 800 l 1,4,-1
 336 0 l 1,5,-1
 158 0 l 1,6,-1
 0 800 l 1,0,-1
EndSplineSet
EndChar

StartChar: w
Encoding: 119 119 73
Width: 889
Flags: W
LayerCount: 2
Fore
SplineSet
0 800 m 1,0,-1
 104 0 l 1,1,-1
 186 0 l 1,2,-1
 367 457 l 1,3,-1
 547 0 l 1,4,-1
 629 0 l 1,5,-1
 733 800 l 1,6,-1
 639 800 l 1,7,-1
 550 320 l 1,8,-1
 408 680 l 1,9,-1
 326 680 l 1,10,-1
 183 320 l 1,11,-1
 108 800 l 1,12,-1
 0 800 l 1,0,-1
EndSplineSet
EndChar

StartChar: x
Encoding: 120 120 74
Width: 649
Flags: W
LayerCount: 2
Fore
SplineSet
132 800 m 1,0,-1
 247 546 l 1,1,-1
 362 800 l 1,2,-1
 493 800 l 1,3,-1
 312 400 l 1,4,-1
 493 0 l 1,5,-1
 362 0 l 1,6,-1
 247 254 l 1,7,-1
 132 0 l 1,8,-1
 0 0 l 1,9,-1
 174 400 l 1,10,-1
 0 800 l 1,11,-1
 132 800 l 1,0,-1
EndSplineSet
EndChar

StartChar: y
Encoding: 121 121 75
Width: 649
Flags: W
LayerCount: 2
Fore
SplineSet
185 -2 m 1,0,-1
 0 800 l 1,1,-1
 123 800 l 1,2,-1
 247 251 l 1,3,-1
 370 800 l 1,4,-1
 493 800 l 1,5,-1
 262 -228 l 1,6,7
 252 -292 252 -292 205 -340 c 0,8,9
 145 -400 145 -400 60 -400 c 1,10,-1
 60 -280 l 1,11,12
 94 -280 94 -280 119 -255 c 0,13,14
 137 -237 137 -237 142 -214 c 2,15,-1
 185 -2 l 1,0,-1
EndSplineSet
EndChar

StartChar: z
Encoding: 122 122 76
Width: 649
Flags: W
LayerCount: 2
Fore
SplineSet
0 798 m 1,0,-1
 493 798 l 1,1,-1
 493 642 l 1,2,-1
 120 120 l 1,3,-1
 493 120 l 1,4,-1
 493 -2 l 1,5,-1
 0 -2 l 1,6,-1
 0 158 l 1,7,-1
 357 680 l 1,8,-1
 0 680 l 1,9,-1
 0 798 l 1,0,-1
EndSplineSet
EndChar

StartChar: asciitilde
Encoding: 126 126 77
Width: 900
Flags: W
LayerCount: 2
Fore
SplineSet
214 804 m 256,0,1
 306 804 306 804 381 728 c 1,2,-1
 486 608 l 2,3,4
 535 558 535 558 594.5 558 c 128,-1,5
 654 558 654 558 684 588 c 128,-1,6
 714 618 714 618 725 642 c 1,7,-1
 808 642 l 1,8,9
 792 586 792 586 739 533 c 128,-1,10
 686 480 686 480 594 480 c 256,11,12
 502 480 502 480 427 556 c 1,13,-1
 322 676 l 2,14,15
 273 726 273 726 213.5 726 c 128,-1,16
 154 726 154 726 124 696 c 128,-1,17
 94 666 94 666 83 642 c 1,18,-1
 0 642 l 1,19,20
 16 698 16 698 69 751 c 128,-1,21
 122 804 122 804 214 804 c 256,0,1
EndSplineSet
EndChar

StartChar: degree
Encoding: 176 176 78
Width: 180
Flags: W
LayerCount: 2
Fore
SplineSet
0 1320 m 256,0,1
 50 1320 50 1320 85 1285 c 128,-1,2
 120 1250 120 1250 120 1200 c 256,3,4
 120 1150 120 1150 85 1115 c 128,-1,5
 50 1080 50 1080 0 1080 c 0,6,7
 -49 1080 -49 1080 -84.5 1115 c 128,-1,8
 -120 1150 -120 1150 -120 1200 c 256,9,10
 -120 1250 -120 1250 -85 1285 c 128,-1,11
 -50 1320 -50 1320 0 1320 c 256,0,1
0 1242 m 0,12,13
 -17 1242 -17 1242 -29.5 1230 c 128,-1,14
 -42 1218 -42 1218 -42 1200 c 0,15,16
 -42 1183 -42 1183 -29.5 1170.5 c 128,-1,17
 -17 1158 -17 1158 0 1158 c 256,18,19
 17 1158 17 1158 29.5 1170.5 c 128,-1,20
 42 1183 42 1183 42 1200 c 0,21,22
 42 1218 42 1218 30 1230 c 128,-1,23
 18 1242 18 1242 0 1242 c 0,12,13
EndSplineSet
EndChar

StartChar: bullet
Encoding: 8226 8226 79
Width: 540
Flags: W
LayerCount: 2
Fore
SplineSet
180 780 m 256,0,1
 255 780 255 780 307.5 727.5 c 128,-1,2
 360 675 360 675 360 600 c 256,3,4
 360 525 360 525 307.5 472.5 c 128,-1,5
 255 420 255 420 180 420 c 256,6,7
 105 420 105 420 52.5 472.5 c 128,-1,8
 0 525 0 525 0 600 c 256,9,10
 0 675 0 675 52.5 727.5 c 128,-1,11
 105 780 105 780 180 780 c 256,0,1
180 703 m 0,12,13
 138 703 138 703 108 673 c 128,-1,14
 78 643 78 643 78 601 c 0,15,16
 78 558 78 558 108 528 c 128,-1,17
 138 498 138 498 180 498 c 256,18,19
 222 498 222 498 252 528 c 128,-1,20
 282 558 282 558 282 601 c 0,21,22
 282 643 282 643 252.5 673 c 128,-1,23
 223 703 223 703 180 703 c 0,12,13
EndSplineSet
EndChar

StartChar: plusminus
Encoding: 177 177 80
Width: 900
Flags: W
LayerCount: 2
Fore
SplineSet
0 221 m 1,0,-1
 720 221 l 1,1,-1
 720 143 l 1,2,-1
 0 143 l 1,3,-1
 0 221 l 1,0,-1
399 1058 m 1,4,-1
 399 737 l 1,5,-1
 720 737 l 1,6,-1
 720 659 l 1,7,-1
 399 659 l 1,8,-1
 399 338 l 1,9,-1
 321 338 l 1,10,-1
 321 659 l 1,11,-1
 0 659 l 1,12,-1
 0 737 l 1,13,-1
 321 737 l 1,14,-1
 321 1058 l 1,15,-1
 399 1058 l 1,4,-1
EndSplineSet
EndChar

StartChar: lessequal
Encoding: 8804 8804 81
Width: 900
Flags: W
LayerCount: 2
Fore
SplineSet
720 118 m 1,0,-1
 0 478 l 1,1,-1
 0 566 l 1,2,-1
 720 206 l 1,3,-1
 720 118 l 1,0,-1
0 722 m 1,4,-1
 720 1082 l 1,5,-1
 720 995 l 1,6,-1
 174 722 l 1,7,-1
 720 449 l 1,8,-1
 720 362 l 1,9,-1
 0 722 l 1,4,-1
EndSplineSet
EndChar

StartChar: greaterequal
Encoding: 8805 8805 82
Width: 900
Flags: W
LayerCount: 2
Fore
SplineSet
0 206 m 1,0,-1
 720 566 l 1,1,-1
 720 478 l 1,2,-1
 0 118 l 1,3,-1
 0 206 l 1,0,-1
0 362 m 1,4,-1
 0 449 l 1,5,-1
 546 722 l 1,6,-1
 0 995 l 1,7,-1
 0 1082 l 1,8,-1
 720 722 l 1,9,-1
 0 362 l 1,4,-1
EndSplineSet
EndChar

StartChar: yen
Encoding: 165 165 83
Width: 1620
Flags: W
LayerCount: 2
Fore
SplineSet
991 135 m 2,0,1
 1008 119 1008 119 1030 108 c 0,2,3
 1082 78 1082 78 1140 78 c 256,4,5
 1198 78 1198 78 1250.5 107.5 c 128,-1,6
 1303 137 1303 137 1332.5 189.5 c 128,-1,7
 1362 242 1362 242 1362 300 c 256,8,9
 1362 358 1362 358 1332 411.5 c 128,-1,10
 1302 465 1302 465 1249 493.5 c 128,-1,11
 1196 522 1196 522 1140 522 c 256,12,13
 1084 522 1084 522 1031 494 c 0,14,15
 1005 479 1005 479 984 459 c 2,16,-1
 783 301 l 1,17,-1
 991 135 l 2,0,1
720 252 m 1,18,-1
 512 86 l 2,19,20
 484 59 484 59 450 40 c 0,21,22
 378 0 378 0 300 0 c 256,23,24
 222 0 222 0 150.5 39.5 c 128,-1,25
 79 79 79 79 39.5 150.5 c 128,-1,26
 0 222 0 222 0 300 c 256,27,28
 0 378 0 378 40.5 450.5 c 128,-1,29
 81 523 81 523 152.5 561.5 c 128,-1,30
 224 600 224 600 300 600 c 0,31,32
 375 600 375 600 447 562 c 0,33,34
 475 546 475 546 499 526 c 2,35,-1
 720 352 l 1,36,-1
 941 526 l 2,37,38
 965 546 965 546 993 562 c 0,39,40
 1065 600 1065 600 1140 600 c 0,41,42
 1216 600 1216 600 1287.5 561.5 c 128,-1,43
 1359 523 1359 523 1399.5 450.5 c 128,-1,44
 1440 378 1440 378 1440 300 c 256,45,46
 1440 222 1440 222 1400.5 150.5 c 128,-1,47
 1361 79 1361 79 1289.5 39.5 c 128,-1,48
 1218 0 1218 0 1140 0 c 256,49,50
 1062 0 1062 0 991 40 c 0,51,52
 956 59 956 59 928 86 c 2,53,-1
 720 252 l 1,18,-1
657 301 m 1,54,-1
 456 459 l 2,55,56
 435 479 435 479 409 494 c 0,57,58
 356 522 356 522 300 522 c 256,59,60
 244 522 244 522 191 493.5 c 128,-1,61
 138 465 138 465 108 411.5 c 128,-1,62
 78 358 78 358 78 300 c 256,63,64
 78 242 78 242 107.5 189.5 c 128,-1,65
 137 137 137 137 189.5 107.5 c 128,-1,66
 242 78 242 78 300 78 c 256,67,68
 358 78 358 78 411 108 c 0,69,70
 432 119 432 119 449 135 c 2,71,-1
 657 301 l 1,54,-1
EndSplineSet
EndChar

StartChar: summation
Encoding: 8721 8721 84
Width: 900
Flags: W
LayerCount: 2
Fore
SplineSet
720 1200 m 1,0,-1
 720 1050 l 1,1,-1
 175 1050 l 1,2,-1
 444 600 l 1,3,-1
 175 150 l 1,4,-1
 720 150 l 1,5,-1
 720 0 l 1,6,-1
 0 0 l 1,7,-1
 0 150 l 1,8,-1
 269 600 l 1,9,-1
 0 1050 l 1,10,-1
 0 1200 l 1,11,-1
 720 1200 l 1,0,-1
EndSplineSet
EndChar

StartChar: Omega
Encoding: 8486 8486 85
Width: 1410
Flags: W
LayerCount: 2
Fore
SplineSet
615 1200 m 256,0,1
 795 1200 795 1200 922.5 1072.5 c 128,-1,2
 1050 945 1050 945 1050 765 c 128,-1,3
 1050 585 1050 585 978.5 513.5 c 128,-1,4
 907 442 907 442 891 429 c 1,5,-1
 891 150 l 1,6,-1
 1230 150 l 1,7,-1
 1230 0 l 1,8,-1
 741 0 l 1,9,-1
 741 509 l 1,10,-1
 783 530 l 1,11,12
 900 647 900 647 900 765 c 128,-1,13
 900 883 900 883 816.5 966.5 c 128,-1,14
 733 1050 733 1050 615 1050 c 0,15,16
 499 1050 499 1050 414.5 966.5 c 128,-1,17
 330 883 330 883 330 765 c 128,-1,18
 330 647 330 647 447 530 c 1,19,-1
 489 509 l 1,20,-1
 489 0 l 1,21,-1
 0 0 l 1,22,-1
 0 150 l 1,23,-1
 339 150 l 1,24,-1
 339 429 l 1,25,-1
 323 442 l 1,26,27
 178 586 178 586 179 765.5 c 128,-1,28
 180 945 180 945 307.5 1072.5 c 128,-1,29
 435 1200 435 1200 615 1200 c 256,0,1
EndSplineSet
EndChar

StartChar: radical
Encoding: 8730 8730 86
Width: 1500
Flags: W
LayerCount: 2
Fore
SplineSet
816 1440 m 1,0,-1
 1320 1440 l 1,1,-1
 1320 1349 l 1,2,-1
 877 1349 l 1,3,-1
 322 0 l 1,4,-1
 156 0 l 1,5,-1
 156 957 l 1,6,-1
 0 957 l 1,7,-1
 0 1203 l 1,8,-1
 322 1203 l 1,9,-1
 322 252 l 1,10,-1
 327 252 l 1,11,-1
 816 1440 l 1,0,-1
EndSplineSet
EndChar

StartChar: approxequal
Encoding: 8776 8776 87
Width: 900
Flags: W
LayerCount: 2
Fore
SplineSet
277 864 m 2,1,-1
 464 725 l 2,2,3
 502 696 502 696 556 696 c 128,-1,4
 610 696 610 696 640 726 c 128,-1,5
 670 756 670 756 681 780 c 1,6,-1
 720 780 l 1,7,8
 706 742 706 742 665.5 701 c 128,-1,9
 625 660 625 660 557.5 660 c 128,-1,10
 490 660 490 660 443 696 c 2,11,-1
 256 835 l 2,12,13
 218 864 218 864 164 864 c 128,-1,14
 110 864 110 864 80 834 c 128,-1,15
 50 804 50 804 39 780 c 1,16,-1
 0 780 l 1,17,18
 14 818 14 818 54.5 859 c 128,-1,19
 95 900 95 900 162.5 900 c 128,-1,0
 230 900 230 900 277 864 c 2,1,-1
277 684 m 2,21,-1
 464 545 l 2,22,23
 502 516 502 516 556 516 c 128,-1,24
 610 516 610 516 640 546 c 128,-1,25
 670 576 670 576 681 600 c 1,26,-1
 720 600 l 1,27,28
 706 562 706 562 665.5 521 c 128,-1,29
 625 480 625 480 557.5 480 c 128,-1,30
 490 480 490 480 443 516 c 2,31,-1
 256 655 l 2,32,33
 218 684 218 684 164 684 c 128,-1,34
 110 684 110 684 80 654 c 128,-1,35
 50 624 50 624 39 600 c 1,36,-1
 0 600 l 1,37,38
 14 638 14 638 54.5 679 c 128,-1,39
 95 720 95 720 162.5 720 c 128,-1,20
 230 720 230 720 277 684 c 2,21,-1
EndSplineSet
EndChar

StartChar: Delta
Encoding: 8710 8710 88
Width: 1410
Flags: W
LayerCount: 2
Fore
SplineSet
1230 0 m 1,0,-1
 0 0 l 1,1,-1
 615 1200 l 1,2,-1
 1230 0 l 1,0,-1
245 150 m 1,3,-1
 985 150 l 1,4,-1
 615 871 l 1,5,-1
 245 150 l 1,3,-1
EndSplineSet
EndChar

StartChar: Alpha
Encoding: 913 913 89
Width: 900
Flags: W
LayerCount: 2
Fore
SplineSet
285 1200 m 1,0,-1
 435 1200 l 1,1,-1
 720 0 l 1,2,-1
 566 0 l 1,3,-1
 506 250 l 1,4,-1
 214 250 l 1,5,-1
 154 0 l 1,6,-1
 0 0 l 1,7,-1
 285 1200 l 1,0,-1
249 400 m 1,8,-1
 471 400 l 1,9,-1
 360 867 l 1,10,-1
 249 400 l 1,8,-1
EndSplineSet
EndChar

StartChar: Beta
Encoding: 914 914 90
Width: 900
Flags: W
LayerCount: 2
Fore
SplineSet
0 1200 m 1,0,-1
 420 1200 l 2,1,2
 544 1200 544 1200 632 1112 c 128,-1,3
 720 1024 720 1024 720 900 c 256,4,5
 720 776 720 776 602 657 c 1,6,7
 720 539 720 539 720 390 c 2,8,-1
 720 360 l 2,9,10
 720 211 720 211 614.5 105.5 c 128,-1,11
 509 0 509 0 360 0 c 2,12,-1
 0 0 l 1,13,-1
 0 1200 l 1,0,-1
150 1050 m 1,14,-1
 150 750 l 1,15,-1
 420 750 l 2,16,17
 482 750 482 750 526 794 c 128,-1,18
 570 838 570 838 570 900 c 128,-1,19
 570 962 570 962 526 1006 c 128,-1,20
 482 1050 482 1050 420 1050 c 2,21,-1
 150 1050 l 1,14,-1
150 600 m 1,22,-1
 150 150 l 1,23,-1
 360 150 l 2,24,25
 447 150 447 150 508.5 211.5 c 128,-1,26
 570 273 570 273 570 360 c 2,27,-1
 570 390 l 2,28,29
 570 477 570 477 508.5 538.5 c 128,-1,30
 447 600 447 600 360 600 c 2,31,-1
 150 600 l 1,22,-1
EndSplineSet
EndChar

StartChar: Gamma
Encoding: 915 915 91
Width: 900
Flags: W
LayerCount: 2
Fore
SplineSet
720 1200 m 1,0,-1
 720 1050 l 1,1,-1
 150 1050 l 1,2,-1
 150 0 l 1,3,-1
 0 0 l 1,4,-1
 0 1200 l 1,5,-1
 720 1200 l 1,0,-1
EndSplineSet
EndChar

StartChar: uni0394
Encoding: 916 916 92
Width: 1410
Flags: W
LayerCount: 2
Fore
SplineSet
1230 0 m 1,0,-1
 0 0 l 1,1,-1
 615 1200 l 1,2,-1
 1230 0 l 1,0,-1
245 150 m 1,3,-1
 985 150 l 1,4,-1
 615 871 l 1,5,-1
 245 150 l 1,3,-1
EndSplineSet
EndChar

StartChar: Epsilon
Encoding: 917 917 93
Width: 900
Flags: W
LayerCount: 2
Fore
SplineSet
645 1200 m 1,0,-1
 645 1050 l 1,1,-1
 150 1050 l 1,2,-1
 150 750 l 1,3,-1
 570 750 l 1,4,-1
 570 600 l 1,5,-1
 150 600 l 1,6,-1
 150 150 l 1,7,-1
 720 150 l 1,8,-1
 720 0 l 1,9,-1
 0 0 l 1,10,-1
 0 1200 l 1,11,-1
 645 1200 l 1,0,-1
EndSplineSet
EndChar

StartChar: Zeta
Encoding: 918 918 94
Width: 900
Flags: W
LayerCount: 2
Fore
SplineSet
720 1200 m 1,0,-1
 720 992 l 1,1,-1
 150 150 l 1,2,-1
 720 150 l 1,3,-1
 720 0 l 1,4,-1
 0 0 l 1,5,-1
 0 208 l 1,6,-1
 578 1050 l 1,7,-1
 0 1050 l 1,8,-1
 0 1200 l 1,9,-1
 720 1200 l 1,0,-1
EndSplineSet
EndChar

StartChar: Eta
Encoding: 919 919 95
Width: 900
Flags: W
LayerCount: 2
Fore
SplineSet
150 1200 m 1,0,-1
 150 750 l 1,1,-1
 570 750 l 1,2,-1
 570 1200 l 1,3,-1
 720 1200 l 1,4,-1
 720 0 l 1,5,-1
 570 0 l 1,6,-1
 570 600 l 1,7,-1
 150 600 l 1,8,-1
 150 0 l 1,9,-1
 0 0 l 1,10,-1
 0 1200 l 1,11,-1
 150 1200 l 1,0,-1
EndSplineSet
EndChar

StartChar: Theta
Encoding: 920 920 96
Width: 900
Flags: W
LayerCount: 2
Fore
SplineSet
150 525 m 1,0,-1
 150 360 l 2,1,2
 150 273 150 273 211.5 211.5 c 128,-1,3
 273 150 273 150 360 150 c 256,4,5
 447 150 447 150 508.5 211.5 c 128,-1,6
 570 273 570 273 570 360 c 2,7,-1
 570 525 l 1,8,-1
 150 525 l 1,0,-1
570 675 m 1,9,-1
 570 840 l 2,10,11
 570 927 570 927 508.5 988.5 c 128,-1,12
 447 1050 447 1050 360 1050 c 256,13,14
 273 1050 273 1050 211.5 988.5 c 128,-1,15
 150 927 150 927 150 840 c 2,16,-1
 150 675 l 1,17,-1
 570 675 l 1,9,-1
0 840 m 2,18,19
 0 989 0 989 105.5 1094.5 c 128,-1,20
 211 1200 211 1200 360 1200 c 256,21,22
 509 1200 509 1200 614.5 1094.5 c 128,-1,23
 720 989 720 989 720 840 c 2,24,-1
 720 360 l 2,25,26
 720 211 720 211 614.5 105.5 c 128,-1,27
 509 0 509 0 360 0 c 256,28,29
 211 0 211 0 105.5 105.5 c 128,-1,30
 0 211 0 211 0 360 c 2,31,-1
 0 840 l 2,18,19
EndSplineSet
EndChar

StartChar: Iota
Encoding: 921 921 97
Width: 330
Flags: W
LayerCount: 2
Fore
SplineSet
0 1200 m 1,0,-1
 150 1200 l 1,1,-1
 150 0 l 1,2,-1
 0 0 l 1,3,-1
 0 1200 l 1,0,-1
EndSplineSet
EndChar

StartChar: Kappa
Encoding: 922 922 98
Width: 900
Flags: W
LayerCount: 2
Fore
SplineSet
150 1200 m 1,0,-1
 150 658 l 1,1,-1
 536 1200 l 1,2,-1
 720 1200 l 1,3,-1
 435 800 l 1,4,-1
 720 0 l 1,5,-1
 561 0 l 1,6,-1
 329 651 l 1,7,-1
 150 400 l 1,8,-1
 150 0 l 1,9,-1
 0 0 l 1,10,-1
 0 1200 l 1,11,-1
 150 1200 l 1,0,-1
EndSplineSet
EndChar

StartChar: Lambda
Encoding: 923 923 99
Width: 1410
Flags: W
LayerCount: 2
Fore
SplineSet
1230 0 m 1,0,-1
 1061 0 l 1,1,-1
 615 871 l 1,2,-1
 167 0 l 1,3,-1
 0 0 l 1,4,-1
 615 1200 l 1,5,-1
 1230 0 l 1,0,-1
EndSplineSet
EndChar

StartChar: Mu
Encoding: 924 924 100
Width: 1260
Flags: W
LayerCount: 2
Fore
SplineSet
150 1200 m 1,0,-1
 540 600 l 1,1,-1
 930 1200 l 1,2,-1
 1080 1200 l 1,3,-1
 1080 0 l 1,4,-1
 930 0 l 1,5,-1
 930 925 l 1,6,-1
 540 325 l 1,7,-1
 150 925 l 1,8,-1
 150 0 l 1,9,-1
 0 0 l 1,10,-1
 0 1200 l 1,11,-1
 150 1200 l 1,0,-1
EndSplineSet
EndChar

StartChar: Nu
Encoding: 925 925 101
Width: 900
Flags: W
LayerCount: 2
Fore
SplineSet
720 1200 m 1,0,-1
 720 1 l 1,1,-1
 555 0 l 1,2,-1
 150 876 l 1,3,-1
 150 0 l 1,4,-1
 0 0 l 1,5,-1
 0 1200 l 1,6,-1
 155 1200 l 1,7,-1
 570 324 l 1,8,-1
 570 1200 l 1,9,-1
 720 1200 l 1,0,-1
EndSplineSet
EndChar

StartChar: Xi
Encoding: 926 926 102
Width: 900
Flags: W
LayerCount: 2
Fore
SplineSet
0 1200 m 1,0,-1
 720 1200 l 1,1,-1
 720 975 l 1,2,-1
 570 975 l 1,3,-1
 570 1050 l 1,4,-1
 150 1050 l 1,5,-1
 150 975 l 1,6,-1
 0 975 l 1,7,-1
 0 1200 l 1,0,-1
570 675 m 1,8,-1
 570 525 l 1,9,-1
 150 525 l 1,10,-1
 150 675 l 1,11,-1
 570 675 l 1,8,-1
150 225 m 1,12,-1
 150 150 l 1,13,-1
 570 150 l 1,14,-1
 570 225 l 1,15,-1
 720 225 l 1,16,-1
 720 0 l 1,17,-1
 0 0 l 1,18,-1
 0 225 l 1,19,-1
 150 225 l 1,12,-1
EndSplineSet
EndChar

StartChar: Omicron
Encoding: 927 927 103
Width: 900
Flags: W
LayerCount: 2
Fore
SplineSet
360 1200 m 256,0,1
 509 1200 509 1200 614.5 1094.5 c 128,-1,2
 720 989 720 989 720 840 c 2,3,-1
 720 360 l 2,4,5
 720 211 720 211 614.5 105.5 c 128,-1,6
 509 0 509 0 360 0 c 256,7,8
 211 0 211 0 105.5 105.5 c 128,-1,9
 0 211 0 211 0 360 c 2,10,-1
 0 840 l 2,11,12
 0 989 0 989 105.5 1094.5 c 128,-1,13
 211 1200 211 1200 360 1200 c 256,0,1
150 840 m 2,14,-1
 150 360 l 2,15,16
 150 273 150 273 211.5 211.5 c 128,-1,17
 273 150 273 150 360 150 c 256,18,19
 447 150 447 150 508.5 211.5 c 128,-1,20
 570 273 570 273 570 360 c 2,21,-1
 570 840 l 2,22,23
 570 927 570 927 508.5 988.5 c 128,-1,24
 447 1050 447 1050 360 1050 c 256,25,26
 273 1050 273 1050 211.5 988.5 c 128,-1,27
 150 927 150 927 150 840 c 2,14,-1
EndSplineSet
EndChar

StartChar: Pi
Encoding: 928 928 104
Width: 900
Flags: W
LayerCount: 2
Fore
SplineSet
720 1200 m 1,0,-1
 720 0 l 1,1,-1
 570 0 l 1,2,-1
 570 1050 l 1,3,-1
 150 1050 l 1,4,-1
 150 0 l 1,5,-1
 0 0 l 1,6,-1
 0 1200 l 1,7,-1
 720 1200 l 1,0,-1
EndSplineSet
EndChar

StartChar: Rho
Encoding: 929 929 105
Width: 900
Flags: W
LayerCount: 2
Fore
SplineSet
360 1200 m 2,0,1
 509 1200 509 1200 614.5 1094.5 c 128,-1,2
 720 989 720 989 720 840 c 2,3,-1
 720 810 l 2,4,5
 720 661 720 661 614.5 555.5 c 128,-1,6
 509 450 509 450 360 450 c 2,7,-1
 150 450 l 1,8,-1
 150 0 l 1,9,-1
 0 0 l 1,10,-1
 0 1200 l 1,11,-1
 360 1200 l 2,0,1
150 1050 m 1,12,-1
 150 600 l 1,13,-1
 360 600 l 2,14,15
 447 600 447 600 508.5 661.5 c 128,-1,16
 570 723 570 723 570 810 c 2,17,-1
 570 840 l 2,18,19
 570 927 570 927 508.5 988.5 c 128,-1,20
 447 1050 447 1050 360 1050 c 2,21,-1
 150 1050 l 1,12,-1
EndSplineSet
EndChar

StartChar: Sigma
Encoding: 931 931 106
Width: 900
Flags: W
LayerCount: 2
Fore
SplineSet
720 1200 m 1,0,-1
 720 1050 l 1,1,-1
 175 1050 l 1,2,-1
 444 600 l 1,3,-1
 175 150 l 1,4,-1
 720 150 l 1,5,-1
 720 0 l 1,6,-1
 0 0 l 1,7,-1
 0 150 l 1,8,-1
 269 600 l 1,9,-1
 0 1050 l 1,10,-1
 0 1200 l 1,11,-1
 720 1200 l 1,0,-1
EndSplineSet
EndChar

StartChar: Tau
Encoding: 932 932 107
Width: 900
Flags: W
LayerCount: 2
Fore
SplineSet
720 1200 m 1,0,-1
 720 1050 l 1,1,-1
 435 1050 l 1,2,-1
 435 0 l 1,3,-1
 285 0 l 1,4,-1
 285 1050 l 1,5,-1
 0 1050 l 1,6,-1
 0 1200 l 1,7,-1
 720 1200 l 1,0,-1
EndSplineSet
EndChar

StartChar: Upsilon
Encoding: 933 933 108
Width: 900
Flags: W
LayerCount: 2
Fore
SplineSet
159 1200 m 1,0,-1
 360 634 l 1,1,-1
 561 1200 l 1,2,-1
 720 1200 l 1,3,-1
 435 400 l 1,4,-1
 435 0 l 1,5,-1
 285 0 l 1,6,-1
 285 400 l 1,7,-1
 0 1200 l 1,8,-1
 159 1200 l 1,0,-1
EndSplineSet
EndChar

StartChar: Phi
Encoding: 934 934 109
Width: 1260
Flags: W
LayerCount: 2
Fore
SplineSet
465 1200 m 1,0,-1
 615 1200 l 1,1,-1
 615 1050 l 1,2,-1
 720 1050 l 2,3,4
 869 1050 869 1050 974.5 944.5 c 128,-1,5
 1080 839 1080 839 1080 690 c 2,6,-1
 1080 660 l 2,7,8
 1080 511 1080 511 974.5 405.5 c 128,-1,9
 869 300 869 300 720 300 c 2,10,-1
 615 300 l 1,11,-1
 615 0 l 1,12,-1
 465 0 l 1,13,-1
 465 300 l 1,14,-1
 360 300 l 2,15,16
 211 300 211 300 105.5 405.5 c 128,-1,17
 0 511 0 511 0 660 c 2,18,-1
 0 690 l 2,19,20
 0 839 0 839 105.5 944.5 c 128,-1,21
 211 1050 211 1050 360 1050 c 2,22,-1
 465 1050 l 1,23,-1
 465 1200 l 1,0,-1
150 690 m 2,24,-1
 150 660 l 2,25,26
 150 573 150 573 211.5 511.5 c 128,-1,27
 273 450 273 450 360 450 c 2,28,-1
 465 450 l 1,29,-1
 465 900 l 1,30,-1
 360 900 l 2,31,32
 273 900 273 900 211.5 838.5 c 128,-1,33
 150 777 150 777 150 690 c 2,24,-1
868.5 838.5 m 128,-1,35
 807 900 807 900 720 900 c 2,36,-1
 615 900 l 1,37,-1
 615 450 l 1,38,-1
 720 450 l 2,39,40
 807 450 807 450 868.5 511.5 c 128,-1,41
 930 573 930 573 930 660 c 2,42,-1
 930 690 l 2,43,34
 930 777 930 777 868.5 838.5 c 128,-1,35
EndSplineSet
EndChar

StartChar: Chi
Encoding: 935 935 110
Width: 900
Flags: W
LayerCount: 2
Fore
SplineSet
155 1200 m 1,0,-1
 360 779 l 1,1,-1
 555 1200 l 1,2,-1
 720 1200 l 1,3,-1
 443 600 l 1,4,-1
 720 0 l 1,5,-1
 555 0 l 1,6,-1
 360 421 l 1,7,-1
 155 0 l 1,8,-1
 0 0 l 1,9,-1
 277 600 l 1,10,-1
 3 1200 l 1,11,-1
 155 1200 l 1,0,-1
EndSplineSet
EndChar

StartChar: Psi
Encoding: 936 936 111
Width: 1410
Flags: W
LayerCount: 2
Fore
SplineSet
195 1119 m 128,-1,1
 276 1038 276 1038 276 924 c 2,2,-1
 276 810 l 2,3,4
 276 723 276 723 337.5 661.5 c 128,-1,5
 399 600 399 600 486 600 c 2,6,-1
 540 600 l 1,7,-1
 540 1200 l 1,8,-1
 690 1200 l 1,9,-1
 690 600 l 1,10,-1
 744 600 l 2,11,12
 831 600 831 600 892.5 661.5 c 128,-1,13
 954 723 954 723 954 810 c 2,14,-1
 954 924 l 2,15,16
 954 1038 954 1038 1035 1119 c 128,-1,17
 1116 1200 1116 1200 1230 1200 c 1,18,-1
 1230 1050 l 1,19,20
 1178 1050 1178 1050 1141 1013 c 128,-1,21
 1104 976 1104 976 1104 924 c 2,22,-1
 1104 810 l 2,23,24
 1104 661 1104 661 982.5 555.5 c 128,-1,25
 861 450 861 450 744 450 c 2,26,-1
 690 450 l 1,27,-1
 690 0 l 1,28,-1
 540 0 l 1,29,-1
 540 450 l 1,30,-1
 486 450 l 2,31,32
 337 450 337 450 231.5 555.5 c 128,-1,33
 126 661 126 661 126 810 c 2,34,-1
 126 924 l 2,35,36
 126 976 126 976 89 1013 c 128,-1,37
 52 1050 52 1050 0 1050 c 1,38,-1
 0 1200 l 1,39,0
 114 1200 114 1200 195 1119 c 128,-1,1
EndSplineSet
EndChar

StartChar: uni03A9
Encoding: 937 937 112
Width: 1410
Flags: W
LayerCount: 2
Fore
SplineSet
615 1200 m 256,0,1
 795 1200 795 1200 922.5 1072.5 c 128,-1,2
 1050 945 1050 945 1050 765 c 128,-1,3
 1050 585 1050 585 978.5 513.5 c 128,-1,4
 907 442 907 442 891 429 c 1,5,-1
 891 150 l 1,6,-1
 1230 150 l 1,7,-1
 1230 0 l 1,8,-1
 741 0 l 1,9,-1
 741 509 l 1,10,-1
 783 530 l 1,11,12
 900 647 900 647 900 765 c 128,-1,13
 900 883 900 883 816.5 966.5 c 128,-1,14
 733 1050 733 1050 615 1050 c 0,15,16
 499 1050 499 1050 414.5 966.5 c 128,-1,17
 330 883 330 883 330 765 c 128,-1,18
 330 647 330 647 447 530 c 1,19,-1
 489 509 l 1,20,-1
 489 0 l 1,21,-1
 0 0 l 1,22,-1
 0 150 l 1,23,-1
 339 150 l 1,24,-1
 339 429 l 1,25,-1
 323 442 l 1,26,27
 178 586 178 586 179 765.5 c 128,-1,28
 180 945 180 945 307.5 1072.5 c 128,-1,29
 435 1200 435 1200 615 1200 c 256,0,1
EndSplineSet
EndChar

StartChar: "+AMAA"
Encoding: 1040 1040 113
Width: 900
Flags: W
LayerCount: 2
Fore
SplineSet
285 1200 m 1,0,-1
 435 1200 l 1,1,-1
 720 0 l 1,2,-1
 566 0 l 1,3,-1
 506 250 l 1,4,-1
 214 250 l 1,5,-1
 154 0 l 1,6,-1
 0 0 l 1,7,-1
 285 1200 l 1,0,-1
249 400 m 1,8,-1
 471 400 l 1,9,-1
 360 867 l 1,10,-1
 249 400 l 1,8,-1
EndSplineSet
EndChar

StartChar: "+AMEA"
Encoding: 1041 1041 114
Width: 900
Flags: W
LayerCount: 2
Fore
SplineSet
645 1200 m 1,0,-1
 645 1050 l 1,1,-1
 150 1050 l 1,2,-1
 150 750 l 1,3,-1
 360 750 l 2,4,5
 509 750 509 750 614.5 644.5 c 128,-1,6
 720 539 720 539 720 390 c 2,7,-1
 720 360 l 2,8,9
 720 211 720 211 614.5 105.5 c 128,-1,10
 509 0 509 0 360 0 c 2,11,-1
 0 0 l 1,12,-1
 0 1200 l 1,13,-1
 645 1200 l 1,0,-1
150 600 m 1,14,-1
 150 150 l 1,15,-1
 360 150 l 2,16,17
 447 150 447 150 508.5 211.5 c 128,-1,18
 570 273 570 273 570 360 c 2,19,-1
 570 390 l 2,20,21
 570 477 570 477 508.5 538.5 c 128,-1,22
 447 600 447 600 360 600 c 2,23,-1
 150 600 l 1,14,-1
EndSplineSet
EndChar

StartChar: "+AMIA"
Encoding: 1042 1042 115
Width: 900
Flags: W
LayerCount: 2
Fore
SplineSet
0 1200 m 1,0,-1
 420 1200 l 2,1,2
 544 1200 544 1200 632 1112 c 128,-1,3
 720 1024 720 1024 720 900 c 256,4,5
 720 776 720 776 602 657 c 1,6,7
 720 539 720 539 720 390 c 2,8,-1
 720 360 l 2,9,10
 720 211 720 211 614.5 105.5 c 128,-1,11
 509 0 509 0 360 0 c 2,12,-1
 0 0 l 1,13,-1
 0 1200 l 1,0,-1
150 1050 m 1,14,-1
 150 750 l 1,15,-1
 420 750 l 2,16,17
 482 750 482 750 526 794 c 128,-1,18
 570 838 570 838 570 900 c 128,-1,19
 570 962 570 962 526 1006 c 128,-1,20
 482 1050 482 1050 420 1050 c 2,21,-1
 150 1050 l 1,14,-1
150 600 m 1,22,-1
 150 150 l 1,23,-1
 360 150 l 2,24,25
 447 150 447 150 508.5 211.5 c 128,-1,26
 570 273 570 273 570 360 c 2,27,-1
 570 390 l 2,28,29
 570 477 570 477 508.5 538.5 c 128,-1,30
 447 600 447 600 360 600 c 2,31,-1
 150 600 l 1,22,-1
EndSplineSet
EndChar

StartChar: "+AMMA"
Encoding: 1043 1043 116
Width: 900
Flags: W
LayerCount: 2
Fore
SplineSet
720 1200 m 1,0,-1
 720 1050 l 1,1,-1
 150 1050 l 1,2,-1
 150 0 l 1,3,-1
 0 0 l 1,4,-1
 0 1200 l 1,5,-1
 720 1200 l 1,0,-1
EndSplineSet
EndChar

StartChar: "+AMQA"
Encoding: 1044 1044 117
Width: 1260
Flags: W
LayerCount: 2
Fore
SplineSet
570 1200 m 2,0,-1
 930 1200 l 1,1,-1
 930 150 l 1,2,-1
 1080 150 l 1,3,-1
 1080 -150 l 1,4,-1
 930 -150 l 1,5,-1
 930 0 l 1,6,-1
 150 0 l 1,7,-1
 147 -150 l 1,8,-1
 0 -150 l 1,9,-1
 0 150 l 1,10,-1
 150 150 l 1,11,-1
 360 1034 l 2,12,13
 399 1200 399 1200 570 1200 c 2,0,-1
304 150 m 1,14,-1
 780 150 l 1,15,-1
 780 1050 l 1,16,-1
 570 1050 l 2,17,18
 518 1050 518 1050 506 999 c 2,19,-1
 304 150 l 1,14,-1
EndSplineSet
EndChar

StartChar: "+AMUA"
Encoding: 1045 1045 118
Width: 900
Flags: W
LayerCount: 2
Fore
SplineSet
645 1200 m 1,0,-1
 645 1050 l 1,1,-1
 150 1050 l 1,2,-1
 150 750 l 1,3,-1
 570 750 l 1,4,-1
 570 600 l 1,5,-1
 150 600 l 1,6,-1
 150 150 l 1,7,-1
 720 150 l 1,8,-1
 720 0 l 1,9,-1
 0 0 l 1,10,-1
 0 1200 l 1,11,-1
 645 1200 l 1,0,-1
EndSplineSet
EndChar

StartChar: "+AMYA"
Encoding: 1046 1046 119
Width: 1260
Flags: W
LayerCount: 2
Fore
SplineSet
168 1200 m 1,0,-1
 394 750 l 1,1,-1
 465 750 l 1,2,-1
 465 1200 l 1,3,-1
 614 1200 l 1,4,-1
 614 750 l 1,5,-1
 686 750 l 1,6,-1
 912 1200 l 1,7,-1
 1080 1200 l 1,8,-1
 816 675 l 1,9,-1
 1080 0 l 1,10,-1
 919 0 l 1,11,-1
 684 600 l 1,12,-1
 614 600 l 1,13,-1
 614 0 l 1,14,-1
 465 0 l 1,15,-1
 465 600 l 1,16,-1
 396 600 l 1,17,-1
 161 0 l 1,18,-1
 0 0 l 1,19,-1
 264 675 l 1,20,-1
 0 1200 l 1,21,-1
 168 1200 l 1,0,-1
EndSplineSet
EndChar

StartChar: "+AMcA"
Encoding: 1047 1047 120
Width: 900
Flags: W
LayerCount: 2
Fore
SplineSet
614.5 1094.5 m 128,-1,1
 720 989 720 989 720 840 c 0,2,3
 720 710 720 710 609 600 c 1,4,5
 720 491 720 491 720 360 c 0,6,7
 720 211 720 211 614.5 105.5 c 128,-1,8
 509 0 509 0 360 0 c 256,9,10
 211 0 211 0 105.5 105.5 c 128,-1,11
 0 211 0 211 0 360 c 1,12,-1
 150 360 l 1,13,14
 150 273 150 273 211.5 211.5 c 128,-1,15
 273 150 273 150 360 150 c 128,-1,16
 447 150 447 150 508.5 211.5 c 128,-1,17
 570 273 570 273 570 360 c 0,18,19
 570 428 570 428 521.5 476.5 c 128,-1,20
 473 525 473 525 405 525 c 2,21,-1
 285 525 l 1,22,-1
 285 675 l 1,23,-1
 405 675 l 2,24,25
 473 675 473 675 521.5 723.5 c 128,-1,26
 570 772 570 772 570 850 c 0,27,28
 570 927 570 927 508.5 988.5 c 128,-1,29
 447 1050 447 1050 360 1050 c 128,-1,30
 273 1050 273 1050 211.5 988.5 c 128,-1,31
 150 927 150 927 150 840 c 1,32,-1
 0 840 l 1,33,34
 0 989 0 989 105.5 1094.5 c 128,-1,35
 211 1200 211 1200 360 1200 c 256,36,0
 509 1200 509 1200 614.5 1094.5 c 128,-1,1
EndSplineSet
EndChar

StartChar: "+AMgA"
Encoding: 1048 1048 121
Width: 900
Flags: W
LayerCount: 2
Fore
SplineSet
150 1200 m 1,0,-1
 150 324 l 1,1,-1
 565 1200 l 1,2,-1
 720 1200 l 1,3,-1
 720 0 l 1,4,-1
 570 0 l 1,5,-1
 570 876 l 1,6,-1
 165 0 l 1,7,-1
 0 1 l 1,8,-1
 0 1200 l 1,9,-1
 150 1200 l 1,0,-1
EndSplineSet
EndChar

StartChar: "+AMkA"
Encoding: 1049 1049 122
Width: 900
Flags: W
LayerCount: 2
Fore
SplineSet
495 1500 m 1,0,-1
 495 1350 l 1,1,-1
 225 1350 l 1,2,-1
 225 1500 l 1,3,-1
 495 1500 l 1,0,-1
150 1200 m 1,4,-1
 150 324 l 1,5,-1
 565 1200 l 1,6,-1
 720 1200 l 1,7,-1
 720 0 l 1,8,-1
 570 0 l 1,9,-1
 570 876 l 1,10,-1
 165 0 l 1,11,-1
 0 1 l 1,12,-1
 0 1200 l 1,13,-1
 150 1200 l 1,4,-1
EndSplineSet
EndChar

StartChar: "+AMoA"
Encoding: 1050 1050 123
Width: 900
Flags: W
LayerCount: 2
Fore
SplineSet
150 1200 m 1,0,-1
 150 658 l 1,1,-1
 536 1200 l 1,2,-1
 720 1200 l 1,3,-1
 435 800 l 1,4,-1
 720 0 l 1,5,-1
 561 0 l 1,6,-1
 329 651 l 1,7,-1
 150 400 l 1,8,-1
 150 0 l 1,9,-1
 0 0 l 1,10,-1
 0 1200 l 1,11,-1
 150 1200 l 1,0,-1
EndSplineSet
EndChar

StartChar: "+AMsA"
Encoding: 1051 1051 124
Width: 900
Flags: W
LayerCount: 2
Fore
SplineSet
444 1200 m 2,0,-1
 720 1200 l 1,1,-1
 720 0 l 1,2,-1
 570 0 l 1,3,-1
 570 1050 l 1,4,-1
 444 1050 l 2,5,6
 390 1050 390 1050 380 997 c 2,7,-1
 212 173 l 2,8,9
 176 0 176 0 0 0 c 1,10,-1
 0 150 l 1,11,12
 54 150 54 150 65 203 c 2,13,-1
 237 1027 l 1,14,15
 268 1200 268 1200 444 1200 c 2,0,-1
EndSplineSet
EndChar

StartChar: "+AMwA"
Encoding: 1052 1052 125
Width: 1260
Flags: W
LayerCount: 2
Fore
SplineSet
150 1200 m 1,0,-1
 540 600 l 1,1,-1
 930 1200 l 1,2,-1
 1080 1200 l 1,3,-1
 1080 0 l 1,4,-1
 930 0 l 1,5,-1
 930 925 l 1,6,-1
 540 325 l 1,7,-1
 150 925 l 1,8,-1
 150 0 l 1,9,-1
 0 0 l 1,10,-1
 0 1200 l 1,11,-1
 150 1200 l 1,0,-1
EndSplineSet
EndChar

StartChar: "+AM0A"
Encoding: 1053 1053 126
Width: 900
Flags: W
LayerCount: 2
Fore
SplineSet
150 1200 m 1,0,-1
 150 750 l 1,1,-1
 570 750 l 1,2,-1
 570 1200 l 1,3,-1
 720 1200 l 1,4,-1
 720 0 l 1,5,-1
 570 0 l 1,6,-1
 570 600 l 1,7,-1
 150 600 l 1,8,-1
 150 0 l 1,9,-1
 0 0 l 1,10,-1
 0 1200 l 1,11,-1
 150 1200 l 1,0,-1
EndSplineSet
EndChar

StartChar: "+AM4A"
Encoding: 1054 1054 127
Width: 900
Flags: W
LayerCount: 2
Fore
SplineSet
360 1200 m 256,0,1
 509 1200 509 1200 614.5 1094.5 c 128,-1,2
 720 989 720 989 720 840 c 2,3,-1
 720 360 l 2,4,5
 720 211 720 211 614.5 105.5 c 128,-1,6
 509 0 509 0 360 0 c 256,7,8
 211 0 211 0 105.5 105.5 c 128,-1,9
 0 211 0 211 0 360 c 2,10,-1
 0 840 l 2,11,12
 0 989 0 989 105.5 1094.5 c 128,-1,13
 211 1200 211 1200 360 1200 c 256,0,1
150 840 m 2,14,-1
 150 360 l 2,15,16
 150 273 150 273 211.5 211.5 c 128,-1,17
 273 150 273 150 360 150 c 256,18,19
 447 150 447 150 508.5 211.5 c 128,-1,20
 570 273 570 273 570 360 c 2,21,-1
 570 840 l 2,22,23
 570 927 570 927 508.5 988.5 c 128,-1,24
 447 1050 447 1050 360 1050 c 256,25,26
 273 1050 273 1050 211.5 988.5 c 128,-1,27
 150 927 150 927 150 840 c 2,14,-1
EndSplineSet
EndChar

StartChar: "+AM8A"
Encoding: 1055 1055 128
Width: 900
Flags: W
LayerCount: 2
Fore
SplineSet
720 1200 m 1,0,-1
 720 0 l 1,1,-1
 570 0 l 1,2,-1
 570 1050 l 1,3,-1
 150 1050 l 1,4,-1
 150 0 l 1,5,-1
 0 0 l 1,6,-1
 0 1200 l 1,7,-1
 720 1200 l 1,0,-1
EndSplineSet
EndChar

StartChar: "+ANAA"
Encoding: 1056 1056 129
Width: 900
Flags: W
LayerCount: 2
Fore
SplineSet
360 1200 m 2,0,1
 509 1200 509 1200 614.5 1094.5 c 128,-1,2
 720 989 720 989 720 840 c 2,3,-1
 720 810 l 2,4,5
 720 661 720 661 614.5 555.5 c 128,-1,6
 509 450 509 450 360 450 c 2,7,-1
 150 450 l 1,8,-1
 150 0 l 1,9,-1
 0 0 l 1,10,-1
 0 1200 l 1,11,-1
 360 1200 l 2,0,1
150 1050 m 1,12,-1
 150 600 l 1,13,-1
 360 600 l 2,14,15
 447 600 447 600 508.5 661.5 c 128,-1,16
 570 723 570 723 570 810 c 2,17,-1
 570 840 l 2,18,19
 570 927 570 927 508.5 988.5 c 128,-1,20
 447 1050 447 1050 360 1050 c 2,21,-1
 150 1050 l 1,12,-1
EndSplineSet
EndChar

StartChar: "+ANEA"
Encoding: 1057 1057 130
Width: 900
Flags: W
LayerCount: 2
Fore
SplineSet
720 360 m 1,0,1
 720 211 720 211 614.5 105.5 c 128,-1,2
 509 0 509 0 360 0 c 256,3,4
 211 0 211 0 105.5 105.5 c 128,-1,5
 0 211 0 211 0 360 c 2,6,-1
 0 840 l 2,7,8
 0 989 0 989 105.5 1094.5 c 128,-1,9
 211 1200 211 1200 360 1200 c 256,10,11
 509 1200 509 1200 614.5 1094.5 c 128,-1,12
 720 989 720 989 720 840 c 1,13,-1
 570 840 l 1,14,15
 570 927 570 927 508.5 988.5 c 128,-1,16
 447 1050 447 1050 360 1050 c 256,17,18
 273 1050 273 1050 211.5 988.5 c 128,-1,19
 150 927 150 927 150 840 c 2,20,-1
 150 360 l 2,21,22
 150 273 150 273 211.5 211.5 c 128,-1,23
 273 150 273 150 360 150 c 256,24,25
 447 150 447 150 508.5 211.5 c 128,-1,26
 570 273 570 273 570 360 c 1,27,-1
 720 360 l 1,0,1
EndSplineSet
EndChar

StartChar: "+ANIA"
Encoding: 1058 1058 131
Width: 900
Flags: W
LayerCount: 2
Fore
SplineSet
720 1200 m 1,0,-1
 720 1050 l 1,1,-1
 435 1050 l 1,2,-1
 435 0 l 1,3,-1
 285 0 l 1,4,-1
 285 1050 l 1,5,-1
 0 1050 l 1,6,-1
 0 1200 l 1,7,-1
 720 1200 l 1,0,-1
EndSplineSet
EndChar

StartChar: "+ANMA"
Encoding: 1059 1059 132
Width: 900
Flags: W
LayerCount: 2
Fore
SplineSet
151 1200 m 1,0,-1
 246 606 l 2,1,2
 249 584 249 584 266.5 567 c 128,-1,3
 284 550 284 550 311 550 c 2,4,-1
 414 550 l 1,5,-1
 565 1200 l 1,6,-1
 720 1200 l 1,7,-1
 506 283 l 2,8,9
 481 179 481 179 389.5 89.5 c 128,-1,10
 298 0 298 0 149 0 c 1,11,-1
 150 149 l 1,12,13
 236 150 236 150 290.5 202.5 c 128,-1,14
 345 255 345 255 359 317 c 2,15,-1
 379 400 l 1,16,-1
 311 400 l 2,17,18
 222 400 222 400 165.5 456.5 c 128,-1,19
 109 513 109 513 98 582 c 2,20,-1
 0 1200 l 1,21,-1
 151 1200 l 1,0,-1
EndSplineSet
EndChar

StartChar: "+ANQA"
Encoding: 1060 1060 133
Width: 1260
Flags: W
LayerCount: 2
Fore
SplineSet
465 1200 m 1,0,-1
 615 1200 l 1,1,-1
 615 1050 l 1,2,-1
 720 1050 l 2,3,4
 869 1050 869 1050 974.5 944.5 c 128,-1,5
 1080 839 1080 839 1080 690 c 2,6,-1
 1080 660 l 2,7,8
 1080 511 1080 511 974.5 405.5 c 128,-1,9
 869 300 869 300 720 300 c 2,10,-1
 615 300 l 1,11,-1
 615 0 l 1,12,-1
 465 0 l 1,13,-1
 465 300 l 1,14,-1
 360 300 l 2,15,16
 211 300 211 300 105.5 405.5 c 128,-1,17
 0 511 0 511 0 660 c 2,18,-1
 0 690 l 2,19,20
 0 839 0 839 105.5 944.5 c 128,-1,21
 211 1050 211 1050 360 1050 c 2,22,-1
 465 1050 l 1,23,-1
 465 1200 l 1,0,-1
150 690 m 2,24,-1
 150 660 l 2,25,26
 150 573 150 573 211.5 511.5 c 128,-1,27
 273 450 273 450 360 450 c 2,28,-1
 465 450 l 1,29,-1
 465 900 l 1,30,-1
 360 900 l 2,31,32
 273 900 273 900 211.5 838.5 c 128,-1,33
 150 777 150 777 150 690 c 2,24,-1
868.5 838.5 m 128,-1,35
 807 900 807 900 720 900 c 2,36,-1
 615 900 l 1,37,-1
 615 450 l 1,38,-1
 720 450 l 2,39,40
 807 450 807 450 868.5 511.5 c 128,-1,41
 930 573 930 573 930 660 c 2,42,-1
 930 690 l 2,43,34
 930 777 930 777 868.5 838.5 c 128,-1,35
EndSplineSet
EndChar

StartChar: "+ANUA"
Encoding: 1061 1061 134
Width: 900
Flags: W
LayerCount: 2
Fore
SplineSet
155 1200 m 1,0,-1
 360 779 l 1,1,-1
 555 1200 l 1,2,-1
 720 1200 l 1,3,-1
 443 600 l 1,4,-1
 720 0 l 1,5,-1
 555 0 l 1,6,-1
 360 421 l 1,7,-1
 155 0 l 1,8,-1
 0 0 l 1,9,-1
 277 600 l 1,10,-1
 3 1200 l 1,11,-1
 155 1200 l 1,0,-1
EndSplineSet
EndChar

StartChar: "+ANYA"
Encoding: 1062 1062 135
Width: 1050
Flags: W
LayerCount: 2
Fore
SplineSet
720 0 m 1,0,-1
 0 0 l 1,1,-1
 0 1200 l 1,2,-1
 150 1200 l 1,3,-1
 150 150 l 1,4,-1
 570 150 l 1,5,-1
 570 1200 l 1,6,-1
 720 1200 l 1,7,-1
 720 150 l 1,8,-1
 870 150 l 1,9,-1
 870 -150 l 1,10,-1
 720 -150 l 1,11,-1
 720 0 l 1,0,-1
EndSplineSet
EndChar

StartChar: "+ANcA"
Encoding: 1063 1063 136
Width: 900
Flags: W
LayerCount: 2
Fore
SplineSet
150 1200 m 1,0,-1
 150 810 l 2,1,2
 150 723 150 723 211.5 661.5 c 128,-1,3
 273 600 273 600 360 600 c 2,4,-1
 570 600 l 1,5,-1
 570 1200 l 1,6,-1
 720 1200 l 1,7,-1
 720 0 l 1,8,-1
 570 0 l 1,9,-1
 570 450 l 1,10,-1
 360 450 l 2,11,12
 211 450 211 450 105.5 555.5 c 128,-1,13
 0 661 0 661 0 810 c 2,14,-1
 0 1200 l 1,15,-1
 150 1200 l 1,0,-1
EndSplineSet
EndChar

StartChar: "+ANgA"
Encoding: 1064 1064 137
Width: 1260
Flags: W
LayerCount: 2
Fore
SplineSet
150 1200 m 1,0,-1
 150 150 l 1,1,-1
 465 150 l 1,2,-1
 465 1200 l 1,3,-1
 615 1200 l 1,4,-1
 615 150 l 1,5,-1
 930 150 l 1,6,-1
 930 1200 l 1,7,-1
 1080 1200 l 1,8,-1
 1080 0 l 1,9,-1
 0 0 l 1,10,-1
 0 1200 l 1,11,-1
 150 1200 l 1,0,-1
EndSplineSet
EndChar

StartChar: "+ANkA"
Encoding: 1065 1065 138
Width: 1410
Flags: W
LayerCount: 2
Fore
SplineSet
1080 0 m 1,0,-1
 0 0 l 1,1,-1
 0 1200 l 1,2,-1
 150 1200 l 1,3,-1
 150 150 l 1,4,-1
 465 150 l 1,5,-1
 465 1200 l 1,6,-1
 615 1200 l 1,7,-1
 615 150 l 1,8,-1
 930 150 l 1,9,-1
 930 1200 l 1,10,-1
 1080 1200 l 1,11,-1
 1080 150 l 1,12,-1
 1230 150 l 1,13,-1
 1230 -150 l 1,14,-1
 1080 -150 l 1,15,-1
 1080 0 l 1,0,-1
EndSplineSet
EndChar

StartChar: "+ANoA"
Encoding: 1066 1066 139
Width: 1260
Flags: W
LayerCount: 2
Fore
SplineSet
360 0 m 1,0,-1
 360 1050 l 1,1,-1
 0 1050 l 1,2,-1
 0 1200 l 1,3,-1
 510 1200 l 1,4,-1
 510 750 l 1,5,-1
 720 750 l 2,6,7
 869 750 869 750 974.5 644.5 c 128,-1,8
 1080 539 1080 539 1080 390 c 2,9,-1
 1080 360 l 2,10,11
 1080 211 1080 211 974.5 105.5 c 128,-1,12
 869 0 869 0 720 0 c 2,13,-1
 360 0 l 1,0,-1
720 150 m 2,14,15
 807 150 807 150 868.5 211.5 c 128,-1,16
 930 273 930 273 930 360 c 2,17,-1
 930 390 l 2,18,19
 930 477 930 477 868.5 538.5 c 128,-1,20
 807 600 807 600 720 600 c 2,21,-1
 510 600 l 1,22,-1
 510 150 l 1,23,-1
 720 150 l 2,14,15
EndSplineSet
EndChar

StartChar: "+ANsA"
Encoding: 1067 1067 140
Width: 1260
Flags: W
LayerCount: 2
Fore
SplineSet
930 1200 m 1,0,-1
 1080 1200 l 1,1,-1
 1080 0 l 1,2,-1
 930 0 l 1,3,-1
 930 1200 l 1,0,-1
0 0 m 1,4,-1
 0 1200 l 1,5,-1
 150 1200 l 1,6,-1
 150 750 l 1,7,-1
 360 750 l 2,8,9
 509 750 509 750 614.5 644.5 c 128,-1,10
 720 539 720 539 720 390 c 2,11,-1
 720 360 l 2,12,13
 720 211 720 211 614.5 105.5 c 128,-1,14
 509 0 509 0 360 0 c 2,15,-1
 0 0 l 1,4,-1
360 150 m 2,16,17
 447 150 447 150 508.5 211.5 c 128,-1,18
 570 273 570 273 570 360 c 2,19,-1
 570 390 l 2,20,21
 570 477 570 477 508.5 538.5 c 128,-1,22
 447 600 447 600 360 600 c 2,23,-1
 150 600 l 1,24,-1
 150 150 l 1,25,-1
 360 150 l 2,16,17
EndSplineSet
EndChar

StartChar: "+ANwA"
Encoding: 1068 1068 141
Width: 900
Flags: W
LayerCount: 2
Fore
SplineSet
0 0 m 1,0,-1
 0 1200 l 1,1,-1
 150 1200 l 1,2,-1
 150 750 l 1,3,-1
 360 750 l 2,4,5
 509 750 509 750 614.5 644.5 c 128,-1,6
 720 539 720 539 720 390 c 2,7,-1
 720 360 l 2,8,9
 720 211 720 211 614.5 105.5 c 128,-1,10
 509 0 509 0 360 0 c 2,11,-1
 0 0 l 1,0,-1
360 150 m 2,12,13
 447 150 447 150 508.5 211.5 c 128,-1,14
 570 273 570 273 570 360 c 2,15,-1
 570 390 l 2,16,17
 570 477 570 477 508.5 538.5 c 128,-1,18
 447 600 447 600 360 600 c 2,19,-1
 150 600 l 1,20,-1
 150 150 l 1,21,-1
 360 150 l 2,12,13
EndSplineSet
EndChar

StartChar: "+AN0A"
Encoding: 1069 1069 142
Width: 900
Flags: W
LayerCount: 2
Fore
SplineSet
570 750 m 1,0,-1
 570 840 l 2,1,2
 570 927 570 927 508.5 988.5 c 128,-1,3
 447 1050 447 1050 360 1050 c 256,4,5
 273 1050 273 1050 211.5 988.5 c 128,-1,6
 150 927 150 927 150 840 c 1,7,-1
 0 840 l 1,8,9
 0 989 0 989 105.5 1094.5 c 128,-1,10
 211 1200 211 1200 360 1200 c 256,11,12
 509 1200 509 1200 614.5 1094.5 c 128,-1,13
 720 989 720 989 720 840 c 2,14,-1
 720 360 l 2,15,16
 720 211 720 211 614.5 105.5 c 128,-1,17
 509 0 509 0 360 0 c 256,18,19
 211 0 211 0 105.5 105.5 c 128,-1,20
 0 211 0 211 0 360 c 1,21,-1
 150 360 l 1,22,23
 150 273 150 273 211.5 211.5 c 128,-1,24
 273 150 273 150 360 150 c 256,25,26
 447 150 447 150 508.5 211.5 c 128,-1,27
 570 273 570 273 570 360 c 2,28,-1
 570 600 l 1,29,-1
 285 600 l 1,30,-1
 285 750 l 1,31,-1
 570 750 l 1,0,-1
EndSplineSet
EndChar

StartChar: "+AN4A"
Encoding: 1070 1070 143
Width: 1260
Flags: W
LayerCount: 2
Fore
SplineSet
510 840 m 2,0,-1
 510 360 l 2,1,2
 510 273 510 273 571.5 211.5 c 128,-1,3
 633 150 633 150 720 150 c 256,4,5
 807 150 807 150 868.5 211.5 c 128,-1,6
 930 273 930 273 930 360 c 2,7,-1
 930 840 l 2,8,9
 930 927 930 927 868.5 988.5 c 128,-1,10
 807 1050 807 1050 720 1050 c 256,11,12
 633 1050 633 1050 571.5 988.5 c 128,-1,13
 510 927 510 927 510 840 c 2,0,-1
150 600 m 1,14,-1
 150 0 l 1,15,-1
 0 0 l 1,16,-1
 0 1200 l 1,17,-1
 150 1200 l 1,18,-1
 150 750 l 1,19,-1
 360 750 l 1,20,-1
 360 840 l 2,21,22
 360 989 360 989 465.5 1094.5 c 128,-1,23
 571 1200 571 1200 720 1200 c 256,24,25
 869 1200 869 1200 974.5 1094.5 c 128,-1,26
 1080 989 1080 989 1080 840 c 2,27,-1
 1080 360 l 2,28,29
 1080 211 1080 211 974.5 105.5 c 128,-1,30
 869 0 869 0 720 0 c 256,31,32
 571 0 571 0 465.5 105.5 c 128,-1,33
 360 211 360 211 360 360 c 2,34,-1
 360 600 l 1,35,-1
 150 600 l 1,14,-1
EndSplineSet
EndChar

StartChar: "+AN8A"
Encoding: 1071 1071 144
Width: 900
Flags: W
LayerCount: 2
Fore
SplineSet
360 1050 m 2,0,1
 273 1050 273 1050 211.5 988.5 c 128,-1,2
 150 927 150 927 150 840 c 2,3,-1
 150 810 l 2,4,5
 150 723 150 723 211.5 661.5 c 128,-1,6
 273 600 273 600 360 600 c 2,7,-1
 570 600 l 1,8,-1
 570 1050 l 1,9,-1
 360 1050 l 2,0,1
214 480 m 1,10,11
 155 506 155 506 106 556 c 0,12,13
 0 661 0 661 0 810 c 2,14,-1
 0 840 l 2,15,16
 0 989 0 989 105.5 1094.5 c 128,-1,17
 211 1200 211 1200 360 1200 c 2,18,-1
 720 1200 l 1,19,-1
 720 0 l 1,20,-1
 570 0 l 1,21,-1
 570 450 l 1,22,-1
 364 450 l 1,23,-1
 164 0 l 1,24,-1
 0 0 l 1,25,-1
 214 480 l 1,10,11
EndSplineSet
EndChar

StartChar: "+AOAA"
Encoding: 1072 1072 145
Width: 677
Flags: W
LayerCount: 2
Fore
SplineSet
247 800 m 0,0,1
 349 800 349 800 421 728 c 128,-1,2
 493 656 493 656 493 553 c 2,3,-1
 493 202 l 2,4,5
 493 161 493 161 506 148 c 128,-1,6
 519 135 519 135 521 134 c 2,7,-1
 521 0 l 1,8,9
 470 15 470 15 447.5 37.5 c 128,-1,10
 425 60 425 60 418 69 c 1,11,12
 346 0 346 0 245 0 c 256,13,14
 144 0 144 0 72 72 c 128,-1,15
 0 144 0 144 0 247 c 0,16,17
 0 349 0 349 72 421 c 128,-1,18
 144 493 144 493 247 493 c 2,19,-1
 373 493 l 1,20,-1
 373 553 l 2,21,22
 373 606 373 606 336 643 c 128,-1,23
 299 680 299 680 246.5 680 c 128,-1,24
 194 680 194 680 157 643 c 128,-1,25
 120 606 120 606 120 553 c 1,26,-1
 0 553 l 1,27,28
 0 656 0 656 72 728 c 128,-1,29
 144 800 144 800 247 800 c 0,0,1
157 336 m 128,-1,31
 120 299 120 299 120 246.5 c 128,-1,32
 120 194 120 194 157 157 c 128,-1,33
 194 120 194 120 246.5 120 c 128,-1,34
 299 120 299 120 336 157 c 128,-1,35
 373 194 373 194 373 247 c 2,36,-1
 373 373 l 1,37,-1
 239 373 l 2,38,30
 194 373 194 373 157 336 c 128,-1,31
EndSplineSet
EndChar

StartChar: "+AOEA"
Encoding: 1073 1073 146
Width: 649
Flags: W
LayerCount: 2
Fore
SplineSet
363 1200 m 1,0,-1
 493 1200 l 1,1,2
 476 1138 476 1138 417 1079 c 128,-1,3
 358 1020 358 1020 256 1020 c 2,4,-1
 247 1020 l 2,5,6
 194 1020 194 1020 157 983 c 128,-1,7
 120 946 120 946 120 893 c 2,8,-1
 120 774 l 1,9,10
 178 800 178 800 263.5 800 c 128,-1,11
 349 800 349 800 421 728 c 128,-1,12
 493 656 493 656 493 553 c 2,13,-1
 493 247 l 2,14,15
 493 144 493 144 421 72 c 128,-1,16
 349 0 349 0 247 0 c 0,17,18
 144 0 144 0 72 72 c 128,-1,19
 0 144 0 144 0 247 c 2,20,-1
 0 893 l 2,21,22
 0 996 0 996 72 1068 c 128,-1,23
 144 1140 144 1140 247 1140 c 2,24,-1
 256 1140 l 2,25,26
 308 1140 308 1140 332 1163.5 c 128,-1,27
 356 1187 356 1187 363 1200 c 1,0,-1
120 553 m 2,29,-1
 120 247 l 2,30,31
 120 194 120 194 157 157 c 128,-1,32
 194 120 194 120 246.5 120 c 128,-1,33
 299 120 299 120 336 157 c 128,-1,34
 373 194 373 194 373 247 c 2,35,-1
 373 553 l 2,36,37
 373 606 373 606 336 643 c 128,-1,38
 299 680 299 680 246.5 680 c 128,-1,39
 194 680 194 680 157 643 c 128,-1,28
 120 606 120 606 120 553 c 2,29,-1
EndSplineSet
EndChar

StartChar: "+AOIA"
Encoding: 1074 1074 147
Width: 649
Flags: W
LayerCount: 2
Fore
SplineSet
247 1200 m 0,0,1
 349 1200 349 1200 421 1128 c 128,-1,2
 493 1056 493 1056 493 953 c 0,3,4
 493 851 493 851 450 808 c 128,-1,5
 407 765 407 765 391 753 c 1,6,7
 407 742 407 742 450 699 c 128,-1,8
 493 656 493 656 493 553 c 2,9,-1
 493 247 l 2,10,11
 493 144 493 144 421 72 c 128,-1,12
 349 0 349 0 247 0 c 0,13,14
 144 0 144 0 72 72 c 128,-1,15
 0 144 0 144 0 247 c 2,16,-1
 0 953 l 2,17,18
 0 1056 0 1056 72 1128 c 128,-1,19
 144 1200 144 1200 247 1200 c 0,0,1
157 1043 m 128,-1,21
 120 1006 120 1006 120 953 c 2,22,-1
 120 765 l 1,23,-1
 294 836 l 2,24,25
 318 846 318 846 345.5 873.5 c 128,-1,26
 373 901 373 901 373 953.5 c 128,-1,27
 373 1006 373 1006 336 1043 c 128,-1,28
 299 1080 299 1080 247 1080 c 0,29,20
 194 1080 194 1080 157 1043 c 128,-1,21
157 644.5 m 128,-1,31
 120 606 120 606 120 553 c 2,32,-1
 120 247 l 2,33,34
 120 194 120 194 157 157 c 128,-1,35
 194 120 194 120 247 120 c 0,36,37
 299 120 299 120 336 157 c 128,-1,38
 373 194 373 194 373 247 c 2,39,-1
 373 553 l 2,40,41
 373 606 373 606 336 644.5 c 128,-1,42
 299 683 299 683 247 683 c 0,43,30
 194 683 194 683 157 644.5 c 128,-1,31
EndSplineSet
EndChar

StartChar: "+AOMA"
Encoding: 1075 1075 148
Width: 649
Flags: W
LayerCount: 2
Fore
SplineSet
247 800 m 0,0,1
 327 800 327 800 384.5 743 c 128,-1,2
 442 686 442 686 442 605 c 128,-1,3
 442 524 442 524 402 484 c 128,-1,4
 362 444 362 444 332 429 c 2,5,-1
 191 360 l 2,6,7
 172 351 172 351 146 325 c 128,-1,8
 120 299 120 299 120 246.5 c 128,-1,9
 120 194 120 194 157 157 c 128,-1,10
 194 120 194 120 265 120 c 128,-1,11
 336 120 336 120 354.5 157 c 128,-1,12
 373 194 373 194 373 247 c 1,13,-1
 493 247 l 1,14,15
 493 144 493 144 421 72 c 128,-1,16
 349 0 349 0 247 0 c 0,17,18
 144 0 144 0 72 72 c 128,-1,19
 0 144 0 144 0 247 c 0,20,21
 0 349 0 349 50.5 399.5 c 128,-1,22
 101 450 101 450 138 468 c 2,23,-1
 280 537 l 2,24,25
 291 543 291 543 306.5 558.5 c 128,-1,26
 322 574 322 574 322 605 c 128,-1,27
 322 636 322 636 300 658 c 128,-1,28
 278 680 278 680 246.5 680 c 128,-1,29
 215 680 215 680 193 658 c 128,-1,30
 171 636 171 636 171 605 c 1,31,-1
 51 605 l 1,32,33
 51 686 51 686 108.5 743 c 128,-1,34
 166 800 166 800 247 800 c 0,0,1
EndSplineSet
EndChar

StartChar: "+AOQA"
Encoding: 1076 1076 149
Width: 649
Flags: W
LayerCount: 2
Fore
SplineSet
120 553 m 2,1,-1
 120 247 l 2,2,3
 120 194 120 194 157 157 c 128,-1,4
 194 120 194 120 246.5 120 c 128,-1,5
 299 120 299 120 336 157 c 128,-1,6
 373 194 373 194 373 247 c 2,7,-1
 373 553 l 2,8,9
 373 606 373 606 336 643 c 128,-1,10
 299 680 299 680 246.5 680 c 128,-1,11
 194 680 194 680 157 643 c 128,-1,0
 120 606 120 606 120 553 c 2,1,-1
72 1128 m 1,12,13
 144 1200 144 1200 246 1200 c 0,14,15
 349 1200 349 1200 421 1128 c 128,-1,16
 493 1056 493 1056 493 953 c 2,17,-1
 493 247 l 2,18,19
 493 144 493 144 421 72 c 128,-1,20
 349 0 349 0 246 0 c 0,21,22
 144 0 144 0 72 72 c 128,-1,23
 0 144 0 144 0 247 c 2,24,-1
 0 553 l 2,25,26
 0 656 0 656 72 728 c 128,-1,27
 144 800 144 800 229.5 800 c 128,-1,28
 315 800 315 800 373 774 c 1,29,-1
 373 953 l 2,30,31
 373 1006 373 1006 336 1043 c 128,-1,32
 299 1080 299 1080 246.5 1080 c 128,-1,33
 194 1080 194 1080 157 1043 c 1,34,-1
 72 1128 l 1,12,13
EndSplineSet
EndChar

StartChar: "+AOUA"
Encoding: 1077 1077 150
Width: 649
Flags: W
LayerCount: 2
Fore
SplineSet
120 247 m 2,0,1
 120 194 120 194 157 157 c 128,-1,2
 194 120 194 120 246.5 120 c 128,-1,3
 299 120 299 120 336 157 c 128,-1,4
 373 194 373 194 373 247 c 1,5,-1
 493 247 l 1,6,7
 493 144 493 144 421 72 c 128,-1,8
 349 0 349 0 246 0 c 0,9,10
 144 0 144 0 72 72 c 128,-1,11
 0 144 0 144 0 247 c 2,12,-1
 0 553 l 2,13,14
 0 656 0 656 72 728 c 128,-1,15
 144 800 144 800 246 800 c 0,16,17
 349 800 349 800 421 728 c 128,-1,18
 493 656 493 656 493 553 c 2,19,-1
 493 340 l 1,20,-1
 120 340 l 1,21,-1
 120 247 l 2,0,1
373 553 m 2,22,23
 373 606 373 606 336 643 c 128,-1,24
 299 680 299 680 246.5 680 c 128,-1,25
 194 680 194 680 157 643 c 128,-1,26
 120 606 120 606 120 553 c 2,27,-1
 120 460 l 1,28,-1
 373 460 l 1,29,-1
 373 553 l 2,22,23
EndSplineSet
EndChar

StartChar: "+AOYA"
Encoding: 1078 1078 151
Width: 889
Flags: W
LayerCount: 2
Fore
SplineSet
0 800 m 1,0,-1
 138 800 l 1,1,-1
 296 520 l 1,2,-1
 307 520 l 1,3,-1
 307 800 l 1,4,-1
 427 800 l 1,5,-1
 427 520 l 1,6,-1
 437 520 l 1,7,-1
 595 800 l 1,8,-1
 733 800 l 1,9,-1
 541 460 l 1,10,-1
 733 0 l 1,11,-1
 603 0 l 1,12,-1
 436 400 l 1,13,-1
 427 400 l 1,14,-1
 427 0 l 1,15,-1
 307 0 l 1,16,-1
 307 400 l 1,17,-1
 297 400 l 1,18,-1
 130 0 l 1,19,-1
 0 0 l 1,20,-1
 192 460 l 1,21,-1
 0 800 l 1,0,-1
EndSplineSet
EndChar

StartChar: "+AOcA"
Encoding: 1079 1079 152
Width: 649
Flags: W
LayerCount: 2
Fore
SplineSet
247 493 m 2,0,1
 285 493 285 493 312.5 520.5 c 128,-1,2
 340 548 340 548 340 586 c 0,3,4
 340 626 340 626 313 653 c 128,-1,5
 286 680 286 680 247 680 c 256,6,7
 208 680 208 680 180.5 653 c 128,-1,8
 153 626 153 626 153 586 c 1,9,-1
 34 586 l 1,10,11
 34 675 34 675 96 737.5 c 128,-1,12
 158 800 158 800 247 800 c 256,13,14
 336 800 336 800 398.5 737.5 c 128,-1,15
 461 675 461 675 461 586 c 0,16,17
 461 500 461 500 402 439 c 1,18,19
 412 431 412 431 422 421 c 0,20,21
 493 349 493 349 493 247 c 0,22,23
 493 144 493 144 421 72 c 128,-1,24
 349 0 349 0 247 0 c 0,25,26
 144 0 144 0 72 72 c 128,-1,27
 0 144 0 144 0 247 c 1,28,-1
 119 247 l 1,29,30
 119 194 119 194 156 157 c 128,-1,31
 193 120 193 120 247 120 c 0,32,33
 298 120 298 120 335 157 c 128,-1,34
 372 194 372 194 372 247 c 256,35,36
 372 300 372 300 335.5 336.5 c 128,-1,37
 299 373 299 373 247 373 c 2,38,-1
 187 373 l 1,39,-1
 187 493 l 1,40,-1
 247 493 l 2,0,1
EndSplineSet
EndChar

StartChar: "+AOgA"
Encoding: 1080 1080 153
Width: 677
Flags: W
LayerCount: 2
Fore
SplineSet
445 51 m 0,1,2
 433 63 433 63 424 75 c 1,3,4
 422 73 422 73 421 72 c 0,5,6
 349 0 349 0 246 0 c 0,7,8
 144 0 144 0 72 72 c 128,-1,9
 0 144 0 144 0 247 c 2,10,-1
 0 800 l 1,11,-1
 120 800 l 1,12,-1
 120 247 l 2,13,14
 120 194 120 194 157 157 c 128,-1,15
 194 120 194 120 246.5 120 c 128,-1,16
 299 120 299 120 336 157 c 128,-1,17
 373 194 373 194 373 247 c 2,18,-1
 373 800 l 1,19,-1
 493 800 l 1,20,-1
 493 226 l 2,21,22
 493 180 493 180 521 146 c 1,23,-1
 521 0 l 1,24,0
 479 17 479 17 445 51 c 0,1,2
EndSplineSet
EndChar

StartChar: "+AOkA"
Encoding: 1081 1081 154
Width: 677
Flags: W
LayerCount: 2
Fore
SplineSet
445 51 m 0,1,2
 433 63 433 63 424 75 c 1,3,4
 422 73 422 73 421 72 c 0,5,6
 349 0 349 0 246 0 c 0,7,8
 144 0 144 0 72 72 c 128,-1,9
 0 144 0 144 0 247 c 2,10,-1
 0 800 l 1,11,-1
 120 800 l 1,12,-1
 120 247 l 2,13,14
 120 194 120 194 157 157 c 128,-1,15
 194 120 194 120 246.5 120 c 128,-1,16
 299 120 299 120 336 157 c 128,-1,17
 373 194 373 194 373 247 c 2,18,-1
 373 800 l 1,19,-1
 493 800 l 1,20,-1
 493 226 l 2,21,22
 493 180 493 180 521 146 c 1,23,-1
 521 0 l 1,24,0
 479 17 479 17 445 51 c 0,1,2
180 920 m 1,25,-1
 180 1040 l 1,26,-1
 313 1040 l 1,27,-1
 313 920 l 1,28,-1
 180 920 l 1,25,-1
EndSplineSet
EndChar

StartChar: "+AOoA"
Encoding: 1082 1082 155
Width: 649
Flags: W
LayerCount: 2
Fore
SplineSet
120 800 m 1,0,-1
 120 456 l 1,1,-1
 349 800 l 1,2,-1
 493 800 l 1,3,-1
 333 560 l 1,4,-1
 493 0 l 1,5,-1
 368 0 l 1,6,-1
 246 429 l 1,7,-1
 120 240 l 1,8,-1
 120 0 l 1,9,-1
 0 0 l 1,10,-1
 0 800 l 1,11,-1
 120 800 l 1,0,-1
EndSplineSet
EndChar

StartChar: "+AOsA"
Encoding: 1083 1083 156
Width: 649
Flags: W
LayerCount: 2
Fore
SplineSet
301 800 m 2,0,-1
 493 800 l 1,1,-1
 493 0 l 1,2,-1
 373 0 l 1,3,-1
 373 680 l 1,4,-1
 301 680 l 2,5,6
 267 680 267 680 242 655.5 c 128,-1,7
 217 631 217 631 217 596 c 2,8,-1
 217 204 l 2,9,10
 217 119 217 119 157.5 59.5 c 128,-1,11
 98 0 98 0 13 0 c 2,12,-1
 0 0 l 1,13,-1
 0 120 l 1,14,-1
 13 120 l 2,15,16
 47 120 47 120 72 144.5 c 128,-1,17
 97 169 97 169 97 204 c 2,18,-1
 97 596 l 2,19,20
 97 681 97 681 156.5 740.5 c 128,-1,21
 216 800 216 800 301 800 c 2,0,-1
EndSplineSet
EndChar

StartChar: "+AOwA"
Encoding: 1084 1084 157
Width: 889
Flags: W
LayerCount: 2
Fore
SplineSet
138 800 m 1,0,-1
 367 400 l 1,1,-1
 595 800 l 1,2,-1
 733 800 l 1,3,-1
 733 0 l 1,4,-1
 613 0 l 1,5,-1
 613 568 l 1,6,-1
 367 158 l 1,7,-1
 120 568 l 1,8,-1
 120 0 l 1,9,-1
 0 0 l 1,10,-1
 0 800 l 1,11,-1
 138 800 l 1,0,-1
EndSplineSet
EndChar

StartChar: "+AO0A"
Encoding: 1085 1085 158
Width: 648
Flags: W
LayerCount: 2
Fore
SplineSet
120 400 m 1,0,-1
 120 0 l 1,1,-1
 0 0 l 1,2,-1
 0 800 l 1,3,-1
 120 800 l 1,4,-1
 120 520 l 1,5,-1
 372 520 l 1,6,-1
 372 800 l 1,7,-1
 492 800 l 1,8,-1
 492 0 l 1,9,-1
 372 0 l 1,10,-1
 372 400 l 1,11,-1
 120 400 l 1,0,-1
EndSplineSet
EndChar

StartChar: "+AO4A"
Encoding: 1086 1086 159
Width: 649
Flags: W
LayerCount: 2
Fore
SplineSet
120 247 m 2,0,1
 120 194 120 194 157 157 c 128,-1,2
 194 120 194 120 246.5 120 c 128,-1,3
 299 120 299 120 336 157 c 128,-1,4
 373 194 373 194 373 247 c 2,5,-1
 373 553 l 2,6,7
 373 606 373 606 336 643 c 128,-1,8
 299 680 299 680 246.5 680 c 128,-1,9
 194 680 194 680 157 643 c 128,-1,10
 120 606 120 606 120 553 c 2,11,-1
 120 247 l 2,0,1
493 247 m 2,12,13
 493 144 493 144 421 72 c 128,-1,14
 349 0 349 0 246 0 c 0,15,16
 144 0 144 0 72 72 c 128,-1,17
 0 144 0 144 0 247 c 2,18,-1
 0 553 l 2,19,20
 0 656 0 656 72 728 c 128,-1,21
 144 800 144 800 246 800 c 0,22,23
 349 800 349 800 421 728 c 128,-1,24
 493 656 493 656 493 553 c 2,25,-1
 493 247 l 2,12,13
EndSplineSet
EndChar

StartChar: "+AO8A"
Encoding: 1087 1087 160
Width: 677
Flags: W
LayerCount: 2
Fore
SplineSet
76 749 m 0,1,2
 88 737 88 737 97 725 c 1,3,4
 99 727 99 727 100 728 c 0,5,6
 172 800 172 800 275 800 c 0,7,8
 377 800 377 800 449 728 c 128,-1,9
 521 656 521 656 521 553 c 2,10,-1
 521 0 l 1,11,-1
 401 0 l 1,12,-1
 401 553 l 2,13,14
 401 606 401 606 364 643 c 128,-1,15
 327 680 327 680 274.5 680 c 128,-1,16
 222 680 222 680 185 643 c 128,-1,17
 148 606 148 606 148 553 c 2,18,-1
 148 0 l 1,19,-1
 28 0 l 1,20,-1
 28 574 l 2,21,22
 28 620 28 620 0 654 c 1,23,-1
 0 800 l 1,24,0
 42 783 42 783 76 749 c 0,1,2
EndSplineSet
EndChar

StartChar: "+APAA"
Encoding: 1088 1088 161
Width: 649
Flags: W
LayerCount: 2
Fore
SplineSet
247 120 m 2,0,1
 299 120 299 120 336 157 c 256,2,3
 373 194 373 194 373 247 c 2,4,-1
 373 553 l 2,5,6
 373 606 373 606 336 643 c 256,7,8
 299 680 299 680 247 680 c 2,9,-1
 120 680 l 1,10,-1
 120 120 l 1,11,-1
 247 120 l 2,0,1
247 800 m 2,12,13
 349 800 349 800 421 728 c 128,-1,14
 493 656 493 656 493 553 c 2,15,-1
 493 247 l 2,16,17
 493 144 493 144 421 72 c 128,-1,18
 349 0 349 0 247 0 c 2,19,-1
 120 0 l 1,20,-1
 120 -400 l 1,21,-1
 0 -400 l 1,22,-1
 0 800 l 1,23,-1
 247 800 l 2,12,13
EndSplineSet
EndChar

StartChar: "+APEA"
Encoding: 1089 1089 162
Width: 649
Flags: W
LayerCount: 2
Fore
SplineSet
120 247 m 2,0,1
 120 194 120 194 157 157 c 128,-1,2
 194 120 194 120 246.5 120 c 128,-1,3
 299 120 299 120 336 157 c 128,-1,4
 373 194 373 194 373 247 c 1,5,-1
 493 247 l 1,6,7
 493 144 493 144 421 72 c 128,-1,8
 349 0 349 0 246 0 c 0,9,10
 144 0 144 0 72 72 c 128,-1,11
 0 144 0 144 0 247 c 2,12,-1
 0 553 l 2,13,14
 0 656 0 656 72 728 c 128,-1,15
 144 800 144 800 246 800 c 0,16,17
 349 800 349 800 421 728 c 128,-1,18
 493 656 493 656 493 553 c 1,19,-1
 373 553 l 1,20,21
 373 606 373 606 336 643 c 128,-1,22
 299 680 299 680 246.5 680 c 128,-1,23
 194 680 194 680 157 643 c 128,-1,24
 120 606 120 606 120 553 c 2,25,-1
 120 247 l 2,0,1
EndSplineSet
EndChar

StartChar: "+APIA"
Encoding: 1090 1090 163
Width: 889
Flags: W
LayerCount: 2
Fore
SplineSet
733 596 m 2,0,-1
 733 0 l 1,1,-1
 613 0 l 1,2,-1
 613 596 l 2,3,4
 613 631 613 631 588.5 655.5 c 128,-1,5
 564 680 564 680 529 680 c 0,6,7
 495 680 495 680 470 655.5 c 128,-1,8
 445 631 445 631 445 596 c 2,9,-1
 445 0 l 1,10,-1
 325 0 l 1,11,-1
 325 596 l 2,12,13
 325 631 325 631 300.5 655.5 c 128,-1,14
 276 680 276 680 241 680 c 0,15,16
 207 680 207 680 182 655.5 c 128,-1,17
 157 631 157 631 157 596 c 2,18,-1
 157 0 l 1,19,-1
 37 0 l 1,20,-1
 37 601 l 2,21,22
 37 636 37 636 12 660 c 0,23,24
 7 666 7 666 0 671 c 1,25,-1
 0 800 l 1,26,27
 55 788 55 788 97 745 c 0,28,29
 98 744 98 744 99 743 c 0,30,31
 158 800 158 800 241 800 c 0,32,33
 326 800 326 800 385 741 c 1,34,35
 444 800 444 800 529 800 c 256,36,37
 614 800 614 800 673.5 740.5 c 128,-1,38
 733 681 733 681 733 596 c 2,0,-1
EndSplineSet
EndChar

StartChar: "+APMA"
Encoding: 1091 1091 164
Width: 649
Flags: W
LayerCount: 2
Fore
SplineSet
185 -2 m 1,0,-1
 0 800 l 1,1,-1
 123 800 l 1,2,-1
 247 251 l 1,3,-1
 370 800 l 1,4,-1
 493 800 l 1,5,-1
 262 -228 l 1,6,7
 252 -292 252 -292 205 -340 c 0,8,9
 145 -400 145 -400 60 -400 c 1,10,-1
 60 -280 l 1,11,12
 94 -280 94 -280 119 -255 c 0,13,14
 137 -237 137 -237 142 -214 c 2,15,-1
 185 -2 l 1,0,-1
EndSplineSet
EndChar

StartChar: "+APQA"
Encoding: 1092 1092 165
Width: 889
Flags: W
LayerCount: 2
Fore
SplineSet
427 134 m 1,0,1
 454 120 454 120 487 120 c 0,2,3
 539 120 539 120 576 157 c 128,-1,4
 613 194 613 194 613 247 c 2,5,-1
 613 433 l 2,6,7
 613 486 613 486 576 523 c 128,-1,8
 539 560 539 560 487 560 c 0,9,10
 454 560 454 560 427 546 c 1,11,-1
 427 134 l 1,0,1
307 545 m 1,12,13
 280 560 280 560 247 560 c 0,14,15
 194 560 194 560 157 523 c 128,-1,16
 120 486 120 486 120 433 c 2,17,-1
 120 247 l 2,18,19
 120 194 120 194 157 157 c 128,-1,20
 194 120 194 120 247 120 c 0,21,22
 280 120 280 120 307 135 c 1,23,-1
 307 545 l 1,12,13
307 7 m 1,24,25
 278 0 278 0 246 0 c 0,26,27
 144 0 144 0 72 72 c 128,-1,28
 0 144 0 144 0 247 c 2,29,-1
 0 433 l 2,30,31
 0 536 0 536 72 608 c 128,-1,32
 144 680 144 680 246 680 c 0,33,34
 278 680 278 680 307 673 c 1,35,-1
 307 800 l 1,36,-1
 427 800 l 1,37,-1
 427 673 l 1,38,39
 456 680 456 680 487 680 c 0,40,41
 589 680 589 680 661 608 c 128,-1,42
 733 536 733 536 733 433 c 2,43,-1
 733 247 l 2,44,45
 733 144 733 144 661 72 c 128,-1,46
 589 0 589 0 487 0 c 0,47,48
 456 0 456 0 427 7 c 1,49,-1
 427 -400 l 1,50,-1
 307 -400 l 1,51,-1
 307 7 l 1,24,25
EndSplineSet
EndChar

StartChar: "+APUA"
Encoding: 1093 1093 166
Width: 649
Flags: W
LayerCount: 2
Fore
SplineSet
132 800 m 1,0,-1
 247 546 l 1,1,-1
 362 800 l 1,2,-1
 493 800 l 1,3,-1
 312 400 l 1,4,-1
 493 0 l 1,5,-1
 362 0 l 1,6,-1
 247 254 l 1,7,-1
 132 0 l 1,8,-1
 0 0 l 1,9,-1
 174 400 l 1,10,-1
 0 800 l 1,11,-1
 132 800 l 1,0,-1
EndSplineSet
EndChar

StartChar: "+APYA"
Encoding: 1094 1094 167
Width: 769
Flags: W
LayerCount: 2
Fore
SplineSet
433 26 m 0,1,2
 492 -34 492 -34 492 -119 c 1,3,-1
 613 -120 l 1,4,5
 613 15 613 15 519 110 c 0,6,7
 497 132 497 132 474 148 c 1,8,9
 493 194 493 194 493 247 c 2,10,-1
 493 800 l 1,11,-1
 373 800 l 1,12,-1
 373 247 l 2,13,14
 373 194 373 194 336 157 c 128,-1,15
 299 120 299 120 246.5 120 c 128,-1,16
 194 120 194 120 157 157 c 128,-1,17
 120 194 120 194 120 247 c 2,18,-1
 120 800 l 1,19,-1
 0 800 l 1,20,-1
 0 247 l 2,21,22
 0 144 0 144 72 72 c 128,-1,23
 144 0 144 0 246 0 c 0,24,25
 334 0 334 0 400 53 c 1,26,0
 417 42 417 42 433 26 c 0,1,2
EndSplineSet
EndChar

StartChar: "+APcA"
Encoding: 1095 1095 168
Width: 649
Flags: W
LayerCount: 2
Fore
SplineSet
120 800 m 1,0,-1
 120 527 l 2,1,2
 120 474 120 474 157 437 c 256,3,4
 194 400 194 400 246 400 c 2,5,-1
 373 400 l 1,6,-1
 373 800 l 1,7,-1
 493 800 l 1,8,-1
 493 0 l 1,9,-1
 373 0 l 1,10,-1
 373 280 l 1,11,-1
 246 280 l 2,12,13
 144 280 144 280 72 352 c 128,-1,14
 0 424 0 424 0 527 c 2,15,-1
 0 800 l 1,16,-1
 120 800 l 1,0,-1
EndSplineSet
EndChar

StartChar: "+APgA"
Encoding: 1096 1096 169
Width: 889
Flags: W
LayerCount: 2
Fore
SplineSet
0 204 m 2,0,-1
 0 800 l 1,1,-1
 120 800 l 1,2,-1
 120 204 l 2,3,4
 120 169 120 169 144.5 144.5 c 128,-1,5
 169 120 169 120 204 120 c 0,6,7
 238 120 238 120 263 144.5 c 128,-1,8
 288 169 288 169 288 204 c 2,9,-1
 288 800 l 1,10,-1
 408 800 l 1,11,-1
 408 204 l 2,12,13
 408 169 408 169 432.5 144.5 c 128,-1,14
 457 120 457 120 492 120 c 0,15,16
 526 120 526 120 551 144.5 c 128,-1,17
 576 169 576 169 576 204 c 2,18,-1
 576 800 l 1,19,-1
 696 800 l 1,20,-1
 696 199 l 2,21,22
 696 164 696 164 721 140 c 0,23,24
 726 134 726 134 733 129 c 1,25,-1
 733 0 l 1,26,27
 678 12 678 12 636 55 c 0,28,29
 635 56 635 56 634 57 c 0,30,31
 575 0 575 0 492 0 c 0,32,33
 407 0 407 0 348 59 c 1,34,35
 289 0 289 0 204 0 c 256,36,37
 119 0 119 0 59.5 59.5 c 128,-1,38
 0 119 0 119 0 204 c 2,0,-1
EndSplineSet
EndChar

StartChar: "+APkA"
Encoding: 1097 1097 170
Width: 1009
Flags: W
LayerCount: 2
Fore
SplineSet
0 204 m 2,0,-1
 0 800 l 1,1,-1
 120 800 l 1,2,-1
 120 204 l 2,3,4
 120 169 120 169 144.5 144.5 c 128,-1,5
 169 120 169 120 204 120 c 0,6,7
 238 120 238 120 263 144.5 c 128,-1,8
 288 169 288 169 288 204 c 2,9,-1
 288 800 l 1,10,-1
 408 800 l 1,11,-1
 408 204 l 2,12,13
 408 169 408 169 432.5 144.5 c 128,-1,14
 457 120 457 120 492 120 c 256,15,16
 527 120 527 120 551.5 144.5 c 128,-1,17
 576 169 576 169 576 204 c 2,18,-1
 576 800 l 1,19,-1
 696 800 l 1,20,-1
 696 204 l 2,21,22
 696 182 696 182 692 162 c 1,23,24
 728 141 728 141 759 110 c 0,25,26
 853 15 853 15 853 -120 c 1,27,-1
 732 -120 l 1,28,29
 732 -34 732 -34 673 26 c 0,30,31
 655 44 655 44 634 57 c 1,32,33
 575 0 575 0 492 0 c 0,34,35
 407 0 407 0 348 59 c 1,36,37
 289 0 289 0 204 0 c 256,38,39
 119 0 119 0 59.5 59.5 c 128,-1,40
 0 119 0 119 0 204 c 2,0,-1
EndSplineSet
EndChar

StartChar: "+APoA"
Encoding: 1098 1098 171
Width: 769
Flags: W
LayerCount: 2
Fore
SplineSet
240 400 m 1,0,-1
 240 120 l 1,1,-1
 367 120 l 2,2,3
 419 120 419 120 456 157 c 256,4,5
 493 194 493 194 493 247 c 2,6,-1
 493 273 l 2,7,8
 493 326 493 326 456 363 c 256,9,10
 419 400 419 400 367 400 c 2,11,-1
 240 400 l 1,0,-1
240 520 m 1,12,-1
 367 520 l 2,13,14
 469 520 469 520 541 448 c 128,-1,15
 613 376 613 376 613 273 c 2,16,-1
 613 247 l 2,17,18
 613 144 613 144 541 72 c 128,-1,19
 469 0 469 0 367 0 c 2,20,-1
 120 0 l 1,21,-1
 120 680 l 1,22,-1
 0 680 l 1,23,-1
 0 800 l 1,24,-1
 240 800 l 1,25,-1
 240 520 l 1,12,-1
EndSplineSet
EndChar

StartChar: "+APsA"
Encoding: 1099 1099 172
Width: 889
Flags: W
LayerCount: 2
Fore
SplineSet
120 400 m 1,0,-1
 120 120 l 1,1,-1
 247 120 l 2,2,3
 299 120 299 120 336 157 c 256,4,5
 373 194 373 194 373 247 c 2,6,-1
 373 273 l 2,7,8
 373 326 373 326 336 363 c 256,9,10
 299 400 299 400 247 400 c 2,11,-1
 120 400 l 1,0,-1
0 0 m 1,12,-1
 0 800 l 1,13,-1
 120 800 l 1,14,-1
 120 520 l 1,15,-1
 247 520 l 2,16,17
 349 520 349 520 421 448 c 128,-1,18
 493 376 493 376 493 273 c 2,19,-1
 493 247 l 2,20,21
 493 144 493 144 421 72 c 128,-1,22
 349 0 349 0 247 0 c 2,23,-1
 0 0 l 1,12,-1
613 0 m 1,24,-1
 613 800 l 1,25,-1
 733 800 l 1,26,-1
 733 0 l 1,27,-1
 613 0 l 1,24,-1
EndSplineSet
EndChar

StartChar: "+APwA"
Encoding: 1100 1100 173
Width: 649
Flags: W
LayerCount: 2
Fore
SplineSet
120 400 m 1,0,-1
 120 120 l 1,1,-1
 247 120 l 2,2,3
 299 120 299 120 336 157 c 256,4,5
 373 194 373 194 373 247 c 2,6,-1
 373 273 l 2,7,8
 373 326 373 326 336 363 c 256,9,10
 299 400 299 400 247 400 c 2,11,-1
 120 400 l 1,0,-1
0 0 m 1,12,-1
 0 800 l 1,13,-1
 120 800 l 1,14,-1
 120 520 l 1,15,-1
 247 520 l 2,16,17
 349 520 349 520 421 448 c 128,-1,18
 493 376 493 376 493 273 c 2,19,-1
 493 247 l 2,20,21
 493 144 493 144 421 72 c 128,-1,22
 349 0 349 0 247 0 c 2,23,-1
 0 0 l 1,12,-1
EndSplineSet
EndChar

StartChar: "+AP0A"
Encoding: 1101 1101 174
Width: 649
Flags: W
LayerCount: 2
Fore
SplineSet
373 460 m 1,0,-1
 373 553 l 2,1,2
 373 606 373 606 336 643 c 128,-1,3
 299 680 299 680 246.5 680 c 128,-1,4
 194 680 194 680 157 643 c 128,-1,5
 120 606 120 606 120 553 c 1,6,-1
 0 553 l 1,7,8
 0 656 0 656 72 728 c 128,-1,9
 144 800 144 800 247 800 c 0,10,11
 349 800 349 800 421 728 c 128,-1,12
 493 656 493 656 493 553 c 2,13,-1
 493 247 l 2,14,15
 493 144 493 144 421 72 c 128,-1,16
 349 0 349 0 247 0 c 0,17,18
 144 0 144 0 72 72 c 128,-1,19
 0 144 0 144 0 247 c 1,20,-1
 120 247 l 1,21,22
 120 194 120 194 157 157 c 128,-1,23
 194 120 194 120 246.5 120 c 128,-1,24
 299 120 299 120 336 157 c 128,-1,25
 373 194 373 194 373 247 c 2,26,-1
 373 340 l 1,27,-1
 187 340 l 1,28,-1
 187 460 l 1,29,-1
 373 460 l 1,0,-1
EndSplineSet
EndChar

StartChar: "+AP4A"
Encoding: 1102 1102 175
Width: 889
Flags: W
LayerCount: 2
Fore
SplineSet
360 247 m 2,0,1
 360 194 360 194 397 157 c 128,-1,2
 434 120 434 120 486.5 120 c 128,-1,3
 539 120 539 120 576 157 c 128,-1,4
 613 194 613 194 613 247 c 2,5,-1
 613 553 l 2,6,7
 613 606 613 606 576 643 c 128,-1,8
 539 680 539 680 486.5 680 c 128,-1,9
 434 680 434 680 397 643 c 128,-1,10
 360 606 360 606 360 553 c 2,11,-1
 360 247 l 2,0,1
240 520 m 1,12,-1
 240 553 l 2,13,14
 240 656 240 656 312 728 c 128,-1,15
 384 800 384 800 486 800 c 0,16,17
 589 800 589 800 661 728 c 128,-1,18
 733 656 733 656 733 553 c 2,19,-1
 733 247 l 2,20,21
 733 144 733 144 661 72 c 128,-1,22
 589 0 589 0 486 0 c 0,23,24
 384 0 384 0 312 72 c 128,-1,25
 240 144 240 144 240 247 c 2,26,-1
 240 400 l 1,27,-1
 120 400 l 1,28,-1
 120 0 l 1,29,-1
 0 0 l 1,30,-1
 0 800 l 1,31,-1
 120 800 l 1,32,-1
 120 520 l 1,33,-1
 240 520 l 1,12,-1
EndSplineSet
EndChar

StartChar: "+AP8A"
Encoding: 1103 1103 176
Width: 649
Flags: W
LayerCount: 2
Fore
SplineSet
373 400 m 1,0,-1
 373 680 l 1,1,-1
 246 680 l 2,2,3
 194 680 194 680 157 643 c 256,4,5
 120 606 120 606 120 553 c 2,6,-1
 120 527 l 2,7,8
 120 474 120 474 157 437 c 256,9,10
 194 400 194 400 246 400 c 2,11,-1
 373 400 l 1,0,-1
142 302 m 1,12,13
 104 320 104 320 72 352 c 0,14,15
 0 424 0 424 0 527 c 2,16,-1
 0 553 l 2,17,18
 0 656 0 656 72 728 c 128,-1,19
 144 800 144 800 246 800 c 2,20,-1
 493 800 l 1,21,-1
 493 0 l 1,22,-1
 373 0 l 1,23,-1
 373 280 l 1,24,-1
 264 280 l 1,25,-1
 133 0 l 1,26,-1
 0 0 l 1,27,-1
 142 302 l 1,12,13
EndSplineSet
EndChar

StartChar: "+ALgA"
Encoding: 1105 1105 177
Width: 649
Flags: W
LayerCount: 2
Fore
SplineSet
120 247 m 2,0,1
 120 194 120 194 157 157 c 128,-1,2
 194 120 194 120 246.5 120 c 128,-1,3
 299 120 299 120 336 157 c 128,-1,4
 373 194 373 194 373 247 c 1,5,-1
 493 247 l 1,6,7
 493 144 493 144 421 72 c 128,-1,8
 349 0 349 0 246 0 c 0,9,10
 144 0 144 0 72 72 c 128,-1,11
 0 144 0 144 0 247 c 2,12,-1
 0 553 l 2,13,14
 0 656 0 656 72 728 c 128,-1,15
 144 800 144 800 246 800 c 0,16,17
 349 800 349 800 421 728 c 128,-1,18
 493 656 493 656 493 553 c 2,19,-1
 493 340 l 1,20,-1
 120 340 l 1,21,-1
 120 247 l 2,0,1
373 553 m 2,22,23
 373 606 373 606 336 643 c 128,-1,24
 299 680 299 680 246.5 680 c 128,-1,25
 194 680 194 680 157 643 c 128,-1,26
 120 606 120 606 120 553 c 2,27,-1
 120 460 l 1,28,-1
 373 460 l 1,29,-1
 373 553 l 2,22,23
EndSplineSet
EndChar

StartChar: "+26wA5QDw"
Encoding: 8470 8470 178
Width: 1368
Flags: W
LayerCount: 2
Fore
SplineSet
0 150 m 1,0,-1
 234 150 l 1,1,-1
 234 1200 l 1,2,-1
 399 1200 l 1,3,-1
 804 324 l 1,4,-1
 804 1200 l 1,5,-1
 1188 1200 l 1,6,-1
 1188 1050 l 1,7,-1
 954 1050 l 1,8,-1
 954 0 l 1,9,-1
 789 0 l 1,10,-1
 384 876 l 1,11,-1
 384 0 l 1,12,-1
 0 0 l 1,13,-1
 0 150 l 1,0,-1
EndSplineSet
EndChar

StartChar: alpha
Encoding: 945 945 179
Width: 991
Flags: W
LayerCount: 2
Fore
SplineSet
206 152 m 0,0,1
 231 120 231 120 272 120 c 0,2,3
 329 120 329 120 350 172 c 2,4,-1
 459 443 l 1,5,-1
 344 638 l 2,6,7
 320 680 320 680 272 680 c 0,8,9
 231 680 231 680 206 648 c 0,10,11
 120 539 120 539 120 400 c 256,12,13
 120 261 120 261 206 152 c 0,0,1
272 800 m 0,14,15
 389 800 389 800 448 699 c 2,16,-1
 516 583 l 1,17,-1
 604 800 l 1,18,-1
 733 800 l 1,19,-1
 593 452 l 1,20,-1
 763 162 l 2,21,22
 787 120 787 120 835 120 c 1,23,-1
 835 0 l 1,24,25
 717 0 717 0 659 101 c 2,26,-1
 536 312 l 1,27,-1
 461 127 l 2,28,29
 409 0 409 0 272 0 c 0,30,31
 173 0 173 0 112 78 c 0,32,33
 0 220 0 220 0 400 c 256,34,35
 0 580 0 580 112 722 c 0,36,37
 173 800 173 800 272 800 c 0,14,15
EndSplineSet
EndChar

StartChar: beta
Encoding: 946 946 180
Width: 649
Flags: W
LayerCount: 2
Fore
SplineSet
247 795 m 1,0,-1
 247 924 l 1,1,2
 255 929 255 929 263 937 c 0,3,4
 288 961 288 961 288 996 c 256,5,6
 288 1031 288 1031 263.5 1055.5 c 128,-1,7
 239 1080 239 1080 204 1080 c 256,8,9
 169 1080 169 1080 144.5 1055.5 c 128,-1,10
 120 1031 120 1031 120 996 c 2,11,-1
 120 -400 l 1,12,-1
 0 -400 l 1,13,-1
 0 996 l 2,14,15
 0 1081 0 1081 59 1140.5 c 128,-1,16
 118 1200 118 1200 204 1200 c 0,17,18
 289 1200 289 1200 348.5 1140.5 c 128,-1,19
 408 1081 408 1081 408 996 c 0,20,21
 408 933 408 933 375 884 c 1,22,23
 399 869 399 869 421 847 c 0,24,25
 493 775 493 775 493 672 c 2,26,-1
 493 247 l 2,27,28
 493 144 493 144 421 72 c 256,29,30
 349 0 349 0 247 0 c 1,31,-1
 247 120 l 1,32,33
 299 120 299 120 336 157 c 128,-1,34
 373 194 373 194 373 247 c 2,35,-1
 373 672 l 2,36,37
 373 725 373 725 336 760 c 128,-1,38
 299 795 299 795 247 795 c 1,0,-1
EndSplineSet
EndChar

StartChar: gamma
Encoding: 947 947 181
Width: 649
Flags: W
LayerCount: 2
Fore
SplineSet
254 -209 m 2,0,1
 250 -231 250 -231 264.5 -255.5 c 128,-1,2
 279 -280 279 -280 313.5 -280 c 128,-1,3
 348 -280 348 -280 362.5 -254.5 c 128,-1,4
 377 -229 377 -229 371 -205 c 2,5,-1
 303 61 l 1,6,-1
 254 -209 l 2,0,1
362 1071 m 2,7,8
 373 1134 373 1134 373 1200 c 1,9,-1
 493 1200 l 1,10,11
 493 1124 493 1124 480 1049 c 2,12,-1
 353 345 l 1,13,-1
 488 -175 l 2,14,15
 493 -195 493 -195 493 -216 c 0,16,17
 493 -268 493 -268 462 -323 c 0,18,19
 417 -400 417 -400 320 -400 c 0,20,21
 209 -400 209 -400 166.5 -326.5 c 128,-1,22
 124 -253 124 -253 136 -188 c 2,23,-1
 231 340 l 1,24,-1
 63 992 l 2,25,26
 49 1046 49 1046 0 1072 c 1,27,-1
 0 1200 l 1,28,29
 142 1164 142 1164 179 1022 c 2,30,-1
 282 624 l 1,31,-1
 362 1071 l 2,7,8
EndSplineSet
EndChar

StartChar: delta
Encoding: 948 948 182
Width: 649
Flags: W
LayerCount: 2
Fore
SplineSet
120 247 m 2,0,1
 120 194 120 194 157 157 c 128,-1,2
 194 120 194 120 246.5 120 c 128,-1,3
 299 120 299 120 336 157 c 128,-1,4
 373 194 373 194 373 247 c 2,5,-1
 373 553 l 2,6,7
 373 606 373 606 336 643 c 128,-1,8
 299 680 299 680 246.5 680 c 128,-1,9
 194 680 194 680 157 643 c 128,-1,10
 120 606 120 606 120 553 c 2,11,-1
 120 247 l 2,0,1
201 981 m 2,12,-1
 313 852 l 1,13,-1
 432 715 l 1,14,-1
 432 716 l 1,15,16
 493 648 493 648 493 553 c 2,17,-1
 493 247 l 2,18,19
 493 144 493 144 421 72 c 128,-1,20
 349 0 349 0 246 0 c 0,21,22
 144 0 144 0 72 72 c 128,-1,23
 0 144 0 144 0 247 c 2,24,-1
 0 553 l 2,25,26
 0 656 0 656 72 728 c 0,27,28
 128 784 128 784 203 797 c 1,29,-1
 117 895 l 2,30,31
 67 947 67 947 67 1021 c 128,-1,32
 67 1095 67 1095 119.5 1147.5 c 128,-1,33
 172 1200 172 1200 247 1200 c 256,34,35
 322 1200 322 1200 382 1138 c 1,36,-1
 433 1080 l 1,37,-1
 433 897 l 1,38,-1
 292 1059 l 2,39,40
 272 1080 272 1080 247 1080 c 128,-1,41
 222 1080 222 1080 204.5 1062.5 c 128,-1,42
 187 1045 187 1045 187 1021.5 c 128,-1,43
 187 998 187 998 201 981 c 2,12,-1
EndSplineSet
EndChar

StartChar: epsilon
Encoding: 949 949 183
Width: 650
Flags: W
LayerCount: 2
Fore
SplineSet
174 351 m 1,0,1
 155 338 155 338 142 320 c 0,2,3
 119 288 119 288 119 247 c 2,4,-1
 119 246 l 2,5,6
 119 194 119 194 157 157 c 0,7,8
 194 120 194 120 246 120 c 0,9,10
 300 120 300 120 336.5 157 c 128,-1,11
 373 194 373 194 373 247 c 1,12,-1
 494 247 l 1,13,14
 494 145 494 145 422 72.5 c 128,-1,15
 350 0 350 0 246 0 c 0,16,17
 143 0 143 0 71.5 72.5 c 128,-1,18
 0 145 0 145 0 247 c 0,19,20
 0 335 0 335 53 400 c 1,21,22
 0 465 0 465 0 553 c 0,23,24
 0 655 0 655 71.5 727.5 c 128,-1,25
 143 800 143 800 246 800 c 0,26,27
 350 800 350 800 422 727.5 c 128,-1,28
 494 655 494 655 494 553 c 1,29,-1
 373 553 l 1,30,31
 373 606 373 606 336.5 643 c 128,-1,32
 300 680 300 680 246 680 c 0,33,34
 194 680 194 680 156.5 643 c 128,-1,35
 119 606 119 606 119 553 c 0,36,37
 119 513 119 513 141 482 c 0,38,39
 152 462 152 462 147 474 c 1,40,-1
 174 451 l 1,41,-1
 174 351 l 1,0,1
EndSplineSet
EndChar

StartChar: zeta
Encoding: 950 950 184
Width: 649
Flags: W
LayerCount: 2
Fore
SplineSet
301 1116 m 2,0,-1
 493 1116 l 1,1,-1
 493 959 l 1,2,3
 277 715 277 715 133 422 c 0,4,5
 120 396 120 396 120 367 c 0,6,7
 120 309 120 309 164 271 c 2,8,-1
 367 94 l 2,9,10
 493 -16 493 -16 493 -183 c 1,11,-1
 373 -183 l 1,12,13
 373 -70 373 -70 288 3 c 2,14,-1
 85 181 l 2,15,16
 0 254 0 254 0 367 c 0,17,18
 0 422 0 422 25 475 c 0,19,20
 163 757 163 757 366 996 c 1,21,-1
 301 996 l 2,22,23
 81 996 81 996 0 1200 c 1,24,-1
 136 1200 l 1,25,26
 197 1116 197 1116 301 1116 c 2,0,-1
EndSplineSet
EndChar

StartChar: eta
Encoding: 951 951 185
Width: 677
Flags: W
LayerCount: 2
Fore
SplineSet
76 749 m 0,1,2
 88 737 88 737 97 725 c 1,3,4
 99 727 99 727 100 728 c 0,5,6
 172 800 172 800 275 800 c 0,7,8
 377 800 377 800 449 728 c 128,-1,9
 521 656 521 656 521 553 c 2,10,-1
 521 -400 l 1,11,-1
 401 -400 l 1,12,-1
 401 553 l 2,13,14
 401 606 401 606 364 643 c 128,-1,15
 327 680 327 680 274.5 680 c 128,-1,16
 222 680 222 680 185 643 c 128,-1,17
 148 606 148 606 148 553 c 2,18,-1
 148 0 l 1,19,-1
 28 0 l 1,20,-1
 28 574 l 2,21,22
 28 620 28 620 0 654 c 1,23,-1
 0 800 l 1,24,0
 42 783 42 783 76 749 c 0,1,2
EndSplineSet
EndChar

StartChar: theta
Encoding: 952 952 186
Width: 889
Flags: W
LayerCount: 2
Fore
SplineSet
367 1200 m 0,1,2
 517 1200 517 1200 572 1104.5 c 128,-1,3
 627 1009 627 1009 627 940 c 2,4,-1
 627 799 l 1,5,-1
 733 799 l 1,6,-1
 733 679 l 1,7,-1
 627 679 l 1,8,-1
 627 260 l 2,9,10
 627 191 627 191 572 95.5 c 128,-1,11
 517 0 517 0 367 0 c 0,12,13
 216 0 216 0 161 95.5 c 128,-1,14
 106 191 106 191 106 260 c 2,15,-1
 106 409 l 2,16,17
 106 530 106 530 0 588 c 1,18,-1
 0 718 l 1,19,20
 226 646 226 646 226 409 c 2,21,-1
 226 260 l 2,22,23
 226 223 226 223 256 171.5 c 128,-1,24
 286 120 286 120 367 120 c 256,25,26
 448 120 448 120 477.5 171.5 c 128,-1,27
 507 223 507 223 507 260 c 2,28,-1
 507 679 l 1,29,-1
 367 679 l 2,30,31
 216 679 216 679 141 809.5 c 128,-1,32
 66 940 66 940 141 1070 c 128,-1,0
 216 1200 216 1200 367 1200 c 0,1,2
245 1010 m 128,-1,34
 204 940 204 940 245 869.5 c 128,-1,35
 286 799 286 799 367 799 c 2,36,-1
 507 799 l 1,37,-1
 507 940 l 2,38,39
 507 977 507 977 477.5 1028.5 c 128,-1,40
 448 1080 448 1080 367 1080 c 256,41,33
 286 1080 286 1080 245 1010 c 128,-1,34
EndSplineSet
EndChar

StartChar: iota
Encoding: 953 953 187
Width: 403
Flags: W
LayerCount: 2
Fore
SplineSet
246 0 m 1,0,1
 144 0 144 0 72 72 c 128,-1,2
 0 144 0 144 0 247 c 2,3,-1
 0 800 l 1,4,-1
 120 800 l 1,5,-1
 120 247 l 2,6,7
 120 194 120 194 157 157 c 128,-1,8
 194 120 194 120 247 120 c 1,9,-1
 246 0 l 1,0,1
EndSplineSet
EndChar

StartChar: kappa
Encoding: 954 954 188
Width: 649
Flags: W
LayerCount: 2
Fore
SplineSet
204 596 m 2,0,-1
 204 427 l 1,1,-1
 365 764 l 2,2,3
 373 781 373 781 373 800 c 1,4,-1
 493 800 l 1,5,6
 493 756 493 756 475 715 c 0,7,8
 399 550 399 550 399 363 c 128,-1,9
 399 176 399 176 493 0 c 1,10,-1
 360 0 l 1,11,12
 293 149 293 149 282 311 c 1,13,-1
 133 0 l 1,14,-1
 0 0 l 1,15,-1
 64 134 l 2,16,17
 84 176 84 176 84 222 c 2,18,-1
 84 596 l 2,19,20
 84 619 84 619 66.5 649.5 c 128,-1,21
 49 680 49 680 0 680 c 1,22,-1
 0 800 l 1,23,24
 118 800 118 800 161 725.5 c 128,-1,25
 204 651 204 651 204 596 c 2,0,-1
EndSplineSet
EndChar

StartChar: lambda
Encoding: 955 955 189
Width: 889
Flags: W
LayerCount: 2
Fore
SplineSet
244 1200 m 1,0,-1
 252 1200 l 1,1,2
 404 1172 404 1172 439 1033 c 2,3,-1
 652 184 l 2,4,5
 668 120 668 120 733 120 c 1,6,-1
 733 0 l 1,7,8
 574 0 574 0 535 154 c 2,9,-1
 389 740 l 1,10,-1
 127 0 l 1,11,-1
 0 0 l 1,12,-1
 323 915 l 2,13,14
 331 935 331 935 331 990.5 c 128,-1,15
 331 1046 331 1046 247 1076 c 1,16,-1
 244 1200 l 1,0,-1
EndSplineSet
EndChar

StartChar: mu
Encoding: 956 956 190
Width: 889
Flags: W
LayerCount: 2
Fore
SplineSet
493 271 m 1,0,-1
 493 247 l 2,1,2
 493 144 493 144 421 72 c 128,-1,3
 349 0 349 0 245 0 c 0,4,5
 175 0 175 0 120 34 c 1,6,-1
 120 -400 l 1,7,-1
 0 -400 l 1,8,-1
 0 800 l 1,9,-1
 120 800 l 1,10,-1
 120 229 l 1,11,12
 125 187 125 187 156 156 c 0,13,14
 193 120 193 120 245 120 c 0,15,16
 298 120 298 120 335 156.5 c 128,-1,17
 372 193 372 193 373 247 c 2,18,-1
 373 800 l 1,19,-1
 493 800 l 1,20,-1
 493 672 l 1,21,22
 513 378 513 378 726 166 c 0,23,24
 729 162 729 162 733 159 c 1,25,-1
 733 0 l 1,26,27
 687 36 687 36 643 79 c 0,28,29
 553 169 553 169 493 271 c 1,0,-1
EndSplineSet
EndChar

StartChar: nu
Encoding: 957 957 191
Width: 649
Flags: W
LayerCount: 2
Fore
SplineSet
282 294 m 1,0,1
 373 502 373 502 373 729 c 0,2,3
 373 764 373 764 371 800 c 1,4,-1
 491 800 l 1,5,6
 493 764 493 764 493 729 c 0,7,8
 493 322 493 322 247 0 c 1,9,-1
 0 800 l 1,10,-1
 126 800 l 1,11,-1
 282 294 l 1,0,1
EndSplineSet
EndChar

StartChar: xi
Encoding: 958 958 192
Width: 649
Flags: W
LayerCount: 2
Fore
SplineSet
301 1116 m 2,0,-1
 493 1116 l 1,1,-1
 493 996 l 1,2,-1
 247 996 l 2,3,4
 174 996 174 996 137 932.5 c 128,-1,5
 100 869 100 869 137 806 c 128,-1,6
 174 743 174 743 247 743 c 1,7,-1
 247 623 l 1,8,9
 213 623 213 623 166.5 596 c 128,-1,10
 120 569 120 569 120 496 c 2,11,-1
 120 367 l 1,12,13
 126 309 126 309 164 271 c 2,14,-1
 367 94 l 2,15,16
 493 -16 493 -16 493 -183 c 1,17,-1
 373 -183 l 1,18,19
 373 -70 373 -70 288 3 c 2,20,-1
 85 181 l 2,21,22
 0 254 0 254 0 367 c 2,23,-1
 0 496 l 2,24,25
 0 609 0 609 79 684 c 1,26,27
 0 757 0 757 0 869 c 0,28,29
 0 993 0 993 99 1067 c 1,30,31
 32 1120 32 1120 0 1200 c 1,32,-1
 136 1200 l 1,33,34
 197 1116 197 1116 301 1116 c 2,0,-1
EndSplineSet
EndChar

StartChar: pi
Encoding: 960 960 193
Width: 889
Flags: W
LayerCount: 2
Fore
SplineSet
84 800 m 1,0,-1
 733 800 l 1,1,-1
 733 680 l 1,2,-1
 577 680 l 1,3,4
 574 638 574 638 574 457.5 c 128,-1,5
 574 277 574 277 733 0 c 1,6,-1
 597 0 l 1,7,8
 454 281 454 281 454 459.5 c 128,-1,9
 454 638 454 638 457 680 c 1,10,-1
 204 680 l 1,11,-1
 204 204 l 2,12,13
 204 149 204 149 177 102 c 0,14,15
 118 0 118 0 0 0 c 1,16,-1
 0 120 l 1,17,18
 49 120 49 120 73 162 c 0,19,20
 84 182 84 182 84 204 c 2,21,-1
 84 625 l 1,22,23
 73 620 73 620 60 620 c 0,24,25
 25 620 25 620 12.5 642 c 128,-1,26
 0 664 0 664 0 680 c 256,27,28
 0 696 0 696 8 710 c 0,29,30
 44 760 44 760 84 800 c 1,0,-1
EndSplineSet
EndChar

StartChar: rho
Encoding: 961 961 194
Width: 733
Flags: W
LayerCount: 2
Fore
SplineSet
84 553 m 2,0,1
 84 656 84 656 156 728 c 128,-1,2
 228 800 228 800 330 800 c 0,3,4
 433 800 433 800 505 728 c 128,-1,5
 577 656 577 656 577 553 c 2,6,-1
 577 247 l 2,7,8
 577 144 577 144 505 72 c 128,-1,9
 433 0 433 0 330 0 c 0,10,11
 260 0 260 0 204 34 c 1,12,-1
 204 -196 l 2,13,14
 204 -280 204 -280 144.5 -340 c 128,-1,15
 85 -400 85 -400 0 -400 c 1,16,-1
 0 -279 l 1,17,18
 34 -279 34 -279 59 -254 c 0,19,20
 84 -230 84 -230 84 -196 c 2,21,-1
 84 553 l 2,0,1
204 553 m 2,22,-1
 204 247 l 2,23,24
 204 194 204 194 241 157 c 256,25,26
 278 120 278 120 330.5 120 c 128,-1,27
 383 120 383 120 420 157 c 128,-1,28
 457 194 457 194 457 247 c 2,29,-1
 457 553 l 2,30,31
 457 606 457 606 420 643 c 128,-1,32
 383 680 383 680 330.5 680 c 128,-1,33
 278 680 278 680 241 643 c 128,-1,34
 204 606 204 606 204 553 c 2,22,-1
EndSplineSet
EndChar

StartChar: sigma
Encoding: 963 963 195
Width: 649
Flags: W
LayerCount: 2
Fore
SplineSet
120 247 m 2,0,1
 120 194 120 194 157 157 c 128,-1,2
 194 120 194 120 246.5 120 c 128,-1,3
 299 120 299 120 336 157 c 128,-1,4
 373 194 373 194 373 247 c 2,5,-1
 373 553 l 2,6,7
 373 606 373 606 336 643 c 128,-1,8
 299 680 299 680 246.5 680 c 128,-1,9
 194 680 194 680 157 643 c 128,-1,10
 120 606 120 606 120 553 c 2,11,-1
 120 247 l 2,0,1
408 740 m 1,12,13
 415 734 415 734 421 728 c 0,14,15
 493 656 493 656 493 553 c 2,16,-1
 493 247 l 2,17,18
 493 144 493 144 421 72 c 128,-1,19
 349 0 349 0 246 0 c 0,20,21
 144 0 144 0 72 72 c 128,-1,22
 0 144 0 144 0 247 c 2,23,-1
 0 553 l 2,24,25
 0 656 0 656 72 728 c 128,-1,26
 144 800 144 800 246 800 c 2,27,-1
 247 800 l 2,28,29
 299 800 299 800 336 837 c 128,-1,30
 373 874 373 874 373 927 c 1,31,-1
 493 927 l 1,32,33
 493 824 493 824 421 752 c 0,34,35
 415 746 415 746 408 740 c 1,12,13
EndSplineSet
EndChar

StartChar: tau
Encoding: 964 964 196
Width: 889
Flags: W
LayerCount: 2
Fore
SplineSet
210 795 m 2,0,-1
 471 743 l 2,1,2
 483 740 483 740 515.5 740 c 128,-1,3
 548 740 548 740 572 763.5 c 128,-1,4
 596 787 596 787 603 800 c 1,5,-1
 733 800 l 1,6,7
 716 738 716 738 657 679 c 128,-1,8
 598 620 598 620 496 620 c 0,9,10
 471 620 471 620 447 625 c 2,11,-1
 427 629 l 1,12,-1
 427 247 l 2,13,14
 427 194 427 194 464 157 c 128,-1,15
 501 120 501 120 553 120 c 1,16,-1
 553 0 l 1,17,18
 451 0 451 0 379 70.5 c 128,-1,19
 307 141 307 141 307 247 c 2,20,-1
 307 650 l 1,21,-1
 186 678 l 2,22,23
 125 690 125 690 78 649 c 2,24,-1
 0 575 l 1,25,-1
 0 741 l 1,26,27
 69 800 69 800 161 800 c 0,28,29
 186 800 186 800 210 795 c 2,0,-1
EndSplineSet
EndChar

StartChar: upsilon
Encoding: 965 965 197
Width: 733
Flags: W
LayerCount: 2
Fore
SplineSet
204 596 m 2,0,-1
 204 247 l 2,1,2
 204 194 204 194 241 157 c 128,-1,3
 278 120 278 120 330.5 120 c 128,-1,4
 383 120 383 120 420 157 c 128,-1,5
 457 194 457 194 457 247 c 2,6,-1
 457 800 l 1,7,-1
 577 800 l 1,8,-1
 577 247 l 2,9,10
 577 144 577 144 505 72 c 128,-1,11
 433 0 433 0 330 0 c 0,12,13
 228 0 228 0 156 72 c 128,-1,14
 84 144 84 144 84 247 c 2,15,-1
 84 596 l 2,16,17
 84 630 84 630 59 654 c 0,18,19
 34 679 34 679 0 679 c 1,20,-1
 0 800 l 1,21,22
 85 800 85 800 144.5 740 c 128,-1,23
 204 680 204 680 204 596 c 2,0,-1
EndSplineSet
EndChar

StartChar: phi
Encoding: 966 966 198
Width: 889
Flags: W
LayerCount: 2
Fore
SplineSet
520 800 m 256,1,2
 608 800 608 800 670.5 737.5 c 128,-1,3
 733 675 733 675 733 587 c 2,4,-1
 733 367 l 2,5,6
 733 215 733 215 638 119.5 c 128,-1,7
 543 24 543 24 427 5 c 1,8,-1
 427 -196 l 2,9,10
 427 -281 427 -281 367 -340.5 c 128,-1,11
 307 -400 307 -400 223 -400 c 1,12,-1
 223 -274 l 1,13,14
 257 -280 257 -280 282 -255.5 c 128,-1,15
 307 -231 307 -231 307 -196 c 2,16,-1
 307 5 l 1,17,18
 191 24 191 24 95.5 119.5 c 128,-1,19
 0 215 0 215 0 367 c 2,20,-1
 0 587 l 2,21,22
 0 675 0 675 62.5 737.5 c 128,-1,23
 125 800 125 800 213 800 c 1,24,-1
 213 680 l 1,25,26
 175 680 175 680 147.5 652.5 c 128,-1,27
 120 625 120 625 120 587 c 2,28,-1
 120 367 l 2,29,30
 120 265 120 265 180.5 204.5 c 128,-1,31
 241 144 241 144 307 135 c 1,32,-1
 307 587 l 2,33,34
 307 675 307 675 369.5 737.5 c 128,-1,0
 432 800 432 800 520 800 c 256,1,2
427 587 m 2,36,-1
 427 123 l 1,37,38
 493 144 493 144 553 204.5 c 128,-1,39
 613 265 613 265 613 367 c 2,40,-1
 613 587 l 2,41,42
 613 625 613 625 586 652.5 c 128,-1,43
 559 680 559 680 520 680 c 128,-1,44
 481 680 481 680 454 652.5 c 128,-1,35
 427 625 427 625 427 587 c 2,36,-1
EndSplineSet
EndChar

StartChar: chi
Encoding: 967 967 199
Width: 649
Flags: W
LayerCount: 2
Fore
SplineSet
210 427 m 1,0,-1
 305 800 l 1,1,-1
 429 800 l 1,2,-1
 257 122 l 1,3,-1
 292 -107 l 2,4,5
 318 -280 318 -280 493 -280 c 1,6,-1
 493 -400 l 1,7,8
 252 -400 252 -400 183 -168 c 1,9,-1
 124 -400 l 1,10,-1
 0 -400 l 1,11,-1
 134 128 l 1,12,-1
 61 597 l 2,13,14
 56 642 56 642 0 672 c 1,15,-1
 0 800 l 1,16,17
 159 760 159 760 176 632 c 1,18,-1
 210 427 l 1,0,-1
EndSplineSet
EndChar

StartChar: psi
Encoding: 968 968 200
Width: 982
Flags: W
LayerCount: 2
Fore
SplineSet
93 587 m 2,0,1
 93 625 93 625 65.5 652.5 c 128,-1,2
 38 680 38 680 0 680 c 1,3,-1
 0 800 l 1,4,5
 88 800 88 800 150.5 737.5 c 128,-1,6
 213 675 213 675 213 587 c 2,7,-1
 213 367 l 2,8,9
 213 265 213 265 273.5 204.5 c 128,-1,10
 334 144 334 144 400 135 c 1,11,-1
 400 800 l 1,12,-1
 520 800 l 1,13,-1
 520 123 l 1,14,15
 586 144 586 144 646 204.5 c 128,-1,16
 706 265 706 265 706 367 c 2,17,-1
 706 587 l 2,18,19
 706 625 706 625 679 652.5 c 128,-1,20
 652 680 652 680 613 680 c 1,21,-1
 613 800 l 1,22,23
 701 800 701 800 763.5 737.5 c 128,-1,24
 826 675 826 675 826 587 c 2,25,-1
 826 367 l 2,26,27
 826 215 826 215 731 119.5 c 128,-1,28
 636 24 636 24 520 5 c 1,29,-1
 520 -400 l 1,30,-1
 400 -400 l 1,31,-1
 400 5 l 1,32,33
 284 24 284 24 188.5 119.5 c 128,-1,34
 93 215 93 215 93 367 c 2,35,-1
 93 587 l 2,0,1
EndSplineSet
EndChar

StartChar: omega
Encoding: 969 969 201
Width: 889
Flags: W
LayerCount: 2
Fore
SplineSet
367 65 m 1,0,1
 302 0 302 0 213 0 c 0,2,3
 125 0 125 0 62.5 62.5 c 128,-1,4
 0 125 0 125 0 213 c 0,5,6
 0 553 0 553 234 800 c 1,7,-1
 321 718 l 1,8,9
 120 505 120 505 120 213 c 0,10,11
 120 175 120 175 147.5 147.5 c 128,-1,12
 175 120 175 120 213.5 120 c 128,-1,13
 252 120 252 120 279.5 147.5 c 128,-1,14
 307 175 307 175 307 213 c 2,15,-1
 307 493 l 1,16,-1
 426 493 l 1,17,-1
 426 213 l 2,18,19
 426 175 426 175 453.5 147.5 c 128,-1,20
 481 120 481 120 519.5 120 c 128,-1,21
 558 120 558 120 585.5 147.5 c 128,-1,22
 613 175 613 175 613 213 c 0,23,24
 613 505 613 505 412 718 c 1,25,-1
 499 800 l 1,26,27
 733 553 733 553 733 213 c 0,28,29
 733 125 733 125 670.5 62.5 c 128,-1,30
 608 0 608 0 520 0 c 0,31,32
 431 0 431 0 367 65 c 1,0,1
EndSplineSet
EndChar

